<svg width="28" height="28" viewBox="0 0 28 28" fill="none" xmlns="http://www.w3.org/2000/svg">
<path d="M14.4039 26.8586L13.2389 19.6875L12.5216 26.6791L10.1012 25.3342L12.7822 16.0949L15.0311 19.777L16.1065 24.7969L14.4039 26.8586ZM5.99895 26.6464L5.5713 25.1232L4.0523 24.6298L5.57469 24.2019L6.06797 22.6824L6.49617 24.2052L8.01555 24.699L6.49284 25.1267L5.99895 26.6464ZM9.33161 23.6126L7.74731 23.49L4.23856 17.7265L4.01172 13.1923L8.30266 14.8515L11.0972 18.5684L10.2004 22.0111L6.74938 17.4695L9.33172 23.6126H9.33161ZM17.2976 22.04L16.3668 21.9237L15.9015 19.538L15.1206 18.0738L20.1405 13.0539L21.8441 13.5912L21.1268 17.6251L17.2976 22.0399L17.2976 22.04ZM18.301 19.7489L19.7923 17.9705L20.3381 15.7325L18.9609 17.5109L18.301 19.7489ZM11.4696 17.6486L9.36262 14.8257L10.5729 8.86338L14.7863 3.66522L18.2374 8.32607L17.8792 14.1085L14.6519 17.4247L12.5902 14.2871L11.4696 17.6486ZM14.0574 15.0647L15.5438 9.89123L16.8966 8.64118L15.3638 8.85173L14.755 6.48485L14.3963 8.85173L11.9165 9.15338L14.3834 10.0377L14.0574 15.0646L14.0574 15.0647ZM8.73913 13.9858L7.21466 11.565L7.75278 6.45647L9.45591 9.86273L8.73907 13.9859L8.73913 13.9858ZM21.4407 12.7576L20.901 10.8339L18.9827 10.2109L20.9051 9.67018L21.5282 7.75196L22.0688 9.67477L23.987 10.2983L22.0646 10.8381L21.4406 12.7576L21.4407 12.7576ZM9.74308 7.4013L9.06802 4.9956L6.66855 4.2163L9.07348 3.54009L9.85262 1.14062L10.5289 3.54556L12.9279 4.32557L10.5234 5.00096L9.74308 7.4013Z" fill="white"/>
</svg>
