<svg width="28" height="28" viewBox="0 0 28 28" fill="none" xmlns="http://www.w3.org/2000/svg">
<path d="M6.58369 21.4323C6.4495 21.2995 6.34298 21.1415 6.27029 20.9672C6.19759 20.793 6.16016 20.6061 6.16016 20.4173C6.16016 20.2285 6.19759 20.0416 6.27029 19.8674C6.34298 19.6932 6.4495 19.5351 6.58369 19.4023C7.5573 18.4279 8.71373 17.6552 9.98663 17.1287C11.2595 16.6021 12.6239 16.3321 14.0014 16.334C15.3789 16.3321 16.7432 16.6021 18.0161 17.1287C19.289 17.6552 20.4454 18.4279 21.419 19.4023C21.5532 19.5351 21.6597 19.6932 21.7324 19.8674C21.8051 20.0416 21.8426 20.2285 21.8426 20.4173C21.8426 20.6061 21.8051 20.793 21.7324 20.9672C21.6597 21.1415 21.5532 21.2995 21.419 21.4323C20.4454 22.4068 19.289 23.1795 18.0161 23.706C16.7432 24.2325 15.3789 24.5026 14.0014 24.5007C12.6239 24.5026 11.2595 24.2325 9.98663 23.706C8.71373 23.1795 7.5573 22.4068 6.58369 21.4323Z" fill="white"/>
<path fill-rule="evenodd" clip-rule="evenodd" d="M9.91536 8.75H18.082V9.33333H18.6654C18.6654 12.4098 16.7042 15.1667 13.9987 15.1667C11.2932 15.1667 9.33203 12.4098 9.33203 9.33333H9.91536V8.75ZM10.5255 9.91667C10.7472 12.3293 12.3257 14 13.9987 14C15.6717 14 17.2502 12.3293 17.4719 9.91667H10.5255Z" fill="white"/>
<path fill-rule="evenodd" clip-rule="evenodd" d="M13.9987 3.5C16.8979 3.5 19.2487 6.11217 19.2487 9.33333H8.7487C8.7487 6.11217 11.0995 3.5 13.9987 3.5ZM13.9987 8.75C14.4628 8.75 14.9079 8.56563 15.2361 8.23744C15.5643 7.90925 15.7487 7.46413 15.7487 7C15.7487 6.53587 15.5643 6.09075 15.2361 5.76256C14.9079 5.43437 14.4628 5.25 13.9987 5.25C13.5346 5.25 13.0894 5.43437 12.7613 5.76256C12.4331 6.09075 12.2487 6.53587 12.2487 7C12.2487 7.46413 12.4331 7.90925 12.7613 8.23744C13.0894 8.56563 13.5346 8.75 13.9987 8.75ZM7.58203 9.91667C7.58203 9.76196 7.64349 9.61358 7.75289 9.50419C7.86228 9.39479 8.01065 9.33333 8.16536 9.33333H19.832C19.9867 9.33333 20.1351 9.39479 20.2445 9.50419C20.3539 9.61358 20.4154 9.76196 20.4154 9.91667C20.4154 10.0714 20.3539 10.2197 20.2445 10.3291C20.1351 10.4385 19.9867 10.5 19.832 10.5H8.16536C8.01065 10.5 7.86228 10.4385 7.75289 10.3291C7.64349 10.2197 7.58203 10.0714 7.58203 9.91667Z" fill="white"/>
</svg>
