<svg width="28" height="28" viewBox="0 0 28 28" fill="none" xmlns="http://www.w3.org/2000/svg">
<path d="M18.2492 1.19922C18.2492 1.19922 19.0203 2.48383 18.8125 3.11766C18.6266 3.68531 17.5273 3.62625 17.3906 4.20813C17.2867 4.67023 17.7844 5.38336 18.0742 5.74813H18.4461C18.8344 5.13508 19.1352 4.55703 19.2117 3.83734C19.6437 4.28906 19.7805 5.00164 19.2719 5.74813H19.7312C20.1687 5.22641 21.0547 4.05828 20.8906 3.30414C20.6555 2.20328 18.2492 1.19922 18.2492 1.19922ZM5.6875 2.79336C4.73047 2.79336 4.0775 3.06352 3.74664 3.55953C3.41578 4.05555 3.44531 4.59805 3.44531 5.03555V5.69344H4.42969V5.03555C4.42969 4.59805 4.45922 4.26555 4.56586 4.10531C4.6725 3.94508 4.89453 3.77773 5.6875 3.77773H9.1875C9.73438 3.77773 10.4453 4.45914 10.4453 5.1225V11.7966H11.4297V10.2325H17.0789L17.1664 9.24813H11.4297V5.1225C11.4297 3.86195 10.3906 2.79336 9.1875 2.79336H5.6875ZM3.0625 6.62313V7.6075H4.8125V6.62313H3.0625ZM18.3859 6.7325L17.6039 15.3731H20.0211L19.2391 6.7325H18.3859ZM3.9375 8.4825C3.39062 8.4825 2.85031 8.66844 2.45984 9.01297C2.06883 9.36297 1.80469 9.86063 1.80469 10.6153V26.8028H6.07031V10.6153C6.07031 9.86609 5.80781 9.36297 5.41406 9.01297C5.02469 8.66844 4.48438 8.4825 3.9375 8.4825ZM20.7758 12.7481L20.8633 13.7325H22.3125C23.1055 13.7325 23.6086 13.9239 23.9313 14.2466C24.2539 14.5747 24.4453 15.0942 24.4453 15.9091V18.0911C24.5984 18.0309 24.7625 17.9981 24.9375 17.9981C25.1125 17.9981 25.2766 18.0309 25.4297 18.0911V15.9091C25.4297 14.9302 25.1836 14.1153 24.6312 13.5575C24.0789 12.9942 23.2695 12.7481 22.3125 12.7481H20.7758ZM9.67969 12.8575V13.6231H12.1953V12.8575H9.67969ZM10.9648 14.6075C9.34062 14.6075 7.91328 15.4114 7.05469 16.6473V17.5606H14.8203V16.5708C13.9562 15.3841 12.5563 14.6075 10.9648 14.6075ZM15.8047 16.3575V22.3731H21.8203V16.3575H15.8047ZM7.05469 18.545V19.3106H14.8203V18.545H7.05469ZM24.9375 18.9825C24.7188 18.9825 24.5547 19.1466 24.5547 19.3653C24.5547 19.5841 24.7188 19.7481 24.9375 19.7481C25.1562 19.7481 25.3203 19.5841 25.3203 19.3653C25.3203 19.1466 25.1562 18.9825 24.9375 18.9825ZM7.05469 20.295V22.0778C7.41562 22.5973 7.875 23.0403 8.40547 23.3794L7.16406 25.8731V26.8028H9.21484V25.8731H8.26328L9.29141 23.8223C9.81094 24.0137 10.3742 24.1231 10.9648 24.1231C11.5555 24.1231 12.1188 24.0137 12.6383 23.8223L13.6664 25.8731H12.7148V26.8028H16.2148V25.8731H14.7711L13.5242 23.3794C14.0273 23.0567 14.4703 22.6411 14.8203 22.1598V20.295H7.05469ZM24.4453 20.6395V22.3731H25.4297V20.6395C25.2766 20.6997 25.1125 20.7325 24.9375 20.7325C24.7625 20.7325 24.5984 20.6997 24.4453 20.6395ZM18.0852 23.3575L20.7977 26.8028H23.0398L20.3273 23.3575H18.0852ZM21.5852 23.3575L24.2977 26.8028H26.1953V26.3161L23.8273 23.3575H21.5852ZM25.0852 23.3575L26.1953 24.7466V23.3575H25.0852ZM17.5547 24.2653V26.8028H19.5398L17.5547 24.2653Z" fill="white"/>
</svg>
