<svg width="28" height="28" viewBox="0 0 28 28" fill="none" xmlns="http://www.w3.org/2000/svg">
<path fill-rule="evenodd" clip-rule="evenodd" d="M0 13.5521C9.6609e-05 13.2778 0.0566073 13.0065 0.166019 12.755C0.275431 12.5034 0.435406 12.2771 0.636 12.0901L13.35 0.240066C13.5311 0.0851364 13.7616 0 14 0C14.2384 0 14.4689 0.0851364 14.65 0.240066L27.364 12.0901C27.5646 12.2771 27.7246 12.5034 27.834 12.755C27.9434 13.0065 27.9999 13.2778 28 13.5521V25.0001C28 25.7957 27.6839 26.5588 27.1213 27.1214C26.5587 27.684 25.7956 28.0001 25 28.0001H3C2.20435 28.0001 1.44129 27.684 0.87868 27.1214C0.31607 26.5588 0 25.7957 0 25.0001L0 13.5521ZM13.54 17.5001H11.008V11.5001H17.008V17.5001H13.54ZM9.492 25.5001H13V19.5001H7V25.5001H9.492ZM17.536 25.5001H15V19.5001H21V25.5001H17.536Z" fill="white"/>
</svg>
