<svg width="21" height="20" viewBox="0 0 21 20" fill="none" xmlns="http://www.w3.org/2000/svg">
<g clip-path="url(#clip0_1819_35264)">
<path d="M20.3033 10.23C20.3033 9.55019 20.2481 8.86675 20.1306 8.198H10.6982V12.0488H16.0997C15.8755 13.2908 15.1554 14.3894 14.1008 15.0876V17.5862H17.3233C19.2156 15.8445 20.3033 13.2724 20.3033 10.23Z" fill="#0A77FF"/>
<path d="M10.698 20C13.395 20 15.6695 19.1145 17.3267 17.5859L14.1042 15.0873C13.2076 15.6973 12.0502 16.0427 10.7016 16.0427C8.09279 16.0427 5.88077 14.2826 5.08709 11.9163H1.76172V14.492C3.45931 17.8689 6.91697 20 10.698 20Z" fill="#2EBF43"/>
<path d="M5.08369 11.9168C4.6648 10.6748 4.6648 9.32995 5.08369 8.08799V5.51221H1.76199C0.343658 8.33785 0.343658 11.6669 1.76199 14.4925L5.08369 11.9168Z" fill="#FBBC04"/>
<path d="M10.698 3.95781C12.1237 3.93576 13.5016 4.47223 14.5341 5.45698L17.3891 2.60194C15.5813 0.904343 13.1819 -0.0289658 10.698 0.000429748C6.91696 0.000429748 3.45931 2.13161 1.76172 5.5121L5.08342 8.08788C5.87342 5.71787 8.08911 3.95781 10.698 3.95781Z" fill="#E33B32"/>
</g>
<defs>
<clipPath id="clip0_1819_35264">
<rect width="20" height="20" fill="white" transform="translate(0.5)"/>
</clipPath>
</defs>
</svg>
