<svg width="20" height="20" viewBox="0 0 20 20" fill="none" xmlns="http://www.w3.org/2000/svg">
<g clip-path="url(#clip0_1819_35234)">
<path d="M19.5369 0.625L10.9551 6.97492L12.5509 3.23273L19.5369 0.625Z" fill="#E17726"/>
<path d="M0.483633 0.632568L7.4509 3.23327L8.96621 7.02452L0.483633 0.632568ZM16.0828 14.1296L19.8758 14.2018L18.5502 18.7051L13.9218 17.4308L16.0828 14.1296ZM3.91707 14.1296L6.06996 17.4308L1.44941 18.7051L0.131836 14.2018L3.91707 14.1296Z" fill="#E27625"/>
<path d="M8.7607 6.05879L8.9157 11.0653L4.27734 10.8543L5.59672 8.86379L5.61344 8.84465L8.7607 6.05879ZM11.1922 6.00293L14.3875 8.8448L14.4041 8.86387L15.7234 10.8543L11.0861 11.0653L11.1922 6.00293ZM6.20633 14.1441L8.73898 16.1175L5.79695 17.5379L6.20633 14.1441ZM13.7951 14.1438L14.1959 17.5379L11.2621 16.1173L13.7951 14.1438Z" fill="#E27625"/>
<path d="M11.3265 15.9314L14.3036 17.373L11.5343 18.6891L11.5631 17.8192L11.3265 15.9314ZM8.67285 15.932L8.44559 17.805L8.46426 18.688L5.68848 17.373L8.67285 15.932Z" fill="#F5841F"/>
<path d="M7.81309 11.7188L8.59105 13.3538L5.94238 12.5778L7.81309 11.7188ZM12.1869 11.7189L14.0664 12.5778L11.4091 13.3535L12.1869 11.7189Z" fill="#233447"/>
<path d="M6.40844 14.1274L5.98031 17.6461L3.68555 14.2043L6.40844 14.1274ZM13.592 14.1275L16.315 14.2043L14.0116 17.6463L13.592 14.1275ZM15.7902 10.6553L13.8085 12.6749L12.2806 11.9767L11.5491 13.5145L11.0696 10.87L15.7902 10.6553ZM4.20914 10.6553L8.93062 10.87L8.45102 13.5145L7.71938 11.9769L6.19961 12.675L4.20914 10.6553Z" fill="#CC6228"/>
<path d="M4.0752 10.2409L6.31723 12.516L6.39488 14.762L4.0752 10.2409ZM15.9265 10.2368L13.6026 14.766L13.6901 12.516L15.9265 10.2368ZM8.82059 10.3795L8.91082 10.9474L9.13379 12.3624L8.99043 16.7081L8.3127 13.2171L8.31246 13.181L8.82059 10.3795ZM11.1777 10.3716L11.6871 13.181L11.6869 13.2171L11.0075 16.7168L10.9806 15.8414L10.8746 12.3366L11.1777 10.3716Z" fill="#E27525"/>
<path d="M13.8893 12.4255L13.8135 14.3769L11.4483 16.2197L10.9702 15.8819L11.5061 13.1213L13.8893 12.4255ZM6.11816 12.4255L8.49309 13.1213L9.02902 15.8819L8.5509 16.2197L6.18566 14.3768L6.11816 12.4255Z" fill="#F5841F"/>
<path d="M5.23535 16.9421L8.26129 18.3759L8.24848 17.7636L8.50168 17.5414H11.4965L11.7589 17.7628L11.7395 18.3746L14.7463 16.9457L13.2832 18.1548L11.514 19.3699H8.47738L6.70941 18.1498L5.23535 16.9421Z" fill="#C0AC9D"/>
<path d="M11.1096 15.7405L11.5375 16.0427L11.7882 18.0431L11.4254 17.7367H8.57566L8.21973 18.0492L8.46223 16.0429L8.8902 15.7405H11.1096Z" fill="#161616"/>
<path d="M18.9698 0.800781L20 3.89117L19.3566 7.01594L19.8148 7.3693L19.1948 7.84226L19.6608 8.20211L19.0438 8.7639L19.4226 9.0382L18.4174 10.2121L14.2948 9.01172L14.2591 8.99258L11.2882 6.48648L18.9698 0.800781ZM1.03016 0.800781L8.71188 6.48648L5.74094 8.99258L5.70523 9.01172L1.58258 10.2121L0.577422 9.0382L0.955859 8.76414L0.339297 8.20211L0.804297 7.84266L0.175078 7.36836L0.650469 7.01476L0 3.89133L1.03016 0.800781Z" fill="#763E1A"/>
<path d="M14.0927 8.74926L18.4609 10.0211L19.88 14.395H16.1359L13.5562 14.4275L15.4323 10.7706L14.0927 8.74926ZM5.90641 8.74926L4.56648 10.7706L6.44281 14.4275L3.8643 14.395H0.126953L1.53812 10.0211L5.90641 8.74926ZM12.7639 3.21191L11.5421 6.51184L11.2828 10.9696L11.1836 12.3669L11.1757 15.9363H8.82328L8.81562 12.3736L8.71609 10.9685L8.45672 6.51184L7.23508 3.21191H12.7639Z" fill="#F5841F"/>
</g>
<defs>
<clipPath id="clip0_1819_35234">
<rect width="20" height="18.75" fill="white" transform="translate(0 0.625)"/>
</clipPath>
</defs>
</svg>
