<svg width="1172" height="931" viewBox="0 0 1172 931" fill="none" xmlns="http://www.w3.org/2000/svg">
<g clip-path="url(#clip0_1557_65181)">
<path d="M1167.52 219.729L1166.31 227.756C1150.21 225.333 1134.06 227.66 1121.43 234.226C1108.79 240.793 1100.71 251.06 1098.94 262.77C1097.77 270.557 1102.48 282.8 1109.22 289.397L1120.82 300.831C1125.32 305.616 1127.92 311.142 1128.31 316.719C1128.69 322.296 1126.84 327.677 1122.99 332.19L1120.11 335.204C1115.7 339.453 1109.78 342.696 1102.91 344.628C1096.04 346.56 1088.45 347.118 1080.85 346.248L887.516 317.152L866.361 457.72C866.129 461.781 867.264 465.918 869.668 469.766C872.072 473.613 875.671 477.054 880.147 479.785L884.524 482.209C892.77 486.692 906.365 487.138 913.966 483.15L928.42 475.638C940.965 469.826 956.285 467.619 971.758 469.395C981.184 470.808 990.315 473.557 998.631 477.485C1006.95 481.414 1014.29 486.444 1020.23 492.289C1026.17 498.135 1030.59 504.681 1033.25 511.554C1035.92 518.426 1036.76 525.491 1035.73 532.345C1034.71 539.198 1031.84 545.706 1027.29 551.497C1022.73 557.288 1016.59 562.249 1009.2 566.096C1001.81 569.943 993.323 572.601 984.223 573.918C975.123 575.236 965.588 575.186 956.163 573.773C940.804 570.941 926.764 564.312 916.471 555.034L904.868 543.6C901.375 540.501 896.844 538.124 891.809 536.748C886.774 535.372 881.446 535.055 876.454 535.835L871.557 536.863C866.475 538.155 862.024 540.384 858.594 543.354C855.164 546.324 852.861 549.943 851.887 553.893L830.733 694.46L1024.06 723.556C1031.58 724.962 1038.67 727.729 1044.67 731.597C1050.67 735.466 1055.37 740.307 1058.34 745.667L1060.2 749.396C1062.57 754.842 1062.76 760.533 1060.75 765.752C1058.74 770.971 1054.62 775.485 1048.9 778.727L1034.45 786.239C1025.1 791.784 1018.88 799.685 1016.79 808.662C1015.03 820.373 1019.73 832.566 1029.88 842.56C1040.02 852.554 1054.76 859.531 1070.87 861.955L1069.66 869.982C1050.63 867.118 1033.2 858.873 1021.21 847.062C1009.23 835.25 1003.66 820.84 1005.75 807.001C1008.14 795.884 1015.82 786.106 1027.46 779.36L1041.92 771.848C1045.8 769.553 1048.61 766.421 1050 762.819C1051.39 759.217 1051.31 755.297 1049.78 751.521L1047.91 747.792C1045.67 743.901 1042.21 740.388 1037.84 737.562C1033.47 734.735 1028.32 732.682 1022.86 731.584L829.524 702.488L808.369 843.055C807.173 848.496 804.083 853.49 799.391 857.566C794.698 861.642 788.557 864.667 781.546 866.357L776.649 867.385C769.462 868.621 761.736 868.219 754.441 866.231C747.146 864.242 740.609 860.754 735.65 856.207L724.047 844.773C715.61 837.314 704.262 831.947 691.845 829.542C675.739 827.118 659.593 829.445 646.959 836.011C634.324 842.578 626.236 852.845 624.473 864.555L613.432 862.894C615.515 849.054 625.074 836.92 640.005 829.16C654.937 821.4 674.019 818.649 693.053 821.514C706.689 823.566 724.19 831.823 732.744 840.253L744.347 851.687C747.845 854.781 752.376 857.156 757.409 858.532C762.443 859.907 767.769 860.227 772.762 859.452L777.659 858.424C782.74 857.132 787.192 854.903 790.622 851.933C794.052 848.963 796.355 845.344 797.328 841.394L818.483 700.826L625.152 671.731C617.633 670.325 610.542 667.557 604.546 663.689C598.551 659.821 593.847 654.98 590.88 649.62L589.013 645.891C586.645 640.444 586.454 634.754 588.465 629.535C590.476 624.316 594.599 619.802 600.315 616.559L614.769 609.047C624.116 603.503 630.339 595.602 632.427 586.624C634.19 574.914 629.482 562.721 619.34 552.727C609.197 542.732 594.451 535.756 578.346 533.332C562.24 530.908 546.094 533.235 533.459 539.802C520.825 546.368 512.737 556.636 510.974 568.346C509.802 576.133 514.509 588.376 521.251 594.973L532.853 606.407C537.349 611.191 539.951 616.717 540.337 622.295C540.723 627.872 538.874 633.253 535.022 637.765L532.14 640.78C527.727 645.029 521.807 648.272 514.938 650.204C508.07 652.136 500.478 652.693 492.878 651.824L299.547 622.728L278.392 763.295C278.16 767.357 279.296 771.494 281.7 775.341C284.103 779.189 287.702 782.63 292.178 785.361L296.555 787.785C304.801 792.268 318.396 792.713 325.997 788.726L340.451 781.214C352.996 775.402 368.316 773.195 383.789 774.97C393.225 776.38 402.367 779.128 410.693 783.058C419.019 786.988 426.366 792.022 432.312 797.874C438.259 803.725 442.689 810.278 445.349 817.158C448.009 824.038 448.847 831.11 447.814 837.969L436.773 836.307C438.536 824.597 433.828 812.404 423.685 802.409C413.543 792.415 398.797 785.439 382.692 783.015C371.982 781.403 355.768 783.725 347.432 788.094L332.978 795.606C326.895 798.482 319.622 799.885 312.069 799.639C304.515 799.392 297.015 797.508 290.506 794.222L286.128 791.798C279.924 788.12 274.946 783.421 271.661 778.144C268.376 772.867 266.893 767.186 267.351 761.634L288.506 621.067L95.1748 591.971C89.625 591.411 84.1032 591.858 79.0956 593.274C74.0881 594.689 69.7485 597.029 66.4591 600.087L63.5778 603.101C58.2621 608.787 58.9533 618.825 65.105 624.84L76.7079 636.274C85.8153 646.13 90.2807 657.699 89.3403 669.002C88.3226 675.864 85.4545 682.38 80.9001 688.178C76.3458 693.977 70.1946 698.943 62.7984 702.794C55.4022 706.645 46.9061 709.304 37.7962 710.62C28.6864 711.936 19.1414 711.882 9.70746 710.463L10.9156 702.435C27.0213 704.859 43.1674 702.531 55.802 695.965C68.4366 689.399 76.5247 679.131 78.2871 667.421C79.459 659.634 74.7526 647.391 68.0109 640.794L56.4079 629.36C51.9129 624.576 49.31 619.05 48.9244 613.472C48.5388 607.895 50.3875 602.514 54.2396 598.002L57.1209 594.987C61.5348 590.738 67.4546 587.495 74.3232 585.563C81.1917 583.631 88.7831 583.074 96.383 583.943L289.714 613.039L310.869 472.471C311.102 468.41 309.966 464.273 307.562 460.425C305.158 456.578 301.56 453.137 297.084 450.406L292.706 447.982C284.412 443.45 270.865 443.053 263.265 447.041L248.81 454.553C236.242 460.391 220.873 462.594 205.362 460.78C186.328 457.915 168.901 449.67 156.914 437.859C144.928 426.048 139.364 411.637 141.447 397.798C143.53 383.959 153.088 371.824 168.02 364.064C182.952 356.304 202.034 353.554 221.068 356.418C234.704 358.47 252.204 366.728 260.759 375.158L272.362 386.591C275.859 389.686 280.391 392.061 285.424 393.436C290.458 394.812 295.784 395.131 300.777 394.357L305.674 393.328C310.755 392.036 315.207 389.807 318.637 386.837C322.067 383.867 324.37 380.248 325.343 376.298L346.498 235.731L153.167 206.635C145.648 205.229 138.557 202.462 132.561 198.594C126.565 194.726 121.862 189.884 118.894 184.524L117.028 180.795C114.66 175.349 114.469 169.658 116.48 164.44C118.491 159.221 122.614 154.706 128.33 151.464L142.784 143.952C152.131 138.407 158.353 130.506 160.442 121.529C162.204 109.819 157.497 97.6252 147.354 87.631C137.212 77.6368 122.466 70.6604 106.36 68.2365L107.569 60.2087C126.603 63.0733 144.03 71.3181 156.016 83.1295C168.002 94.9408 173.566 109.351 171.483 123.19C169.991 133.105 160.422 145.293 149.766 150.831L135.311 158.343C131.433 160.641 128.633 163.774 127.241 167.375C125.849 170.976 125.923 174.894 127.453 178.67L129.32 182.399C131.563 186.29 135.022 189.803 139.391 192.63C143.76 195.456 148.906 197.509 154.375 198.607L347.706 227.703L368.861 87.1358C370.057 81.695 373.147 76.7015 377.84 72.6252C382.532 68.5488 388.673 65.5237 395.684 63.8345L400.581 62.8064C407.768 61.5702 415.495 61.9718 422.789 63.9607C430.084 65.9496 436.622 69.437 441.58 73.9845L453.183 85.4181C461.62 92.8771 472.968 98.2444 485.385 100.65C501.491 103.074 517.637 100.746 530.272 94.1799C542.906 87.6135 550.995 77.3459 552.757 65.6358L563.798 67.2974C561.715 81.1367 552.157 93.2711 537.225 101.031C522.293 108.792 503.211 111.542 484.177 108.677C468.819 105.845 454.779 99.2167 444.486 89.938L432.883 78.5044C429.39 75.4058 424.858 73.0282 419.824 71.6523C414.789 70.2763 409.461 69.9595 404.468 70.7391L399.571 71.7671C394.49 73.0594 390.038 75.2887 386.608 78.2585C383.178 81.2283 380.875 84.8475 379.902 88.7975L358.747 229.365L552.078 258.46C559.597 259.867 566.689 262.634 572.684 266.502C578.68 270.37 583.383 275.212 586.351 280.571L588.217 284.3C590.585 289.747 590.776 295.437 588.765 300.656C586.754 305.875 582.631 310.389 576.915 313.632L562.461 321.144C553.114 326.688 546.892 334.59 544.803 343.567C543.041 355.277 547.748 367.47 557.891 377.465C568.033 387.459 582.779 394.435 598.885 396.859C614.99 399.283 631.136 396.956 643.771 390.389C656.406 383.823 664.494 373.555 666.256 361.845C667.428 354.058 662.722 341.815 655.98 335.218L644.377 323.785C639.882 319 637.279 313.474 636.893 307.897C636.508 302.319 638.356 296.938 642.209 292.426L645.09 289.411C649.504 285.163 655.424 281.92 662.292 279.988C669.161 278.056 676.752 277.498 684.352 278.367L877.683 307.463L898.838 166.896C899.071 162.834 897.935 158.698 895.531 154.85C893.127 151.002 889.528 147.561 885.053 144.831L880.675 142.407C872.381 137.875 858.834 137.478 851.234 141.465L836.779 148.977C824.211 154.815 808.842 157.018 793.331 155.204C774.297 152.34 756.87 144.095 744.883 132.283C732.897 120.472 727.333 106.062 729.416 92.2224L740.457 93.8841C738.695 105.594 743.403 117.788 753.545 127.782C763.687 137.776 778.433 144.752 794.539 147.176C805.249 148.788 821.462 146.467 829.798 142.097L844.252 134.585C850.335 131.709 857.608 130.306 865.162 130.553C872.716 130.799 880.216 132.683 886.725 135.97L891.102 138.393C897.306 142.071 902.285 146.77 905.569 152.047C908.854 157.324 910.337 163.006 909.879 168.557L888.724 309.125L1082.06 338.22C1087.61 338.78 1093.13 338.333 1098.13 336.918C1103.14 335.502 1107.48 333.163 1110.77 330.104L1113.65 327.09C1119.03 321.373 1118.28 311.367 1112.13 305.351L1100.52 293.917C1091.38 284.042 1086.91 272.436 1087.9 261.109C1089.98 247.269 1099.54 235.135 1114.48 227.375C1129.41 219.614 1148.49 216.864 1167.52 219.729ZM494.087 643.796C499.636 644.356 505.158 643.909 510.166 642.493C515.173 641.078 519.513 638.738 522.802 635.68L525.684 632.666C531.061 626.948 530.308 616.942 524.156 610.927L512.553 599.493C503.409 589.618 498.944 578.012 499.933 566.684C502.016 552.845 511.575 540.711 526.506 532.95C541.438 525.19 560.52 522.44 579.554 525.304C598.588 528.169 616.015 536.414 628.001 548.225C639.988 560.036 645.551 574.447 643.469 588.286C641.977 598.2 632.408 610.388 621.751 615.927L607.297 623.439C603.418 625.737 600.619 628.87 599.227 632.471C597.835 636.071 597.908 639.99 599.439 643.766L601.305 647.495C603.549 651.385 607.008 654.899 611.377 657.725C615.746 660.552 620.891 662.604 626.36 663.703L819.691 692.799L840.846 552.231C842.043 546.791 845.132 541.797 849.825 537.721C854.517 533.644 860.658 530.619 867.67 528.93L872.567 527.902C879.753 526.666 887.48 527.067 894.775 529.056C902.07 531.045 908.607 534.533 913.565 539.08L925.168 550.514C933.606 557.973 944.953 563.34 957.371 565.745C973.476 568.169 989.623 565.842 1002.26 559.275C1014.89 552.709 1022.98 542.441 1024.74 530.731C1026.5 519.021 1021.8 506.828 1011.65 496.834C1001.51 486.839 986.766 479.863 970.661 477.439C959.951 475.827 943.737 478.149 935.401 482.518L920.947 490.03C914.864 492.906 907.591 494.309 900.038 494.063C892.484 493.817 884.984 491.933 878.474 488.646L874.097 486.222C867.893 482.544 862.915 477.845 859.63 472.569C856.345 467.292 854.862 461.61 855.32 456.058L876.475 315.491L683.144 286.395C677.594 285.835 672.072 286.283 667.065 287.698C662.057 289.113 657.718 291.453 654.428 294.511L651.547 297.525C646.231 303.211 646.922 313.249 653.074 319.265L664.677 330.698C673.784 340.554 678.25 352.123 677.309 363.427C676.285 370.28 673.415 376.788 668.862 382.579C664.309 388.37 658.162 393.331 650.773 397.178C635.851 404.948 616.773 407.709 597.738 404.855C588.312 403.442 579.181 400.693 570.865 396.764C562.549 392.836 555.211 387.806 549.27 381.96C537.272 370.155 531.694 355.747 533.762 341.905C536.151 330.788 543.833 321.011 555.48 314.264L569.934 306.752C573.818 304.458 576.621 301.325 578.014 297.723C579.406 294.122 579.329 290.201 577.792 286.426L575.925 282.697C573.682 278.806 570.223 275.292 565.854 272.466C561.485 269.64 556.339 267.587 550.87 266.488L357.539 237.393L336.384 377.96C335.188 383.401 332.098 388.394 327.406 392.47C322.713 396.547 316.572 399.572 309.561 401.261L304.664 402.289C297.477 403.525 289.751 403.124 282.456 401.135C275.161 399.146 268.623 395.659 263.665 391.111L252.062 379.677C243.625 372.219 232.277 366.851 219.86 364.446C203.754 362.022 187.608 364.349 174.973 370.916C162.339 377.482 154.251 387.75 152.488 399.46C150.726 411.17 155.434 423.363 165.576 433.358C175.718 443.352 190.464 450.328 206.57 452.752C217.28 454.364 233.493 452.042 241.829 447.673L256.283 440.161C262.366 437.285 269.639 435.882 277.193 436.128C284.747 436.375 292.247 438.259 298.756 441.545L303.133 443.969C309.337 447.647 314.316 452.346 317.6 457.623C320.885 462.9 322.368 468.581 321.91 474.133L300.755 614.7L494.087 643.796Z" fill="url(#paint0_linear_1557_65181)" fill-opacity="0.15"/>
</g>
<defs>
<linearGradient id="paint0_linear_1557_65181" x1="646.607" y1="79.7599" x2="530.623" y2="850.431" gradientUnits="userSpaceOnUse">
<stop offset="0.0192308" stop-color="#0A77FF" stop-opacity="0.05"/>
<stop offset="0.0625" stop-color="#0A77FF" stop-opacity="0.15"/>
<stop offset="0.168269" stop-color="#0A77FF" stop-opacity="0.3"/>
<stop offset="0.519231" stop-color="#1C3049"/>
<stop offset="0.875" stop-color="#D9C834" stop-opacity="0.6"/>
</linearGradient>
<clipPath id="clip0_1557_65181">
<rect width="1071.89" height="779.35" fill="white" transform="translate(116.63) rotate(8.55861)"/>
</clipPath>
</defs>
</svg>
