<svg width="20" height="25" viewBox="0 0 20 25" fill="none" xmlns="http://www.w3.org/2000/svg">
<g filter="url(#filter0_d_1731_43837)">
<path d="M5.42864 1.21411C4.79746 1.21411 4.28578 1.72579 4.28578 2.35697C4.28578 2.98815 4.79746 3.49983 5.42864 3.49983H14.5715C15.2027 3.49983 15.7144 2.98815 15.7144 2.35697C15.7144 1.72579 15.2027 1.21411 14.5715 1.21411H5.42864Z" fill="white"/>
<path d="M14.8529 5.78554H5.14724C4.89211 5.78554 4.66789 5.95467 4.5978 6.19999L2.15871 14.7368C2.106 14.9213 2.14941 15.1199 2.27429 15.2656L7.85192 21.7729C8.19718 22.1757 8.85721 21.9315 8.85721 21.401V13.8094C8.85721 13.6054 8.74484 13.4212 8.58475 13.2948C8.05461 12.8762 7.71436 12.2277 7.71436 11.4998C7.71436 10.2375 8.73771 9.21411 10.0001 9.21411C11.2624 9.21411 12.2858 10.2375 12.2858 11.4998C12.2858 12.2277 11.9455 12.8762 11.4154 13.2948C11.2553 13.4212 11.1429 13.6054 11.1429 13.8094V21.401C11.1429 21.9315 11.803 22.1757 12.1482 21.7729L17.7258 15.2656C17.8507 15.1199 17.8941 14.9213 17.8414 14.7368L15.4023 6.19999C15.3323 5.95467 15.108 5.78554 14.8529 5.78554Z" fill="white"/>
</g>
<defs>
<filter id="filter0_d_1731_43837" x="0.136719" y="0.214111" width="19.7266" height="24.7595" filterUnits="userSpaceOnUse" color-interpolation-filters="sRGB">
<feFlood flood-opacity="0" result="BackgroundImageFix"/>
<feColorMatrix in="SourceAlpha" type="matrix" values="0 0 0 0 0 0 0 0 0 0 0 0 0 0 0 0 0 0 127 0" result="hardAlpha"/>
<feOffset dy="1"/>
<feGaussianBlur stdDeviation="1"/>
<feComposite in2="hardAlpha" operator="out"/>
<feColorMatrix type="matrix" values="0 0 0 0 0.0627451 0 0 0 0 0.0941176 0 0 0 0 0.156863 0 0 0 0.04 0"/>
<feBlend mode="normal" in2="BackgroundImageFix" result="effect1_dropShadow_1731_43837"/>
<feBlend mode="normal" in="SourceGraphic" in2="effect1_dropShadow_1731_43837" result="shape"/>
</filter>
</defs>
</svg>
