<svg width="28" height="29" viewBox="0 0 28 29" fill="none" xmlns="http://www.w3.org/2000/svg">
<g filter="url(#filter0_d_1731_43844)">
<path fill-rule="evenodd" clip-rule="evenodd" d="M8.71053 3.40602C9.15685 2.95971 9.88046 2.95971 10.3268 3.40602L11.943 5.02227C11.9827 5.06192 12.0188 5.10376 12.0514 5.14739L17.4526 10.5486C17.8786 10.9746 18.2462 11.3421 18.5241 11.6695C18.8175 12.0151 19.0776 12.3905 19.2276 12.8521C19.4514 13.5407 19.4514 14.2825 19.2276 14.9711C19.0776 15.4326 18.8175 15.808 18.5241 16.1536C18.2462 16.4811 17.8786 16.8486 17.4526 17.2746L14.4811 20.2461C14.0551 20.6721 13.6876 21.0396 13.3602 21.3176C13.0146 21.611 12.6392 21.8711 12.1776 22.0211C11.489 22.2448 10.7472 22.2448 10.0586 22.0211C9.59706 21.8711 9.22166 21.611 8.87607 21.3176C8.54865 21.0396 8.18118 20.6721 7.75522 20.2461L4.78364 17.2746C4.35765 16.8486 3.99008 16.4811 3.71212 16.1536C3.41874 15.808 3.1586 15.4326 3.00863 14.9711C2.78488 14.2825 2.78489 13.5407 3.00863 12.8521C3.1586 12.3905 3.41874 12.0151 3.71212 11.6695C3.99009 11.3421 4.35761 10.9746 4.78362 10.5486L9.51025 5.82199L8.71053 5.02227C8.26422 4.57595 8.26422 3.85234 8.71053 3.40602ZM14.7428 11.0713L11.1181 7.44661L7.49347 11.0713H14.7428Z" fill="white"/>
<path d="M7.60808 23.6427C6.9769 23.6427 6.46522 24.1544 6.46522 24.7855C6.46522 25.4167 6.9769 25.9284 7.60808 25.9284H14.4652C15.0964 25.9284 15.6081 25.4167 15.6081 24.7855C15.6081 24.1544 15.0964 23.6427 14.4652 23.6427H7.60808Z" fill="white"/>
<path d="M22.0004 23.6428C23.2627 23.6428 24.2861 22.6194 24.2861 21.357C24.2861 20.4219 23.0318 18.9908 22.3815 18.3117C22.1715 18.0923 21.8293 18.0923 21.6192 18.3117C20.969 18.9908 19.7147 20.4219 19.7147 21.357C19.7147 22.6194 20.738 23.6428 22.0004 23.6428Z" fill="white"/>
</g>
<defs>
<filter id="filter0_d_1731_43844" x="0.84082" y="2.07129" width="25.4453" height="26.8572" filterUnits="userSpaceOnUse" color-interpolation-filters="sRGB">
<feFlood flood-opacity="0" result="BackgroundImageFix"/>
<feColorMatrix in="SourceAlpha" type="matrix" values="0 0 0 0 0 0 0 0 0 0 0 0 0 0 0 0 0 0 127 0" result="hardAlpha"/>
<feOffset dy="1"/>
<feGaussianBlur stdDeviation="1"/>
<feComposite in2="hardAlpha" operator="out"/>
<feColorMatrix type="matrix" values="0 0 0 0 0.0627451 0 0 0 0 0.0941176 0 0 0 0 0.156863 0 0 0 0.04 0"/>
<feBlend mode="normal" in2="BackgroundImageFix" result="effect1_dropShadow_1731_43844"/>
<feBlend mode="normal" in="SourceGraphic" in2="effect1_dropShadow_1731_43844" result="shape"/>
</filter>
</defs>
</svg>
