<svg width="20" height="20" viewBox="0 0 20 20" fill="none" xmlns="http://www.w3.org/2000/svg">
<path fill-rule="evenodd" clip-rule="evenodd" d="M17.5834 6.66973C17.5361 6.66695 17.4859 6.66584 17.4325 6.6664H15.3284C13.605 6.6664 12.1309 8.02307 12.1309 9.7914C12.1309 11.5597 13.6059 12.9164 15.3284 12.9164H17.4325C17.4859 12.917 17.5364 12.9158 17.5842 12.9131C17.9384 12.8917 18.2727 12.7423 18.5249 12.4927C18.7771 12.2431 18.93 11.9103 18.955 11.5564C18.9584 11.5064 18.9584 11.4522 18.9584 11.4022V8.18057C18.9584 8.13057 18.9584 8.0764 18.955 8.0264C18.93 7.67245 18.7771 7.33968 18.5249 7.09008C18.2727 6.84048 17.9375 6.69109 17.5834 6.66973ZM15.1442 10.6247C15.5875 10.6247 15.9467 10.2514 15.9467 9.7914C15.9467 9.3314 15.5875 8.95807 15.1442 8.95807C14.7 8.95807 14.3409 9.3314 14.3409 9.7914C14.3409 10.2514 14.7 10.6247 15.1442 10.6247Z" fill="white"/>
<path fill-rule="evenodd" clip-rule="evenodd" d="M17.432 14.1667C17.4608 14.1655 17.4895 14.1712 17.5157 14.1832C17.5419 14.1952 17.5649 14.2132 17.5829 14.2358C17.6008 14.2583 17.6132 14.2848 17.619 14.3131C17.6247 14.3413 17.6238 14.3705 17.6162 14.3983C17.4495 14.9917 17.1837 15.4983 16.7578 15.9233C16.1337 16.5483 15.3428 16.8242 14.3662 16.9558C13.4162 17.0833 12.2037 17.0833 10.672 17.0833H8.91199C7.38033 17.0833 6.16699 17.0833 5.21783 16.9558C4.24116 16.8242 3.45033 16.5475 2.82616 15.9242C2.20283 15.3 1.92616 14.5092 1.79449 13.5325C1.66699 12.5825 1.66699 11.37 1.66699 9.83833V9.745C1.66699 8.21333 1.66699 7 1.79449 6.05C1.92616 5.07333 2.20283 4.2825 2.82616 3.65833C3.45033 3.035 4.24116 2.75833 5.21783 2.62667C6.16783 2.5 7.38033 2.5 8.91199 2.5H10.672C12.2037 2.5 13.417 2.5 14.3662 2.6275C15.3428 2.75917 16.1337 3.03583 16.7578 3.65917C17.1837 4.08583 17.4495 4.59167 17.6162 5.185C17.6238 5.21281 17.6247 5.24202 17.619 5.27027C17.6132 5.29851 17.6008 5.325 17.5829 5.34757C17.5649 5.37014 17.5419 5.38816 17.5157 5.40016C17.4895 5.41217 17.4608 5.41782 17.432 5.41667H15.3287C12.9645 5.41667 10.8812 7.28333 10.8812 9.79167C10.8812 12.3 12.9645 14.1667 15.3287 14.1667H17.432ZM4.79199 5.83333C4.62623 5.83333 4.46726 5.89918 4.35005 6.01639C4.23284 6.1336 4.16699 6.29257 4.16699 6.45833C4.16699 6.62409 4.23284 6.78306 4.35005 6.90027C4.46726 7.01748 4.62623 7.08333 4.79199 7.08333H8.12533C8.29109 7.08333 8.45006 7.01748 8.56727 6.90027C8.68448 6.78306 8.75033 6.62409 8.75033 6.45833C8.75033 6.29257 8.68448 6.1336 8.56727 6.01639C8.45006 5.89918 8.29109 5.83333 8.12533 5.83333H4.79199Z" fill="white"/>
</svg>
