<svg width="19" height="18" viewBox="0 0 19 18" fill="none" xmlns="http://www.w3.org/2000/svg">
<path d="M16.038 14.0302L10.0463 2.9032C9.6216 2.1143 8.49027 2.1143 8.06523 2.9032L2.0739 14.0302C1.98169 14.2014 1.93546 14.3937 1.93972 14.5881C1.94399 14.7826 1.9986 14.9726 2.09822 15.1397C2.19785 15.3068 2.33909 15.4451 2.50815 15.5413C2.67722 15.6375 2.86834 15.6882 3.06285 15.6885H15.0473C15.2419 15.6885 15.4333 15.638 15.6026 15.542C15.7719 15.4459 15.9134 15.3076 16.0132 15.1404C16.113 14.9733 16.1678 14.7832 16.1721 14.5886C16.1765 14.394 16.1302 14.2016 16.038 14.0302ZM9.05593 13.9658C8.91687 13.9658 8.78093 13.9246 8.6653 13.8473C8.54967 13.7701 8.45955 13.6602 8.40633 13.5318C8.35311 13.4033 8.33919 13.2619 8.36632 13.1255C8.39345 12.9891 8.46041 12.8638 8.55875 12.7655C8.65708 12.6672 8.78237 12.6002 8.91876 12.5731C9.05515 12.546 9.19653 12.5599 9.32501 12.6131C9.45349 12.6663 9.5633 12.7564 9.64056 12.8721C9.71782 12.9877 9.75906 13.1236 9.75906 13.2627C9.75906 13.4492 9.68498 13.628 9.55312 13.7599C9.42125 13.8917 9.24241 13.9658 9.05593 13.9658ZM9.81953 6.89414L9.61773 11.1832C9.61773 11.3324 9.55847 11.4755 9.45298 11.5809C9.34749 11.6864 9.20441 11.7457 9.05523 11.7457C8.90604 11.7457 8.76297 11.6864 8.65748 11.5809C8.55199 11.4755 8.49273 11.3324 8.49273 11.1832L8.29093 6.8959C8.2864 6.79345 8.30254 6.69114 8.33838 6.59506C8.37423 6.49898 8.42906 6.4111 8.49959 6.33666C8.57013 6.26222 8.65493 6.20274 8.74894 6.16178C8.84295 6.12081 8.94425 6.09919 9.04679 6.0982H9.05417C9.15742 6.09815 9.2596 6.11901 9.35456 6.15954C9.44952 6.20006 9.53528 6.2594 9.60668 6.33399C9.67807 6.40857 9.73361 6.49684 9.76995 6.59347C9.80629 6.69011 9.82268 6.79311 9.81812 6.89625L9.81953 6.89414Z" fill="#CDCDCE"/>
</svg>
