<svg width="16" height="22" viewBox="0 0 16 22" fill="none" xmlns="http://www.w3.org/2000/svg">
<path d="M8.31761 21.1035L7.40225 15.469L6.83867 20.9624L4.93696 19.9057L7.04346 12.6462L8.81042 15.5393L9.6554 19.4835L8.31761 21.1035ZM1.71374 20.9368L1.37773 19.74L0.184227 19.3523L1.38039 19.016L1.76797 17.8222L2.10441 19.0186L3.29821 19.4066L2.10179 19.7427L1.71374 20.9368ZM4.33226 18.553L3.08745 18.4567L0.330578 13.9282L0.152344 10.3657L3.5238 11.6694L5.7195 14.5898L5.0149 17.2947L2.30336 13.7264L4.33234 18.553H4.33226ZM10.5912 17.3174L9.85989 17.226L9.49431 15.3516L8.88072 14.2011L12.825 10.2569L14.1635 10.6791L13.5999 13.8486L10.5913 17.3174L10.5912 17.3174ZM11.3796 15.5173L12.5514 14.1199L12.9802 12.3615L11.8981 13.7589L11.3796 15.5173ZM6.01208 13.8671L4.35662 11.649L5.30752 6.96436L8.61809 2.88009L11.3296 6.54219L11.0482 11.0855L8.51252 13.6911L6.89259 11.2259L6.01208 13.8671ZM8.04536 11.8368L9.21325 7.77196L10.2762 6.78978L9.0718 6.95521L8.59347 5.09552L8.31168 6.95521L6.36326 7.19222L8.3015 7.88703L8.0454 11.8367L8.04536 11.8368ZM3.86673 10.9892L2.66894 9.08706L3.09175 5.07322L4.42993 7.74957L3.86669 10.9892L3.86673 10.9892ZM13.8466 10.0241L13.4225 8.51265L11.9153 8.02311L13.4257 7.59828L13.9153 6.09111L14.3401 7.60189L15.8472 8.09182L14.3368 8.51592L13.8465 10.0241L13.8466 10.0241ZM4.65555 5.81559L4.12515 3.92539L2.23985 3.31309L4.12945 2.78178L4.74162 0.896484L5.27302 2.78608L7.15793 3.39894L5.26868 3.92961L4.65555 5.81559Z" fill="#979AA0"/>
</svg>
