<svg width="64" height="64" viewBox="0 0 64 64" fill="none" xmlns="http://www.w3.org/2000/svg">
<path d="M25.6 52.8C25.6 54.073 25.0943 55.2939 24.1941 56.1941C23.2939 57.0943 22.073 57.6 20.8 57.6C19.527 57.6 18.3061 57.0943 17.4059 56.1941C16.5057 55.2939 16 54.073 16 52.8C16 51.527 16.5057 50.3061 17.4059 49.4059C18.3061 48.5057 19.527 48 20.8 48C22.073 48 23.2939 48.5057 24.1941 49.4059C25.0943 50.3061 25.6 51.527 25.6 52.8ZM48 52.8C48 54.073 47.4943 55.2939 46.5941 56.1941C45.6939 57.0943 44.473 57.6 43.2 57.6C41.927 57.6 40.7061 57.0943 39.8059 56.1941C38.9057 55.2939 38.4 54.073 38.4 52.8C38.4 51.527 38.9057 50.3061 39.8059 49.4059C40.7061 48.5057 41.927 48 43.2 48C44.473 48 45.6939 48.5057 46.5941 49.4059C47.4943 50.3061 48 51.527 48 52.8Z" fill="white"/>
<path d="M9.60039 12.8C8.7517 12.8 7.93777 13.1371 7.33765 13.7372C6.73753 14.3374 6.40039 15.1513 6.40039 16V48C6.40039 48.8487 6.73753 49.6626 7.33765 50.2627C7.93777 50.8628 8.7517 51.2 9.60039 51.2H12.9604C13.3276 49.3915 14.3088 47.7656 15.7376 46.5978C17.1664 45.4299 18.955 44.792 20.8004 44.792C22.6458 44.792 24.4344 45.4299 25.8632 46.5978C27.292 47.7656 28.2732 49.3915 28.6404 51.2H32.0004C32.8491 51.2 33.663 50.8628 34.2631 50.2627C34.8632 49.6626 35.2004 48.8487 35.2004 48V16C35.2004 15.1513 34.8632 14.3374 34.2631 13.7372C33.663 13.1371 32.8491 12.8 32.0004 12.8H9.60039ZM44.8004 22.4C43.9517 22.4 43.1378 22.7371 42.5376 23.3372C41.9375 23.9374 41.6004 24.7513 41.6004 25.6V44.96C42.1188 44.8533 42.6521 44.8 43.2004 44.8C45.0446 44.7996 46.8324 45.4364 48.261 46.6027C49.6897 47.769 50.6715 49.393 51.0404 51.2H54.4004C55.2491 51.2 56.063 50.8628 56.6631 50.2627C57.2632 49.6626 57.6004 48.8487 57.6004 48V32C57.6002 31.1514 57.2629 30.3376 56.6628 29.7376L50.2628 23.3376C49.6628 22.7374 48.849 22.4002 48.0004 22.4H44.8004Z" fill="white"/>
</svg>
