<svg width="24" height="24" viewBox="0 0 24 24" fill="none" xmlns="http://www.w3.org/2000/svg">
<path d="M13.569 4.25H13.794C14.912 4.25 15.624 4.25 16.229 4.412C17.0346 4.62763 17.7693 5.05159 18.3591 5.64123C18.949 6.23087 19.3731 6.96542 19.589 7.771C19.75 8.376 19.75 9.088 19.75 10.206V11.83C19.75 12.365 19.75 12.81 19.72 13.175C19.69 13.555 19.622 13.911 19.45 14.248C19.1866 14.7654 18.7662 15.1862 18.249 15.45C17.911 15.622 17.555 15.69 17.175 15.72C16.81 15.75 16.365 15.75 15.831 15.75H14.169C13.635 15.75 13.189 15.75 12.825 15.72C12.445 15.69 12.089 15.622 11.752 15.45C11.2346 15.1866 10.8138 14.7662 10.55 14.249C10.378 13.911 10.31 13.555 10.28 13.175C10.25 12.81 10.25 12.365 10.25 11.83V7.57C10.25 7.046 10.25 6.641 10.344 6.29C10.4688 5.8237 10.7142 5.39848 11.0554 5.05706C11.3967 4.71564 11.8218 4.47006 12.288 4.345C12.64 4.25 13.045 4.25 13.569 4.25ZM13.667 5.751C12.998 5.751 12.811 5.757 12.677 5.794C12.4651 5.8507 12.2719 5.96213 12.1168 6.11713C11.9616 6.27212 11.8499 6.4652 11.793 6.677C11.756 6.812 11.75 6.999 11.75 7.667V11.8C11.75 12.372 11.75 12.757 11.775 13.052C11.798 13.34 11.84 13.477 11.886 13.568C12.006 13.803 12.197 13.994 12.433 14.114C12.523 14.16 12.66 14.202 12.948 14.225C13.243 14.249 13.628 14.25 14.2 14.25H15.8C16.372 14.25 16.757 14.25 17.052 14.225C17.34 14.202 17.477 14.16 17.567 14.114C17.8024 13.9944 17.9939 13.8032 18.114 13.568C18.16 13.477 18.202 13.34 18.225 13.053C18.249 12.757 18.25 12.373 18.25 11.8V10.333C18.25 9.887 18.25 9.535 18.244 9.25H16.5C16.0359 9.25 15.5908 9.06563 15.2626 8.73744C14.9344 8.40925 14.75 7.96413 14.75 7.5V5.756C14.389 5.75085 14.028 5.74985 13.667 5.751ZM16.25 6V7.5C16.25 7.638 16.362 7.75 16.5 7.75H18C17.6694 6.95931 17.0407 6.33063 16.25 6ZM8.496 8.25H8.5C8.69891 8.25 8.88968 8.32902 9.03033 8.46967C9.17098 8.61032 9.25 8.80109 9.25 9C9.25 9.19891 9.17098 9.38968 9.03033 9.53033C8.88968 9.67098 8.69891 9.75 8.5 9.75C8.25 9.75 7.773 9.75 7.31 9.776C7.10191 9.78607 6.89437 9.80542 6.688 9.834C6.60196 9.84578 6.51678 9.86315 6.433 9.886C6.19741 10.0059 6.00591 10.1974 5.886 10.433C5.84 10.523 5.798 10.66 5.775 10.948C5.751 11.243 5.75 11.628 5.75 12.2V15.8C5.75 16.372 5.75 16.757 5.775 17.052C5.798 17.34 5.84 17.477 5.886 17.567C6.006 17.803 6.197 17.994 6.433 18.114C6.523 18.16 6.66 18.202 6.947 18.225C7.243 18.249 7.627 18.25 8.2 18.25H9.8C10.372 18.25 10.757 18.25 11.052 18.225C11.34 18.202 11.477 18.16 11.568 18.114C11.8032 17.9939 11.9944 17.8024 12.114 17.567C12.174 17.448 12.212 17.305 12.232 17.177C12.2406 17.1183 12.2466 17.0592 12.25 17V16.996C12.2507 16.7971 12.3303 16.6066 12.4714 16.4664C12.6126 16.3262 12.8036 16.2478 13.0025 16.2485C13.2014 16.2492 13.3919 16.3288 13.5321 16.4699C13.6723 16.6111 13.7507 16.8021 13.75 17.001V17.045L13.745 17.132C13.7379 17.2253 13.7276 17.3184 13.714 17.411C13.679 17.63 13.608 17.941 13.45 18.249C13.1866 18.7664 12.7662 19.1872 12.249 19.451C11.911 19.623 11.555 19.691 11.175 19.721C10.81 19.751 10.365 19.751 9.83 19.751H8.17C7.635 19.751 7.19 19.751 6.825 19.721C6.445 19.691 6.089 19.623 5.752 19.451C5.2346 19.1876 4.81384 18.7672 4.55 18.25C4.378 17.912 4.31 17.556 4.28 17.176C4.25 16.811 4.25 16.366 4.25 15.831V12.171C4.25 11.636 4.25 11.191 4.28 10.826C4.31 10.446 4.378 10.09 4.55 9.753C4.8135 9.23507 5.23429 8.81393 5.752 8.55C5.976 8.435 6.254 8.382 6.468 8.35C6.707 8.315 6.973 8.293 7.227 8.278C7.734 8.25 8.245 8.25 8.496 8.25Z" fill="white"/>
</svg>
