<svg width="22" height="22" viewBox="0 0 22 22" fill="none" xmlns="http://www.w3.org/2000/svg">
<path d="M4.8125 6.41683H4.125C3.55546 6.41683 3.09375 6.87284 3.09375 7.43535C3.09375 7.99786 3.55546 8.45387 4.125 8.45387H4.8125M4.8125 13.7502H4.125C3.55546 13.7502 3.09375 14.2062 3.09375 14.7687C3.09375 15.3312 3.55546 15.7872 4.125 15.7872H4.8125M19.25 17.2376C17.8426 14.7326 15.1374 13.0372 12.0313 13.0372C8.9251 13.0372 6.21988 14.7326 4.8125 17.2376M8.1125 20.1668H15.95C17.1051 20.1668 17.6827 20.1668 18.1239 19.9448C18.5119 19.7495 18.8275 19.4379 19.0252 19.0546C19.25 18.6188 19.25 18.0484 19.25 16.9076V5.09276C19.25 3.95191 19.25 3.38148 19.0252 2.94574C18.8275 2.56244 18.5119 2.25082 18.1239 2.05552C17.6827 1.8335 17.1051 1.8335 15.95 1.8335H8.1125C6.95739 1.8335 6.37984 1.8335 5.93864 2.05552C5.55056 2.25082 5.23504 2.56244 5.0373 2.94574C4.8125 3.38148 4.8125 3.95191 4.8125 5.09276V16.9076C4.8125 18.0484 4.8125 18.6188 5.0373 19.0546C5.23504 19.4379 5.55056 19.7495 5.93864 19.9448C6.37984 20.1668 6.95739 20.1668 8.1125 20.1668ZM15.1637 9.0015C15.1637 10.7102 13.7612 12.0954 12.0311 12.0954C10.3011 12.0954 8.89854 10.7102 8.89854 9.0015C8.89854 7.29277 10.3011 5.90757 12.0311 5.90757C13.7612 5.90757 15.1637 7.29277 15.1637 9.0015Z" stroke="#979AA0" stroke-width="1.67"/>
</svg>
