<svg width="20" height="20" viewBox="0 0 20 20" fill="none" xmlns="http://www.w3.org/2000/svg">
<g clip-path="url(#clip0_1609_29578)">
<path d="M13.9987 18.3327L13.9987 17.4977H13.9987V18.3327ZM5.9987 18.3327L5.9987 19.1677H5.9987V18.3327ZM3.33203 15.666L2.49703 15.666L3.33203 15.666ZM3.33203 4.33268L4.16703 4.33268L3.33203 4.33268ZM3.51369 2.57603L2.7697 2.19695L2.7697 2.19695L3.51369 2.57603ZM5.9987 1.66602L5.9987 2.50102L5.9987 1.66602ZM4.24205 1.84767L3.86297 1.10368L3.86296 1.10368L4.24205 1.84767ZM4.24205 18.151L3.86296 18.895L3.86296 18.895L4.24205 18.151ZM3.51369 17.4227L4.25768 17.0436L4.25768 17.0436L3.51369 17.4227ZM15.7553 18.151L15.3763 17.407L15.3763 17.407L15.7553 18.151ZM16.6654 15.666L17.5004 15.666V15.666H16.6654ZM16.4837 17.4227L15.7397 17.0436L15.7397 17.0436L16.4837 17.4227ZM17.5004 6.66602C17.5004 6.20486 17.1265 5.83102 16.6654 5.83102C16.2042 5.83102 15.8304 6.20486 15.8304 6.66602H17.5004ZM11.6654 2.50102C12.1265 2.50102 12.5004 2.12717 12.5004 1.66602C12.5004 1.20486 12.1265 0.831016 11.6654 0.831016L11.6654 2.50102ZM16.5231 6.52376L17.1135 5.93332L17.1135 5.93332L16.5231 6.52376ZM11.8076 1.80828L11.2172 2.39871L11.2172 2.39871L11.8076 1.80828ZM16.4642 6.66602L16.4642 7.50102L16.4642 6.66602ZM12.4987 6.66602L12.4987 5.83102L12.4987 6.66602ZM11.6654 5.83268L12.5004 5.83268V5.83268H11.6654ZM11.6654 1.8672L10.8304 1.8672V1.8672H11.6654ZM6.66536 9.16435C6.20421 9.16435 5.83036 9.53819 5.83036 9.99935C5.83036 10.4605 6.20421 10.8343 6.66536 10.8343V9.16435ZM13.332 10.8343C13.7932 10.8343 14.167 10.4605 14.167 9.99935C14.167 9.53819 13.7932 9.16435 13.332 9.16435V10.8343ZM6.66536 5.83102C6.20421 5.83102 5.83036 6.20486 5.83036 6.66602C5.83036 7.12717 6.20421 7.50102 6.66536 7.50102V5.83102ZM8.33203 7.50102C8.79319 7.50102 9.16703 7.12717 9.16703 6.66602C9.16703 6.20486 8.79319 5.83102 8.33203 5.83102V7.50102ZM6.66536 12.4977C6.20421 12.4977 5.83036 12.8715 5.83036 13.3327C5.83036 13.7938 6.20421 14.1677 6.66536 14.1677V12.4977ZM13.332 14.1677C13.7932 14.1677 14.167 13.7938 14.167 13.3327C14.167 12.8715 13.7932 12.4977 13.332 12.4977V14.1677ZM13.9987 18.3327V17.4977H5.9987V18.3327V19.1677H13.9987V18.3327ZM3.33203 15.666L4.16703 15.666L4.16703 4.33268L3.33203 4.33268L2.49703 4.33268L2.49703 15.666L3.33203 15.666ZM3.33203 4.33268L4.16703 4.33268C4.16703 3.85219 4.16768 3.54205 4.18697 3.30601C4.20545 3.07973 4.23682 2.99604 4.25768 2.95511L3.51369 2.57603L2.7697 2.19695C2.6089 2.51254 2.54944 2.84047 2.52251 3.17002C2.49638 3.48983 2.49703 3.87975 2.49703 4.33268L3.33203 4.33268ZM5.9987 1.66602L5.9987 0.831016C5.54577 0.831016 5.15585 0.830366 4.83604 0.856496C4.50648 0.883422 4.17856 0.94288 3.86297 1.10368L4.24205 1.84767L4.62113 2.59166C4.66206 2.57081 4.74575 2.53944 4.97203 2.52095C5.20806 2.50166 5.51821 2.50102 5.9987 2.50102L5.9987 1.66602ZM3.51369 2.57603L4.25768 2.95511C4.33741 2.79863 4.46464 2.6714 4.62113 2.59166L4.24205 1.84767L3.86296 1.10368C3.39225 1.34352 3.00954 1.72623 2.7697 2.19695L3.51369 2.57603ZM5.9987 18.3327L5.9987 17.4977C5.51821 17.4977 5.20806 17.497 4.97203 17.4777C4.74575 17.4593 4.66206 17.4279 4.62113 17.407L4.24205 18.151L3.86296 18.895C4.17856 19.0558 4.50648 19.1153 4.83604 19.1422C5.15585 19.1683 5.54577 19.1677 5.9987 19.1677L5.9987 18.3327ZM3.33203 15.666L2.49703 15.666C2.49703 16.1189 2.49638 16.5089 2.52251 16.8287C2.54944 17.1582 2.6089 17.4862 2.7697 17.8017L3.51369 17.4227L4.25768 17.0436C4.23682 17.0027 4.20545 16.919 4.18697 16.6927C4.16768 16.4567 4.16703 16.1465 4.16703 15.666L3.33203 15.666ZM4.24205 18.151L4.62113 17.407C4.46464 17.3273 4.33741 17.2001 4.25768 17.0436L3.51369 17.4227L2.7697 17.8017C3.00954 18.2725 3.39225 18.6552 3.86296 18.895L4.24205 18.151ZM13.9987 18.3327L13.9987 19.1677C14.4516 19.1677 14.8415 19.1683 15.1614 19.1422C15.4909 19.1153 15.8188 19.0558 16.1344 18.895L15.7553 18.151L15.3763 17.407C15.3353 17.4279 15.2517 17.4593 15.0254 17.4777C14.7893 17.497 14.4792 17.4977 13.9987 17.4977L13.9987 18.3327ZM16.6654 15.666L15.8304 15.666C15.8304 16.1465 15.8297 16.4567 15.8104 16.6927C15.7919 16.919 15.7606 17.0027 15.7397 17.0436L16.4837 17.4227L17.2277 17.8017C17.3885 17.4862 17.448 17.1582 17.4749 16.8287C17.501 16.5089 17.5004 16.1189 17.5004 15.666L16.6654 15.666ZM15.7553 18.151L16.1344 18.895C16.6052 18.6552 16.9879 18.2725 17.2277 17.8017L16.4837 17.4227L15.7397 17.0436C15.66 17.2001 15.5328 17.3273 15.3763 17.407L15.7553 18.151ZM16.6654 6.66602H15.8304V15.666H16.6654H17.5004V6.66602H16.6654ZM5.9987 1.66602L5.9987 2.50102L11.6654 2.50102L11.6654 1.66602L11.6654 0.831016L5.9987 0.831016L5.9987 1.66602ZM16.5231 6.52376L17.1135 5.93332L12.3981 1.21784L11.8076 1.80828L11.2172 2.39871L15.9327 7.11419L16.5231 6.52376ZM16.4642 6.66602L16.4642 5.83102L12.4987 5.83102L12.4987 6.66602L12.4987 7.50102L16.4642 7.50102L16.4642 6.66602ZM11.6654 5.83268H12.5004V1.8672H11.6654H10.8304V5.83268H11.6654ZM12.4987 6.66602L12.4987 5.83102C12.4974 5.83102 12.4982 5.83092 12.4996 5.83149C12.5004 5.83183 12.5003 5.83196 12.4999 5.8315C12.4994 5.83105 12.4996 5.83097 12.4999 5.83178C12.5005 5.83314 12.5004 5.83399 12.5004 5.83268L11.6654 5.83268L10.8304 5.83268C10.8304 6.75408 11.5773 7.50102 12.4987 7.50102L12.4987 6.66602ZM11.8076 1.80828L12.3981 1.21784C11.8195 0.639324 10.8304 1.04905 10.8304 1.8672L11.6654 1.8672L12.5004 1.8672C12.5004 2.53686 11.6907 2.87223 11.2172 2.39871L11.8076 1.80828ZM16.5231 6.52376L15.9327 7.11419C15.4591 6.64066 15.7945 5.83102 16.4642 5.83102L16.4642 6.66602L16.4642 7.50102C17.2823 7.50102 17.6921 6.51185 17.1135 5.93332L16.5231 6.52376ZM6.66536 9.99935V10.8343H13.332V9.99935V9.16435H6.66536V9.99935ZM6.66536 6.66602V7.50102H8.33203V6.66602V5.83102H6.66536V6.66602ZM6.66536 13.3327V14.1677H13.332V13.3327V12.4977H6.66536V13.3327Z" fill="#979AA0"/>
</g>
<defs>
<clipPath id="clip0_1609_29578">
<path d="M0 6C0 2.68629 2.68629 0 6 0H14C17.3137 0 20 2.68629 20 6V14C20 17.3137 17.3137 20 14 20H6C2.68629 20 0 17.3137 0 14V6Z" fill="white"/>
</clipPath>
</defs>
</svg>
