<svg width="18" height="18" viewBox="0 0 18 18" fill="none" xmlns="http://www.w3.org/2000/svg">
<path fill-rule="evenodd" clip-rule="evenodd" d="M3.75 12.1875C3.89918 12.1875 4.04226 12.2468 4.14775 12.3523C4.25324 12.4577 4.3125 12.6008 4.3125 12.75V14.25C4.3125 14.3535 4.3965 14.4375 4.5 14.4375H13.5C13.5497 14.4375 13.5974 14.4177 13.6326 14.3826C13.6677 14.3474 13.6875 14.2997 13.6875 14.25V12.75C13.6875 12.6008 13.7468 12.4577 13.8523 12.3523C13.9577 12.2468 14.1008 12.1875 14.25 12.1875C14.3992 12.1875 14.5423 12.2468 14.6477 12.3523C14.7532 12.4577 14.8125 12.6008 14.8125 12.75V14.25C14.8125 14.5981 14.6742 14.9319 14.4281 15.1781C14.1819 15.4242 13.8481 15.5625 13.5 15.5625H4.5C4.1519 15.5625 3.81806 15.4242 3.57192 15.1781C3.32578 14.9319 3.1875 14.5981 3.1875 14.25V12.75C3.1875 12.6008 3.24676 12.4577 3.35225 12.3523C3.45774 12.2468 3.60082 12.1875 3.75 12.1875Z" fill="white"/>
<path d="M8.05315 2.8125C7.86693 2.81221 7.6874 2.8819 7.55015 3.00776C7.4129 3.13362 7.32795 3.30645 7.31215 3.492C7.19772 4.80637 7.17717 6.12722 7.25065 7.4445C7.06565 7.4545 6.88065 7.46625 6.69565 7.47975L5.57815 7.5615C5.47973 7.56871 5.38487 7.60135 5.30285 7.65623C5.22083 7.7111 5.15447 7.78632 5.11024 7.87454C5.06602 7.96276 5.04546 8.06095 5.05057 8.1595C5.05568 8.25805 5.08629 8.35358 5.1394 8.43675C5.93646 9.68284 6.96259 10.7665 8.1634 11.6303L8.61115 11.952C8.72446 12.0331 8.86031 12.0767 8.99965 12.0767C9.13899 12.0767 9.27484 12.0331 9.38815 11.952L9.8359 11.6303C11.0367 10.7665 12.0628 9.68284 12.8599 8.43675C12.913 8.35358 12.9436 8.25805 12.9487 8.1595C12.9538 8.06095 12.9333 7.96276 12.8891 7.87454C12.8448 7.78632 12.7785 7.7111 12.6964 7.65623C12.6144 7.60135 12.5196 7.56871 12.4212 7.5615L11.3036 7.47975C11.1188 7.46637 10.9337 7.45462 10.7486 7.4445C10.8224 6.12723 10.8021 4.80638 10.6879 3.492C10.6721 3.30632 10.587 3.13338 10.4496 3.0075C10.3122 2.88162 10.1325 2.81202 9.94615 2.8125H8.05315Z" fill="white"/>
</svg>
