<svg width="28" height="28" viewBox="0 0 28 28" fill="none" xmlns="http://www.w3.org/2000/svg">
<path d="M11.375 15.1025V5.25C11.375 4.32174 11.0063 3.4315 10.3499 2.77513C9.6935 2.11875 8.80326 1.75 7.875 1.75C6.94674 1.75 6.0565 2.11875 5.40013 2.77513C4.74375 3.4315 4.375 4.32174 4.375 5.25V15.1025C3.30489 15.8476 2.50051 16.9148 2.07893 18.1488C1.65736 19.3827 1.64059 20.719 2.03108 21.9632C2.42156 23.2073 3.19891 24.2943 4.24999 25.0661C5.30107 25.8378 6.57102 26.254 7.875 26.254C9.17898 26.254 10.4489 25.8378 11.5 25.0661C12.5511 24.2943 13.3284 23.2073 13.7189 21.9632C14.1094 20.719 14.0926 19.3827 13.6711 18.1488C13.2495 16.9148 12.4451 15.8476 11.375 15.1025ZM7.875 3.5C8.33913 3.5 8.78425 3.68437 9.11244 4.01256C9.44063 4.34075 9.625 4.78587 9.625 5.25V11.375H6.125V5.25C6.125 4.78587 6.30937 4.34075 6.63756 4.01256C6.96575 3.68437 7.41087 3.5 7.875 3.5ZM7.875 24.5C6.91195 24.5 5.97582 24.1822 5.21179 23.5959C4.44776 23.0096 3.89853 22.1876 3.64927 21.2573C3.40001 20.3271 3.46465 19.3406 3.83317 18.4509C4.20169 17.5611 4.8535 16.8178 5.6875 16.3363L6.125 16.0912V13.125H9.625V16.0912L10.0625 16.3363C10.8965 16.8178 11.5483 17.5611 11.9168 18.4509C12.2853 19.3406 12.35 20.3271 12.1007 21.2573C11.8515 22.1876 11.3022 23.0096 10.5382 23.5959C9.77418 24.1822 8.83805 24.5 7.875 24.5ZM17.5 3.5H26.25V5.25H17.5V3.5ZM17.5 8.75H23.625V10.5H17.5V8.75ZM17.5 14H26.25V15.75H17.5V14ZM17.5 19.25H23.625V21H17.5V19.25Z" fill="#0A77FF"/>
</svg>
