<svg width="64" height="64" viewBox="0 0 64 64" fill="none" xmlns="http://www.w3.org/2000/svg">
<path d="M26 34.52V12C26 9.87827 25.1571 7.84344 23.6569 6.34315C22.1566 4.84285 20.1217 4 18 4C15.8783 4 13.8434 4.84285 12.3431 6.34315C10.8429 7.84344 10 9.87827 10 12V34.52C7.55403 36.2232 5.71545 38.6625 4.75185 41.4829C3.78825 44.3034 3.74992 47.3578 4.64246 50.2015C5.535 53.0453 7.3118 55.5299 9.71427 57.2939C12.1167 59.0579 15.0195 60.0091 18 60.0091C20.9805 60.0091 23.8833 59.0579 26.2857 57.2939C28.6882 55.5299 30.465 53.0453 31.3575 50.2015C32.2501 47.3578 32.2118 44.3034 31.2482 41.4829C30.2846 38.6625 28.446 36.2232 26 34.52ZM18 8C19.0609 8 20.0783 8.42143 20.8284 9.17157C21.5786 9.92172 22 10.9391 22 12V26H14V12C14 10.9391 14.4214 9.92172 15.1716 9.17157C15.9217 8.42143 16.9391 8 18 8ZM18 56C15.7987 55.9999 13.659 55.2735 11.9127 53.9334C10.1663 52.5933 8.91093 50.7145 8.34119 48.5882C7.77145 46.462 7.91921 44.2071 8.76154 42.1734C9.60387 40.1397 11.0937 38.4407 13 37.34L14 36.78V30H22V36.78L23 37.34C24.9063 38.4407 26.3961 40.1397 27.2385 42.1734C28.0808 44.2071 28.2285 46.462 27.6588 48.5882C27.0891 50.7145 25.8337 52.5933 24.0873 53.9334C22.341 55.2735 20.2013 55.9999 18 56ZM40 8H60V12H40V8ZM40 20H54V24H40V20ZM40 32H60V36H40V32ZM40 44H54V48H40V44Z" fill="white"/>
</svg>
