<svg width="20" height="20" viewBox="0 0 20 20" fill="none" xmlns="http://www.w3.org/2000/svg">
<path d="M7.9375 10.8662V3.125C7.9375 2.39565 7.64777 1.69618 7.13204 1.18046C6.61632 0.664731 5.91685 0.375 5.1875 0.375C4.45815 0.375 3.75868 0.664731 3.24296 1.18046C2.72723 1.69618 2.4375 2.39565 2.4375 3.125V10.8662C1.5967 11.4517 0.964684 12.2902 0.633447 13.2598C0.302209 14.2293 0.289037 15.2792 0.595846 16.2568C0.902655 17.2343 1.51343 18.0884 2.33928 18.6948C3.16513 19.3012 4.16295 19.6281 5.1875 19.6281C6.21205 19.6281 7.20987 19.3012 8.03572 18.6948C8.86157 18.0884 9.47235 17.2343 9.77915 16.2568C10.086 15.2792 10.0728 14.2293 9.74155 13.2598C9.41032 12.2902 8.7783 11.4517 7.9375 10.8662ZM5.1875 1.75C5.55217 1.75 5.90191 1.89487 6.15977 2.15273C6.41763 2.41059 6.5625 2.76033 6.5625 3.125V7.9375H3.8125V3.125C3.8125 2.76033 3.95737 2.41059 4.21523 2.15273C4.47309 1.89487 4.82283 1.75 5.1875 1.75ZM5.1875 18.25C4.43082 18.25 3.69529 18.0003 3.09498 17.5396C2.49467 17.079 2.06313 16.4331 1.86728 15.7022C1.67144 14.9713 1.72223 14.1962 2.01178 13.4971C2.30133 12.798 2.81346 12.214 3.46875 11.8356L3.8125 11.6431V9.3125H6.5625V11.6431L6.90625 11.8356C7.56154 12.214 8.07367 12.798 8.36322 13.4971C8.65277 14.1962 8.70356 14.9713 8.50772 15.7022C8.31187 16.4331 7.88033 17.079 7.28002 17.5396C6.67971 18.0003 5.94418 18.25 5.1875 18.25ZM12.75 1.75H19.625V3.125H12.75V1.75ZM12.75 5.875H17.5625V7.25H12.75V5.875ZM12.75 10H19.625V11.375H12.75V10ZM12.75 14.125H17.5625V15.5H12.75V14.125Z" fill="#979AA0"/>
</svg>
