<svg width="20" height="20" viewBox="0 0 20 20" fill="none" xmlns="http://www.w3.org/2000/svg">
<path d="M18.0321 16.1996L18.8404 15.99L18.8404 15.99L18.0321 16.1996ZM17.818 15.3743L17.0098 15.584L17.0098 15.584L17.818 15.3743ZM2.18199 15.3743L1.37374 15.1646L1.37374 15.1646L2.18199 15.3743ZM1.96788 16.1996L2.77613 16.4093L2.77613 16.4093L1.96788 16.1996ZM2.92752 14.2045L2.61415 13.4305L2.61415 13.4305L2.92752 14.2045ZM2.48526 14.5373L3.14462 15.0496L3.14462 15.0496L2.48526 14.5373ZM17.5147 14.5373L16.8554 15.0496L16.8554 15.0496L17.5147 14.5373ZM17.0725 14.2045L17.3859 13.4305L17.3858 13.4305L17.0725 14.2045ZM17.7478 18.1013L17.3268 17.3803L17.3268 17.3803L17.7478 18.1013ZM18.2159 17.5236L19.011 17.7786L19.011 17.7786L18.2159 17.5236ZM2.25218 18.1013L2.67322 17.3803L2.67322 17.3803L2.25218 18.1013ZM1.78413 17.5236L2.57924 17.2686L2.57924 17.2686L1.78413 17.5236ZM9.234 1.08131L8.87153 0.329088L8.87153 0.329088L9.234 1.08131ZM2.96782 4.1007L3.33029 4.85293L3.33029 4.85293L2.96782 4.1007ZM2.20182 6.31531L1.46064 6.69986L1.46064 6.69986L2.20182 6.31531ZM2.38799 6.67413L3.12917 6.28959L3.12917 6.28959L2.38799 6.67413ZM17.612 6.67413L16.8708 6.28959L16.8708 6.28959L17.612 6.67413ZM17.7982 6.31531L17.057 5.93077L17.057 5.93077L17.7982 6.31531ZM17.0322 4.1007L17.3946 3.34847L17.3946 3.34847L17.0322 4.1007ZM10.766 1.08131L11.1285 0.329088L11.1285 0.329088L10.766 1.08131ZM18.1984 5.29245L19.0334 5.28587L19.0334 5.28587L18.1984 5.29245ZM17.9892 4.68756L17.3263 5.19532L17.3263 5.19532L17.9892 4.68756ZM2.0108 4.68756L1.34793 4.1798L1.34793 4.1798L2.0108 4.68756ZM1.80158 5.29245L0.966608 5.28587L0.966608 5.28587L1.80158 5.29245ZM17.4155 6.88815L17.1521 6.09578L17.1521 6.09578L17.4155 6.88815ZM17.5155 6.82859L18.0887 7.43582L18.0887 7.43582L17.5155 6.82859ZM2.58448 6.88815L2.84787 6.09578L2.84787 6.09578L2.58448 6.88815ZM2.48448 6.82859L1.91133 7.43582L1.91133 7.43582L2.48448 6.82859ZM9.8026 0.851676L9.65403 0.0299985L9.8026 0.851676ZM10.1974 0.851676L10.346 0.0299984L10.346 0.0299984L10.1974 0.851676ZM3.81239 13.0923C3.81239 13.5534 4.18623 13.9273 4.64739 13.9273C5.10854 13.9273 5.48239 13.5534 5.48239 13.0923H3.81239ZM5.48239 6.90225C5.48239 6.44109 5.10854 6.06725 4.64739 6.06725C4.18623 6.06725 3.81239 6.44109 3.81239 6.90225H5.48239ZM9.165 13.0923C9.165 13.5534 9.53884 13.9273 10 13.9273C10.4612 13.9273 10.835 13.5534 10.835 13.0923H9.165ZM10.835 7.93392C10.835 7.47276 10.4612 7.09892 10 7.09892C9.53884 7.09892 9.165 7.47276 9.165 7.93392H10.835ZM14.5176 13.0923C14.5176 13.5534 14.8915 13.9273 15.3526 13.9273C15.8138 13.9273 16.1876 13.5534 16.1876 13.0923H14.5176ZM16.1876 7.93392C16.1876 7.47276 15.8138 7.09892 15.3526 7.09892C14.8915 7.09892 14.5176 7.47276 14.5176 7.93392H16.1876ZM3.62958 18.2506V19.0856H16.3704V18.2506V17.4156H3.62958V18.2506ZM18.0321 16.1996L18.8404 15.99L18.6263 15.1646L17.818 15.3743L17.0098 15.584L17.2239 16.4093L18.0321 16.1996ZM16.1563 14.124V13.289H3.84368V14.124V14.959H16.1563V14.124ZM2.18199 15.3743L1.37374 15.1646L1.15964 15.99L1.96788 16.1996L2.77613 16.4093L2.99023 15.584L2.18199 15.3743ZM3.84368 14.124V13.289C3.44081 13.289 3.00073 13.274 2.61415 13.4305L2.92752 14.2045L3.24089 14.9785C3.22728 14.984 3.2401 14.9739 3.33895 14.967C3.44763 14.9594 3.5931 14.959 3.84368 14.959V14.124ZM2.18199 15.3743L2.99023 15.584C3.0513 15.3486 3.08622 15.2161 3.11902 15.1198C3.14815 15.0343 3.15828 15.032 3.14462 15.0496L2.48526 14.5373L1.8259 14.025C1.5653 14.3604 1.47007 14.7933 1.37374 15.1646L2.18199 15.3743ZM2.92752 14.2045L2.61415 13.4305C2.30488 13.5557 2.03197 13.7597 1.8259 14.025L2.48526 14.5373L3.14462 15.0496C3.16675 15.0211 3.19916 14.9954 3.24089 14.9785L2.92752 14.2045ZM17.818 15.3743L18.6263 15.1646C18.5299 14.7933 18.4347 14.3604 18.1741 14.025L17.5147 14.5373L16.8554 15.0496C16.8417 15.032 16.8519 15.0343 16.881 15.1198C16.9138 15.2161 16.9487 15.3486 17.0098 15.584L17.818 15.3743ZM16.1563 14.124V14.959C16.4069 14.959 16.5524 14.9594 16.661 14.967C16.7599 14.9739 16.7727 14.984 16.7591 14.9785L17.0725 14.2045L17.3858 13.4305C16.9993 13.274 16.5592 13.289 16.1563 13.289V14.124ZM17.5147 14.5373L18.1741 14.025C17.968 13.7597 17.6951 13.5557 17.3859 13.4305L17.0725 14.2045L16.7591 14.9785C16.8008 14.9954 16.8332 15.0211 16.8554 15.0496L17.5147 14.5373ZM16.3704 18.2506V19.0856C16.7295 19.0856 17.0519 19.0864 17.3146 19.064C17.5824 19.0411 17.8841 18.9887 18.1688 18.8224L17.7478 18.1013L17.3268 17.3803C17.3558 17.3633 17.3427 17.3855 17.1727 17.4C16.9976 17.4149 16.7591 17.4156 16.3704 17.4156V18.2506ZM18.0321 16.1996L17.2239 16.4093C17.3185 16.7742 17.3744 16.993 17.4011 17.1557C17.4267 17.3117 17.406 17.3148 17.4208 17.2686L18.2159 17.5236L19.011 17.7786C19.1141 17.4572 19.0921 17.1478 19.0491 16.8854C19.0072 16.6297 18.9271 16.3241 18.8404 15.99L18.0321 16.1996ZM17.7478 18.1013L18.1688 18.8224C18.5662 18.5904 18.869 18.2213 19.011 17.7786L18.2159 17.5236L17.4208 17.2686C17.408 17.3085 17.3777 17.3505 17.3268 17.3803L17.7478 18.1013ZM3.62958 18.2506V17.4156C3.24092 17.4156 3.00242 17.4149 2.8273 17.4C2.6573 17.3855 2.64419 17.3633 2.67322 17.3803L2.25218 18.1013L1.83115 18.8224C2.1159 18.9887 2.4176 19.0411 2.68543 19.064C2.94813 19.0864 3.27046 19.0856 3.62958 19.0856V18.2506ZM1.96788 16.1996L1.15964 15.99C1.07294 16.3241 0.992829 16.6297 0.950891 16.8854C0.907868 17.1478 0.885926 17.4572 0.989019 17.7786L1.78413 17.5236L2.57924 17.2686C2.59404 17.3148 2.5733 17.3117 2.59888 17.1557C2.62555 16.993 2.68146 16.7742 2.77613 16.4093L1.96788 16.1996ZM2.25218 18.1013L2.67322 17.3803C2.62225 17.3505 2.59204 17.3085 2.57924 17.2686L1.78413 17.5236L0.989019 17.7786C1.13098 18.2213 1.43385 18.5904 1.83115 18.8224L2.25218 18.1013ZM2.77099 6.90225V7.73725H17.229V6.90225V6.06725H2.77099V6.90225ZM9.234 1.08131L8.87153 0.329088L2.60536 3.34847L2.96782 4.1007L3.33029 4.85293L9.59646 1.83354L9.234 1.08131ZM2.20182 6.31531L1.46064 6.69986L1.64681 7.05868L2.38799 6.67413L3.12917 6.28959L2.943 5.93077L2.20182 6.31531ZM17.612 6.67413L18.3532 7.05868L18.5394 6.69986L17.7982 6.31531L17.057 5.93077L16.8708 6.28959L17.612 6.67413ZM17.0322 4.1007L17.3946 3.34847L11.1285 0.329088L10.766 1.08131L10.4035 1.83354L16.6697 4.85292L17.0322 4.1007ZM17.7982 6.31531L18.5394 6.69986C18.6669 6.45404 18.7869 6.22425 18.8703 6.02434C18.9573 5.8155 19.0356 5.56965 19.0334 5.28587L18.1984 5.29245L17.3634 5.29903C17.3632 5.26293 17.3754 5.27012 17.3289 5.38158C17.2787 5.50199 17.1976 5.65979 17.057 5.93077L17.7982 6.31531ZM17.0322 4.1007L16.6697 4.85292C16.9501 4.98801 17.1156 5.06848 17.2332 5.1372C17.3433 5.20157 17.344 5.21846 17.3263 5.19532L17.9892 4.68756L18.6521 4.1798C18.4817 3.9574 18.272 3.81005 18.0759 3.6954C17.8872 3.58511 17.6506 3.47178 17.3946 3.34847L17.0322 4.1007ZM18.1984 5.29245L19.0334 5.28587C19.0302 4.88408 18.895 4.49694 18.6521 4.1798L17.9892 4.68756L17.3263 5.19532C17.3519 5.22875 17.3632 5.2651 17.3634 5.29903L18.1984 5.29245ZM2.96782 4.1007L2.60536 3.34847C2.34945 3.47178 2.11283 3.58511 1.92412 3.6954C1.72797 3.81005 1.51829 3.9574 1.34793 4.1798L2.0108 4.68756L2.67368 5.19532C2.65596 5.21846 2.65667 5.20157 2.7668 5.1372C2.88437 5.06848 3.04995 4.98801 3.33029 4.85293L2.96782 4.1007ZM2.20182 6.31531L2.943 5.93077C2.80241 5.65979 2.72131 5.50199 2.6711 5.38158C2.62461 5.27011 2.63684 5.26293 2.63656 5.29903L1.80158 5.29245L0.966608 5.28587C0.964373 5.56965 1.04266 5.8155 1.12975 6.02434C1.21311 6.22425 1.3331 6.45404 1.46064 6.69986L2.20182 6.31531ZM2.0108 4.68756L1.34793 4.1798C1.105 4.49694 0.969774 4.88408 0.966608 5.28587L1.80158 5.29245L2.63656 5.29903C2.63682 5.2651 2.64807 5.22875 2.67368 5.19532L2.0108 4.68756ZM17.229 6.90225V7.73725C17.2664 7.73725 17.4776 7.74745 17.6789 7.68052L17.4155 6.88815L17.1521 6.09578C17.2252 6.0715 17.2815 6.06764 17.2923 6.06699C17.2968 6.06672 17.2955 6.06694 17.2829 6.06709C17.2701 6.06724 17.2544 6.06725 17.229 6.06725V6.90225ZM17.612 6.67413L16.8708 6.28959C16.8594 6.31162 16.8526 6.32471 16.847 6.33516C16.8415 6.34547 16.8413 6.34537 16.8444 6.34024C16.8519 6.32783 16.8836 6.27683 16.9424 6.22137L17.5155 6.82859L18.0887 7.43582C18.248 7.28545 18.3379 7.08812 18.3532 7.05868L17.612 6.67413ZM17.4155 6.88815L17.6789 7.68052C17.8303 7.63022 17.9705 7.54733 18.0887 7.43582L17.5155 6.82859L16.9424 6.22136C17.0038 6.16336 17.0758 6.12116 17.1521 6.09578L17.4155 6.88815ZM2.77099 6.90225V6.06725C2.74556 6.06725 2.72988 6.06724 2.71713 6.06709C2.70452 6.06694 2.70322 6.06672 2.70771 6.06699C2.71851 6.06764 2.77483 6.07151 2.84787 6.09578L2.58448 6.88815L2.32109 7.68052C2.52242 7.74745 2.73359 7.73725 2.77099 7.73725V6.90225ZM2.38799 6.67413L1.6468 7.05868C1.66207 7.08811 1.75202 7.28545 1.91133 7.43582L2.48448 6.82859L3.05763 6.22137C3.1164 6.27683 3.14812 6.32783 3.1556 6.34025C3.15869 6.34537 3.15851 6.34548 3.153 6.33516C3.1474 6.32471 3.1406 6.31162 3.12917 6.28959L2.38799 6.67413ZM2.58448 6.88815L2.84787 6.09578C2.9242 6.12116 2.99617 6.16336 3.05763 6.22136L2.48448 6.82859L1.91133 7.43582C2.02947 7.54733 2.16975 7.63022 2.32109 7.68052L2.58448 6.88815ZM9.234 1.08131L9.59646 1.83354C9.74438 1.76226 9.82725 1.72262 9.89127 1.69578C9.9473 1.67228 9.95802 1.67211 9.95116 1.67335L9.8026 0.851676L9.65403 0.0299985C9.36893 0.0815469 9.11053 0.213923 8.87153 0.329088L9.234 1.08131ZM10.766 1.08131L11.1285 0.329088C10.8895 0.213923 10.6311 0.0815468 10.346 0.0299984L10.1974 0.851676L10.0488 1.67335C10.042 1.67211 10.0527 1.67228 10.1087 1.69578C10.1728 1.72262 10.2556 1.76226 10.4035 1.83354L10.766 1.08131ZM9.8026 0.851676L9.95116 1.67335C9.98338 1.66753 10.0166 1.66753 10.0488 1.67335L10.1974 0.851676L10.346 0.0299984C10.1173 -0.0113536 9.88274 -0.0113537 9.65403 0.0299985L9.8026 0.851676ZM4.64739 13.0923H5.48239V6.90225H4.64739H3.81239V13.0923H4.64739ZM10 13.0923H10.835V7.93392H10H9.165V13.0923H10ZM15.3526 13.0923H16.1876V7.93392H15.3526H14.5176V13.0923H15.3526Z" fill="#979AA0"/>
</svg>
