<svg width="300" height="194" viewBox="0 0 300 194" fill="none" xmlns="http://www.w3.org/2000/svg">
<path d="M196.074 95.996L196.391 97.2593L199.974 97.5752L200.225 94.9829L200.916 94.6062L201.104 93.6582L199.974 93.9745L198.717 95.8733L196.074 95.996Z" fill="#1750B1" stroke="#060910" stroke-width="0.5"/>
<path d="M203.383 82.2399L203.961 86.7638L205.4 87.0797L205.534 87.8932L204.502 88.7538L206.425 90.3041L210.161 88.9609L210.459 87.3707L212.81 85.9045L213.712 82.5062L214.384 81.7829L213.687 80.5704L215.962 79.1646L215.672 78.758L214.622 78.8231L214.527 79.7887L213.116 79.7749L213.09 78.4863L212.637 77.9453L211.874 78.6379L211.895 79.2742L210.744 79.7094L208.617 79.5754L205.855 82.4655L203.383 82.2399Z" fill="#1750B1" stroke="#060910" stroke-width="0.5"/>
<path d="M163.367 75.9638V77.6371L163.847 78.5409L164.192 78.5006L164.785 77.4229L164.439 76.9399L164.305 75.7454L163.847 75.3203L163.367 75.9638Z" fill="#1750B1" stroke="#060910" stroke-width="0.5"/>
<path d="M187.247 76.0098L188.992 78.2824L188.48 78.8818L187.244 78.6676L185.711 77.295L185.793 76.3937L187.247 76.0098Z" fill="#1750B1" stroke="#060910" stroke-width="0.5"/>
<path d="M187.859 75.2227L187.492 75.8468L189.204 78.0905L189.8 77.8981L190.781 78.9254L191.206 77.1249L192.271 77.2954L192.228 76.7792L190.477 75.2479L190.142 76.1479L187.859 75.2227Z" fill="#1750B1" stroke="#060910" stroke-width="0.5"/>
<path d="M160.017 72.0334L159.883 72.2547L162.322 74.7668L163.216 73.4522L163.183 72.9339L162.403 71.9863L160.017 72.0334Z" fill="#1750B1" stroke="#060910" stroke-width="0.5"/>
<path d="M232.985 91.7012L232.508 92.5618L233.743 94.9071L233.78 96.7371L234.005 97.2268L235.455 97.2524L236.276 96.4649L236.872 96.824L236.992 97.9379L237.468 97.6405L237.497 96.2171L237.098 96.1701L236.847 94.9609L235.837 94.9247L235.586 94.2527L236.204 93.4287L236.214 93.0213H234.419L232.985 91.7012Z" fill="#1750B1" stroke="#060910" stroke-width="0.5"/>
<path d="M147.956 63.8945L147.723 64.4754L150.223 66.1239L150.391 66.1453L150.549 65.6859L150.901 65.4389L150.339 64.8093H149.954L149.426 64.2104L147.956 63.8945Z" fill="#1750B1" stroke="#060910" stroke-width="0.5"/>
<path d="M143.949 106.648L145.271 106.543L147.441 109.607L145.427 111.124L143.97 110.75L142.011 110.776L141.695 111.922L140.052 112.002L139.602 111.389L140.184 109.523L143.949 106.648Z" fill="#1750B1" stroke="#060910" stroke-width="0.5"/>
<path d="M166.062 73.2874L166.121 75.0956L166.731 76.3661L169.025 76.406L170.057 75.6765L171.071 75.2737L170.824 74.1186L171.053 73.5016L170.537 73.2324L169.827 73.2908L169.271 73.8503L166.938 73.8683L166.062 73.2874Z" fill="#1750B1" stroke="#060910" stroke-width="0.5"/>
<path d="M175.066 125.502L176.618 125.469L176.215 126.826L175.822 127.167H175.341L175 126.249L175.066 125.502Z" fill="#1750B1" stroke="#060910" stroke-width="0.5"/>
<path d="M146.901 115.801H147.672L147.716 113.615L148.689 112.202L148.645 109.744L147.761 109.723L146.246 110.905L146.878 112.111L146.901 115.801Z" fill="#1750B1" stroke="#060910" stroke-width="0.5"/>
<path d="M263.589 115.713L262.543 116.98L263.401 117.25L263.884 116.574L263.589 115.713Z" fill="#1750B1" stroke="#060910" stroke-width="0.5"/>
<path d="M74.2109 135.151L77.2021 133.848L78.1906 133.943L78.8486 136.687L83.4059 138.201L84.1585 140.52L86.0375 140.756L86.8373 142.743L86.2738 144.539L83.2171 144.775L82.0903 147.662L79.6916 147.615L78.939 147.473L77.5544 148.816L76.8712 148.75L74.5196 143.308L75.17 142.336L75.3991 138.487L74.8177 136.196L74.2109 135.151Z" fill="#1750B1" stroke="#060910" stroke-width="0.5"/>
<path d="M94.3945 159.135L96.6658 154.77L96.749 151.104L100.987 148.373H103.36L105.225 145.218L105.563 139.163L104.8 137.543L109.292 133.448L109.463 128.928L103.36 125.944L95.9897 123.642L92.5151 123.301L93.4489 121.34L93.1949 118.357L92.4347 118.106L91.3117 120.336L90.7231 121.072L89.2115 120.405L84.1269 122.194L82.4333 120.064L82.7058 117.838L81.1064 119.464L79.34 118.513L79.1618 118.764L79.1656 119.537L80.6885 120.354L78.4024 122.76L76.9594 122.746L75.4983 121.261L73.8447 121.312L73.6412 123.076L74.5897 124.227L73.4701 127.81L72.1616 127.911L70.0791 129.226L69.5703 131.807L71.3766 133.739L71.7075 133.365L72.976 133.024L74.0591 134.847L77.1596 133.518L78.3625 133.587L79.1912 136.517L83.6144 137.919L84.3775 140.256L86.2603 140.481L87.158 142.713L86.5513 144.7L87.3434 145.739L87.2274 147.286L89.3499 147.085L91.2945 149.54L91.1418 151.264L92.2939 152.237L89.5315 156.416L94.3945 159.135Z" fill="#1B4397" stroke="#060910" stroke-width="0.5"/>
<path d="M157.769 129.315L159.009 133.937L158.98 135.397L157.167 137.343L156.895 140.505L163.873 140.566L166.141 141.387L168.012 141.144L166.922 139.778L166.926 135.88L169.071 135.788V134.268L167.329 134.195L166.98 130.594L166.246 130.604L165.85 130.248L165.418 130.27L164.844 131.382H162.635L162.122 130.866L162.274 130.136L161.671 129.254L157.769 129.315Z" fill="#1750B1" stroke="#060910" stroke-width="0.5"/>
<path d="M157.016 128.051L157.648 128.871L158.466 128.098L158.226 127.296L158.023 127.281L157.016 128.051Z" fill="#1750B1" stroke="#060910" stroke-width="0.5"/>
<path d="M91.2058 151.638L91.9109 152.298L89.2322 156.274L88.2908 157.315L88.6175 161.857L90.6853 164.366L88.9479 167.394L87.6323 167.961H86.1275L86.5492 170.324L84.1976 171.13L84.761 173.117L83.3508 177.611L85.0919 179.031L84.1505 181.347L82.5511 183.857L83.3979 185.606L81.3301 185.936L79.6365 183.857L79.3531 177.375L76.7219 166.367L77.5178 162.519L75.8242 157.599L76.951 151.213L77.9866 149.982L77.7323 149.049L79.0626 147.836L82.0285 148.039L83.6859 149.807L85.6011 149.84L87.5638 151.038L86.9857 152.389L87.124 153.754L89.9041 153.623L91.2058 151.638Z" fill="#1750B1" stroke="#060910" stroke-width="0.5"/>
<path d="M85.1914 188.158L85.286 190.238L86.885 190.096L88.2481 189.196L85.944 188.724L85.1914 188.158Z" fill="#1750B1" stroke="#060910" stroke-width="0.5"/>
<path d="M154.865 68.8307L154.629 69.3209L154.832 69.6695L155.679 69.4952H156.399L157.179 70.1554L158.84 69.8543L160.061 69.1281L160.374 68.6379L160.327 68.0062L159.229 67.1855L157.757 67.2002L157.633 68.0352L156.085 68.79L154.865 68.8307Z" fill="#1750B1" stroke="#060910" stroke-width="0.5"/>
<path d="M256.828 155.189L256.701 164.403L255.284 165.442L255.156 166.349L257.089 167.645L261.862 166.738H264.311L265.213 165.438L270.628 164.4L274.496 165.569L274.237 167.126L274.754 168.684L277.72 168.165L277.847 168.942L275.914 170.368L276.557 170.888L277.974 170.368L277.588 174.652L280.296 176.729L281.845 176.21L282.619 176.988L287.132 176.338L291.389 169.457L292.937 169.069L296.03 163.358L296.804 158.428L294.87 155.963L295.645 155.444L294.096 150.641L292.421 149.472L292.679 142.983L291.13 141.815L290.745 138.181H289.97L287.39 146.746L285.973 146.877L282.749 143.631L284.555 138.827L281.204 138.178L277.464 139.216L276.432 142.2L274.757 142.588L274.629 140.512L267.796 144.665L267.923 146.223L266.892 147.649H264.31L258.765 149.985L256.828 155.189Z" fill="#1750B1" stroke="#060910" stroke-width="0.5"/>
<path d="M280.296 179.979L279.652 182.575L279.78 184.39L281.714 184.259L283.906 180.886L280.296 179.979Z" fill="#1750B1" stroke="#060910" stroke-width="0.5"/>
<path d="M67.2675 93.8857L66.8096 93.7441L66.7734 94.6266L67.3368 95.1932L67.7224 94.6266L67.2675 93.8857Z" fill="#1750B1" stroke="#060910" stroke-width="0.5"/>
<path d="M68.1792 95.2656L67.5469 95.6176L68.1427 96.4664L68.4588 96.0418L68.1792 95.2656Z" fill="#1750B1" stroke="#060910" stroke-width="0.5"/>
<path d="M70.2197 95.9018L69.5508 95.8652L69.6202 96.2903L70.1108 96.9988L70.5321 96.5372L70.2197 95.9018Z" fill="#1750B1" stroke="#060910" stroke-width="0.5"/>
<path d="M69.9025 95.0562L68.8122 94.5946L68.6016 93.4988L69.0229 93.3203L69.4446 94.17L69.8659 94.4892L69.9025 95.0562Z" fill="#1750B1" stroke="#060910" stroke-width="0.5"/>
<path d="M68.8468 92.826L68.2834 92.6844L68.1778 91.9763L67.582 91.7659L67.9676 91.377L68.6689 91.6239L69.1957 91.944L68.8468 92.826Z" fill="#1750B1" stroke="#060910" stroke-width="0.5"/>
<path d="M232.922 89.8743L233.485 90.6442L235.389 90.6584L235.197 89.6055L232.922 89.8743Z" fill="#1750B1" stroke="#060910" stroke-width="0.5"/>
<path d="M165 149.108L165.781 149.348L165.672 151.58L166.475 151.689L168.322 150.026L170.539 150.265L171.127 148.776L173.933 146.216L170.563 142.343L170.52 141.707L170.148 141.598L169.127 142.538L166.474 142.603L166.102 145.907L165.06 146.146L165 149.108Z" fill="#1750B1" stroke="#060910" stroke-width="0.5"/>
<path d="M165.781 60.1805L166.327 61.0773L166.108 61.7925L166.145 62.3591L166.345 63.0379L167.471 62.399L168.871 62.4351L169.853 62.8379H172.342L173.069 61.0987L173.505 60.4418V60.0029L171.943 57.8062L170.561 57.2581L169.435 57.1309L168.453 57.4429L168.49 58.4304L167.127 60.1516L165.781 60.1805Z" fill="#1750B1" stroke="#060910" stroke-width="0.5"/>
<path d="M54.5298 102.334L54.5117 103.659H54.817L55.8563 101.721H55.1512L54.5298 102.334Z" fill="#1750B1" stroke="#060910" stroke-width="0.5"/>
<path d="M37.6895 17.4727L38.4127 18.5655L38.7759 20.025L40.586 20.4791L41.8545 19.114L42.9414 19.6626L46.0196 19.9343L48.1929 19.0229L48.5562 22.0289H49.8247V20.7546L51.0932 20.8453L54.2626 24.5813L56.3451 25.856L55.2587 27.5877L55.7132 28.0417L59.7803 28.862L59.8711 30.6849L60.958 30.8667L61.2304 28.1325L62.9497 27.6789L64.2182 29.5924L66.9331 30.8667L68.2924 31.1385L69.1972 30.0456L69.288 28.3135L70.9165 27.3109L71.458 28.7709L70.0079 31.3233L70.1895 32.5971L71.0039 31.3233L72.6323 29.8637L72.7232 27.9502L71.8183 26.4902L72.0908 25.3071L74.2641 24.2138L75.2602 24.9438L75.4418 31.3228L76.9794 29.9578L77.8843 30.5059L76.6158 32.6916L78.2442 33.055L80.5996 29.4097L82.5913 31.5039L81.7773 35.2398L79.7856 36.3331L77.8847 35.4221L74.4466 36.1513L74.8099 37.3348L73.9051 38.7948L71.0994 39.4336L67.93 41.8949L65.1243 45.6313L64.761 46.8144L66.6619 47.544L67.3851 49.3664L70.0091 52.0095L74.1742 53.8319L73.2693 58.0215L73.1785 59.2051L74.2654 59.9342L75.7156 58.0211L75.8972 54.3758L78.1614 54.2851L79.2478 52.1901L79.4299 49.0027L82.3264 43.3536L85.9461 44.6279L87.847 47.271L87.0326 49.9137L88.4827 50.7344L92.012 48.363L93.0077 54.8328L96.2679 58.7502L96.3587 60.7541L92.739 61.6655L91.0202 63.4875L87.4005 62.6672L85.5904 62.5761L82.421 65.0373L84.3219 64.5833L86.6769 64.1297L87.1314 64.6778L86.499 66.6817L86.5898 68.5045L87.6767 69.2336L88.7632 68.9615L89.3081 68.1412H90.0313L88.8536 70.3273L86.5894 70.4176L85.5938 71.8776H84.3252L83.962 70.7843L85.772 68.9623L83.5987 69.6918L83.5007 66.5947L82.8755 66.2322L80.9746 67.0525L80.793 68.6028H76.4463L72.7328 71.1564L67.7538 72.7978L67.2122 72.0678L69.7198 68.3289L68.2953 66.9593L67.3905 65.2238L65.5477 63.8185L63.5707 63.6551L60.0271 61.1754L34.3279 56.9572L33.9028 55.2175L31.5474 53.0318V51.2094L31.9111 49.5684L31.7291 48.6578L30.8243 47.746L30.6426 46.2865L32.998 44.6451L31.5479 36.8107L29.5562 36.7195L27.7461 34.3486L37.6895 17.4727Z" fill="#1750B1" stroke="#060910" stroke-width="0.5"/>
<path d="M28.8251 46.4258L28.207 47.6094L28.4215 48.4477L28.8247 48.6989L28.7301 49.0399L28.2974 49.1634L28.421 50.4087L28.8861 50.877L29.2569 50.4742L28.7919 49.2617L29.0681 48.2961L29.7476 47.3922L29.2535 46.5535L28.8251 46.4258Z" fill="#1750B1" stroke="#060910" stroke-width="0.5"/>
<path d="M30.8688 53.5215L30.3125 53.7399L31.3338 54.9235L31.581 56.3246L32.6023 57.4133L33.4676 57.2575V55.8269L32.4173 55.173L30.8688 53.5215Z" fill="#1750B1" stroke="#060910" stroke-width="0.5"/>
<path d="M86.6238 23.627L85.9805 24.2767L86.5439 25.1696L89.2045 25.493L87.5109 23.7072L86.6238 23.627Z" fill="#1750B1" stroke="#060910" stroke-width="0.5"/>
<path d="M54.2306 12.8371L54.3105 14.2966L51.4102 17.2988L52.1371 19.7311L54.2306 19.1649L55.4407 17.3786L58.5007 16.2421L60.9974 16.0787L59.0637 13.9694L58.0971 14.699L57.3701 14.4558L56.9669 13.5629L56.0802 12.6699L54.2306 12.8371Z" fill="#1750B1" stroke="#060910" stroke-width="0.5"/>
<path d="M58.0183 8.53899L57.375 9.67554L60.5188 10.8121L61.6456 9.10895L62.1291 10.2459H62.936L64.466 8.54277L62.6122 8.0564L61.8852 7.49023L60.9186 8.46296L58.0183 8.53899Z" fill="#1750B1" stroke="#060910" stroke-width="0.5"/>
<path d="M63.4967 10.8105L61 11.8639V12.6737L64.2236 13.89L63.4967 14.6998L63.9802 15.7528L65.9938 14.8599H67.6874L68.4942 16.156L69.8645 14.7763L69.5407 13.4763L68.4139 13.8829L68.2541 12.2604L68.8175 11.2877H68.2541L67.3674 11.8543L66.9642 12.1773L67.2076 13.3142L66.5643 13.8006L65.5977 13.7208L65.3542 12.2608L63.4967 10.8105Z" fill="#1750B1" stroke="#060910" stroke-width="0.5"/>
<path d="M66.802 8.29492L66.5586 9.10428L68.0886 9.83424L69.2155 9.18449L69.1356 8.69813L66.802 8.29492Z" fill="#1750B1" stroke="#060910" stroke-width="0.5"/>
<path d="M68.0092 6.91602L66.8828 7.32258L66.9627 7.88959L69.4594 7.7262L69.3795 7.15961L68.0092 6.91602Z" fill="#1750B1" stroke="#060910" stroke-width="0.5"/>
<path d="M73.4067 8.29552L73.247 8.86168L72.8438 9.42827V10.2385L74.3738 9.99529L75.9842 11.375H76.5476V9.99529L74.9372 8.20898L73.4067 8.29552Z" fill="#1750B1" stroke="#060910" stroke-width="0.5"/>
<path d="M77.5195 9.91687L78.1628 10.6468L77.5994 11.6196L78.0026 12.6725L79.7761 11.6994V10.9702L78.7292 9.75391L77.5195 9.91687Z" fill="#1750B1" stroke="#060910" stroke-width="0.5"/>
<path d="M79.8555 8.05265L79.9354 9.34879H82.1125L82.6759 9.83516L82.596 10.4013L80.6623 10.6449L82.0326 12.511L83.8864 12.8344L86.463 11.6983L82.7558 6.09961L81.629 6.82958L81.7089 7.80232L80.4185 7.31595L79.8555 8.05265Z" fill="#1750B1" stroke="#060910" stroke-width="0.5"/>
<path d="M61.0796 17.2188L58.0195 18.0285L56.2456 19.5712L56.4054 21.2739L59.629 22.2471L58.9021 23.87L56.5652 22.4096L55.9219 23.626L57.4519 24.679L57.372 26.3817L59.7089 27.0314L62.5293 26.868L63.0125 25.9751L65.1059 28.3276L66.5561 27.8416L66.7995 26.2187L67.8464 26.9482L68.0062 25.3253L66.7162 24.5156L66.7961 19.4074L65.6693 18.5145L64.4626 20.1374L61.0796 17.2188Z" fill="#1750B1" stroke="#060910" stroke-width="0.5"/>
<path d="M70.9107 20.7875L69.8642 20.3011L69.3008 21.0307L70.4276 22.817L70.5075 24.5197L72.9247 23.0602V20.9509L73.8114 20.058L72.9247 19.4082H71.4745L70.9107 20.7875Z" fill="#1750B1" stroke="#060910" stroke-width="0.5"/>
<path d="M76.0686 20.0566L74.375 21.4364L74.7782 23.1391H75.8252L76.3083 22.2461L77.0352 22.9757L77.7622 22.8959L79.6959 21.273L76.0686 20.0566Z" fill="#1750B1" stroke="#060910" stroke-width="0.5"/>
<path d="M75.9071 17.3789L75.5039 18.1887L77.2774 18.8389L77.7609 18.1089L75.9071 17.3789Z" fill="#1750B1" stroke="#060910" stroke-width="0.5"/>
<path d="M74.8595 14.2969L73.086 14.5401L72.0391 15.5124L73.9727 15.5922L73.4093 17.0517L73.8126 17.7019L74.376 17.6221L75.7462 15.433L74.8595 14.2969Z" fill="#1750B1" stroke="#060910" stroke-width="0.5"/>
<path d="M77.9237 13.7305L76.957 14.0539L77.1168 15.35L78.7272 16.403L78.807 17.2123L78.3239 17.6991L78.5674 19.322L84.7712 21.3477L86.4648 21.9143L88.1584 20.4548L86.1448 18.8319L84.2911 19.3183L81.7145 19.0751L80.7479 18.1023L80.5044 15.4265L78.8941 14.6167L77.9237 13.7305Z" fill="#1750B1" stroke="#060910" stroke-width="0.5"/>
<path d="M82.9977 22.1677L81.2242 22.0039L79.1307 22.8133L78.0039 24.353L78.3272 28.5712L81.791 28.735L85.0945 30.3579L87.4318 33.0337L89.2053 32.9539L88.7218 35.466L87.1118 38.1419L85.3384 38.9508L84.048 38.7081L83.4047 38.1419L82.438 39.438L82.8413 40.7342L84.2115 40.8136L85.9051 40.0038L87.3553 43.736L90.9821 46.0893L93.4788 42.927L91.3854 39.5216L92.5954 38.1423L94.289 40.9807L97.3491 38.3048L96.7861 37.0885L94.6923 37.7387L93.2425 33.7629L94.6128 31.4936L91.8723 28.5749L90.3422 29.6279L88.8921 26.4656L85.8324 26.8722L85.0255 23.0602L82.5289 24.7634L82.2854 26.8722H80.9152L81.0749 25.0061L82.9977 22.1677Z" fill="#1B4397" stroke="#060910" stroke-width="0.5"/>
<path d="M84.0469 14.4593V15.1893L82.2734 15.5959L82.7565 16.4052L84.7701 17.215L87.0271 17.4586L88.6379 18.5947L90.2478 17.7014L89.1206 16.5652H90.5707L91.4575 15.5925L93.6346 15.2691V14.7827L92.4245 13.9729L92.5839 13.0796L95.9677 13.6458L100.965 11.6999L99.111 11.1337L99.5946 10.4839H103.462L104.105 9.83419L96.2877 7.07515L94.4335 6.42541L92.4199 7.88536L90.1629 6.01926L88.9528 5.93945L88.7094 7.48298L87.1797 6.10326L85.4063 6.66985L85.7296 7.56279L88.3902 8.1298L88.2305 9.42595L89.6806 10.3185L93.2284 9.42595L93.3083 10.6423L90.408 12.022L88.6345 10.6423L87.0242 10.8057L88.6345 13.0783L87.8277 13.4853L86.6176 12.4319L85.7309 12.9981L86.5377 14.5379H87.908L87.5846 15.9974L86.4578 15.834L85.0077 14.2909L84.0469 14.4593Z" fill="#1750B1" stroke="#060910" stroke-width="0.5"/>
<path d="M76.8666 36.7832L75.329 38.7148L75.2344 40.8422L76.579 40.0689H78.2108L79.3628 41.1328L80.4203 40.2609L76.8666 36.7832Z" fill="#1750B1" stroke="#060910" stroke-width="0.5"/>
<path d="M95.5874 61.9082L91.7461 65.5825L92.1312 66.4536L96.8345 68.1928L97.5068 67.0344L97.1216 65.1028L95.584 65.2952L94.7191 64.3296L96.1584 62.8809L95.5874 61.9082Z" fill="#1750B1" stroke="#060910" stroke-width="0.5"/>
<path d="M158.047 128.951L161.794 128.886L162.554 129.964L162.525 130.76L162.805 131.014H164.666L165.2 129.964H165.96L166.269 130.276L167.311 130.247L167.62 133.907L169.423 133.965V134.249L174.267 136.43L174.492 136.856H175.506L175.393 135.323L173.562 134.445L173.675 133.283L174.464 131.438L176.266 131.38L174.718 126.246L174.746 124.064L177.196 120.237L177.224 119.701L176.857 119.5L176.872 118.462L176.425 118.422L175.974 117.848L168.578 117.515L167.222 118.833L165.002 117.373L164.221 117.852L163.654 122.619L162.251 123.701L161.829 124.66L161.905 126.08L159.375 128.145L158.702 127.84L158.793 128.235L158.047 128.951Z" fill="#125DCB" stroke="#060910" stroke-width="0.5"/>
<path d="M160.328 117.456L162.021 119.286L162.69 118.422L163.754 118.465L163.983 117.623L165.03 116.969L167.203 118.465L168.457 117.224L173.323 117.438L168.809 112.784L169.416 112.407L169.499 111.586L168.474 111.104H166.969L164.545 113.504L164.462 114.491L162.539 114.43L162.478 114.851L161.224 114.723L160.094 116.869L160.328 117.456Z" fill="#1750B1" stroke="#060910" stroke-width="0.5"/>
<path d="M158.637 120.53L158.615 121.058L160.352 121.101L160.413 125.607L158.825 125.563L157.906 124.848L157.194 125.248L157.161 125.447L157.528 125.625L157.634 126.551L156.652 127.393L156.863 127.837L157.95 126.995H158.473L158.639 127.499L159.331 127.793L161.547 125.92L161.503 124.551L161.965 123.436L163.386 122.384L163.768 118.822L162.758 118.826L161.588 120.427L158.637 120.53Z" fill="#1750B1" stroke="#060910" stroke-width="0.5"/>
<path d="M152.062 68.5625L150.477 70.2471L150.509 70.4172L151.16 70.2144L151.746 71.0279L152.734 70.6793L153.418 71.2098L153.698 71.0502L154.541 69.7288L154.326 69.5256L153.494 69.5042L153.091 68.6797L152.062 68.5625Z" fill="#1750B1" stroke="#060910" stroke-width="0.5"/>
<path d="M137.218 118.435L138.773 117.336L140.707 116.997L142.68 117.423L141.673 115.902L141.378 114.972L141.673 112.224L139.91 112.307L139.112 111.545L137.432 111.589L136.633 111.716L136.716 113.575L136.295 113.745L135.789 114.676L137.09 116.196L137.218 118.435Z" fill="#1750B1" stroke="#060910" stroke-width="0.5"/>
<path d="M83.7785 186.455L82.2266 189.861L84.9053 190.144L84.9524 187.875L83.7785 186.455Z" fill="#1750B1" stroke="#060910" stroke-width="0.5"/>
<path d="M83.2517 185.921L82.085 187.209L81.9433 188.723L79.6863 187.445L77.2876 183.992L76.5825 182.76L77.571 181.482L77.4764 179.874L76.3495 179.402L75.4556 178.741L75.6444 177.841L76.8183 177.51L77.0546 172.308L75.2231 171.266L74.0273 144.185L74.3364 143.648L76.6771 149.04L77.4259 149.054L77.6693 149.915L76.6733 151.12L75.5284 157.608L77.1568 162.604L76.4042 166.387L79.0573 177.511L79.3373 184.017L81.2382 186.213L83.2517 185.921Z" fill="#1B4397" stroke="#060910" stroke-width="0.5"/>
<path d="M75.5079 172.311L75.0391 173.019L75.2754 174.25L75.7442 174.297L75.9805 172.736L75.5079 172.311Z" fill="#1750B1" stroke="#060910" stroke-width="0.5"/>
<path d="M153.844 117.54L155.014 118.616L154.93 120.278L161.349 120.13L161.872 119.542L160.033 117.563L159.76 116.848L160.931 114.659L160.135 113.207L159.466 112.848V112.11L160.24 111.606L160.284 109.311L159.67 109.242L159.66 110.448L156.963 115.476L155.313 115.56L154.183 116.337L153.844 117.54Z" fill="#1750B1" stroke="#060910" stroke-width="0.5"/>
<path d="M223.839 61.553L222.582 64.7119L220.848 64.6207L219.019 68.6184L220.571 70.5928L217.373 75.0046L215.731 74.7282L214.633 76.108L214.905 76.9358L216.185 77.0269L216.824 78.497L218.104 78.7733L222.033 83.8302V86.4045L223.951 87.599L226.052 87.2323L228.702 88.7943L231.9 89.7129L233.452 89.5285L235.189 89.3433L238.841 86.9543L240.03 87.1391L240.485 88.2172L241.492 88.5188L242.863 90.5403L241.95 92.5622L242.499 93.9419L244.051 94.493L244.323 96.1487L246.152 96.333L246.424 95.5052L249.074 94.1255L250.716 94.2166L252.635 96.3293L253.914 95.7782L254.736 95.8689L255.103 96.882L255.743 96.9727L256.654 95.6875L260.307 94.3078L263.597 90.3542L264.694 86.5851L264.603 84.102L263.233 83.8265L264.054 82.9075L263.871 81.437L260.4 77.9451V76.1991L261.404 74.9131L262.408 74.4519L262.498 73.4388H259.94L259.482 74.8185L258.293 74.543L256.832 72.9814L257.744 70.5924L259.024 69.2127L260.212 69.3038L260.03 71.4169L260.669 71.9684L262.221 70.4072L262.77 70.3165L262.588 69.122L264.05 67.3756L265.147 67.4663L265.787 65.4448L266.536 65.0491L266.612 63.7891L265.885 63.0268L265.823 61.0377L267.223 60.9465L267.132 55.8165L266.151 56.4045L265.788 57.7192L264.149 57.7154L259.399 55.0467L255.968 50.915L252.486 50.8789L251.6 51.6488L252.727 54.2264L252.334 56.6448L250.932 57.2257L250.143 57.1639L250.084 59.5563L250.906 59.7415L252.368 59.0989L254.286 60.0174V60.9364L252.915 61.0272L251.818 63.4162L250.814 63.5065L247.252 68.1938L243.509 69.849L240.95 70.0342L239.216 68.8397L236.749 70.1283L234.099 69.3005L233.46 67.5541L228.985 67.2781L226.611 63.4191H225.608L224.801 61.629L223.839 61.553Z" fill="#125DCB" stroke="#060910" stroke-width="0.5"/>
<path d="M256.341 97.8945L255.473 98.1377L254.848 98.9076L255.367 99.9202L256.13 99.9887L256.999 99.2192L257.206 98.2066L256.341 97.8945Z" fill="#1750B1" stroke="#060910" stroke-width="0.5"/>
<path d="M72.4011 108.645L71.6522 108.568L66.7022 112.645L66.1787 114.079L65.5026 114.156L65.8041 117.325L64.0781 121.555L65.9534 123.141L68.3558 123.293L70.0057 125.711L72.4044 125.788L72.3279 127.599H73.2256L74.1994 124.277L73.2979 123.146L73.5233 121.033L75.3985 120.88L75.1731 115.971L70.9715 114.614L69.9977 111.97L72.4011 108.645Z" fill="#1750B1" stroke="#060910" stroke-width="0.5"/>
<path d="M59.1903 110.532L59.6957 111.52L60.1065 112.065L59.554 113.702L58.5 112.961L56.7773 111.385V110.344L59.1903 110.532Z" fill="#1750B1" stroke="#060910" stroke-width="0.5"/>
<path d="M60.4492 96.7142V97.1762L62.3829 97.2123L63.2949 96.6819L63.4366 97.0708L65.3337 97.532L67.0201 99.0532L66.6346 99.5833L66.7039 100.186L68.1104 100.539L69.5168 99.9029L70.1492 99.2674L69.2372 98.8063L64.5306 96.0472L62.8807 95.8691L60.4492 96.7142Z" fill="#1750B1" stroke="#060910" stroke-width="0.5"/>
<path d="M121.042 105.291L120.352 105.687L120.846 106.082L121.438 105.785L121.042 105.291Z" fill="#1750B1" stroke="#060910" stroke-width="0.5"/>
<path d="M122.739 106.09L122.289 106.489L122.609 107.081L123.38 106.736L122.739 106.09Z" fill="#1750B1" stroke="#060910" stroke-width="0.5"/>
<path d="M121.754 107.211L121.176 107.556L121.798 108.387L122.289 108.13L121.754 107.211Z" fill="#1750B1" stroke="#060910" stroke-width="0.5"/>
<path d="M177.61 83.252L178.057 83.5758L176.672 84.8858L176.01 84.8639L175.52 84.5191L175.585 83.8769L176.588 83.8118L177.61 83.252Z" fill="#1750B1" stroke="#060910" stroke-width="0.5"/>
<path d="M157.701 66.9253H158.78H159.311L160.173 67.5389L161.769 66.2138L160.22 65.1105L158.686 64.3691L157.636 64.5581L156.211 65.4729L157.701 66.9253Z" fill="#1750B1" stroke="#060910" stroke-width="0.5"/>
<path d="M151.419 60.7564L152.717 60.5464V59.6316L153.803 59.4531L154.399 60.0525L155.028 60.1213L156.009 59.6963L156.885 59.9433L157.655 60.6119L157.761 63.1131L158.531 64.1371L157.517 64.2786L155.834 65.3349L155.976 65.6873L157.481 67.096L157.376 67.8004L155.976 68.5047L154.679 68.5408L154.363 69.2087H153.698L153.382 68.5047L152.226 68.2212L152.189 67.0591L151.605 66.7356L151.652 65.954L151.482 65.3962L150.648 64.6301L150.823 63.4314L151.731 63.0068L151.419 60.7564Z" fill="#1B4397" stroke="#060910" stroke-width="0.5"/>
<path d="M153.465 54.8105L151.957 56.4771L151.902 57.5624L152.59 59.3529L153.666 59.1497L153.532 57.6868L154.273 56.8589L154.259 56.2088L153.736 54.8551L153.465 54.8105Z" fill="#1750B1" stroke="#060910" stroke-width="0.5"/>
<path d="M154.243 57.8672L153.797 57.9634V58.6282L154.271 58.9957L154.69 58.8907L154.588 58.2595L154.243 57.8672Z" fill="#1750B1" stroke="#060910" stroke-width="0.5"/>
<path d="M155.644 57.2344L155.245 57.331L154.801 57.7375L154.989 58.5582L155.532 58.7712L154.971 58.9959L154.864 59.2836H155.707L155.96 58.822L155.637 58.6632L155.743 58.2592L156.128 57.7531L156.023 57.3154L155.644 57.2344Z" fill="#1750B1" stroke="#060910" stroke-width="0.5"/>
<path d="M187.887 109.283L187.68 110.502L189.119 110.481L189.141 108.687L188.614 108.363L187.887 109.283Z" fill="#1750B1" stroke="#060910" stroke-width="0.5"/>
<path d="M81.609 103.234L81.2891 103.913L81.6746 104.429L82.1544 104.011L81.609 103.234Z" fill="#1750B1" stroke="#060910" stroke-width="0.5"/>
<path d="M75.8093 101.623L73.8866 100.366L72.6727 99.9375L72.4297 102.256L72.6727 102.237L72.9927 102.85L73.4106 102.367L74.6283 102.044L75.6861 102.269L75.8093 101.623Z" fill="#1750B1" stroke="#060910" stroke-width="0.5"/>
<path d="M152.413 82.4005L150.931 81.9023L144.76 83.0607L143.415 84.0809L144.236 88.318L141.783 88.4158L140.308 90.7872L136.793 91.6293L136.803 93.3534L148.379 102.194L150.352 102.361L156.934 97.2238L156.276 96.396L155.041 96.2288L154.299 94.9877V89.8497L153.804 89.3525L153.888 88.0273L152.572 86.7022L152.408 85.2935L152.983 84.8794L152.735 83.3871L152.413 82.4005Z" fill="#1750B1" stroke="#060910" stroke-width="0.5"/>
<path d="M63.8517 121.74L62.1329 122.807L62.0093 124.391L61.6641 124.91L62.7472 125.948L62.2783 126.46L62.3872 127.768L64.3243 128.229L67.2574 124.761L67.2502 123.553L65.8438 123.462L63.8517 121.74Z" fill="#1B4397" stroke="#060910" stroke-width="0.5"/>
<path d="M51.0456 122.586L50.8203 123.585L50.4023 124.006L50.6895 124.521L51.427 124.232L51.7793 123.618L51.554 122.972L51.0456 122.586Z" fill="#1750B1" stroke="#060910" stroke-width="0.5"/>
<path d="M168.363 51.9633L166.328 51.8906L165.038 52.6781L165.02 53.2628L165.855 54.0503L168.454 54.4901L168.363 51.9633Z" fill="#1750B1" stroke="#060910" stroke-width="0.5"/>
<path d="M164.023 52.2752L163.473 52.46L164.023 52.5549L164.273 52.8447L164.572 52.4869L164.274 51.9766L164.023 52.2752Z" fill="#1750B1" stroke="#060910" stroke-width="0.5"/>
<path d="M164.256 53.0098L163.473 53.3596L163.203 53.8263L163.473 54.1295L164.467 53.762L164.945 53.4462L164.256 53.0098Z" fill="#1750B1" stroke="#060910" stroke-width="0.5"/>
<path d="M169.879 88.0526L170.849 88.0786L172.739 88.6011L173.637 88.6267L174.749 87.6973H175.268L176.214 88.2202H177.41L177.625 88.2055L178.381 90.3769L178.595 91.0775L178.796 92.1267L178.438 92.3879L177.824 92.0796L177.115 89.7704L176.475 89.7238L176.429 90.508L176.854 91.8654L180.26 96.0768L180.333 97.885L179.341 99.0287L170.022 98.9232L169.879 88.0526Z" fill="#1750B1" stroke="#060910" stroke-width="0.5"/>
<path d="M182.517 106.8L182.426 104.661L183.865 102.984L184.254 103.282L184.963 105.65L188.365 108.179L187.747 108.939L185.257 106.801L182.517 106.8Z" fill="#1750B1" stroke="#060910" stroke-width="0.5"/>
<path d="M143.139 74.2342H138.508L137.574 73.8125L137.123 73.8453L136.578 74.9776L136.771 76.1431L138.541 76.3065L138.766 77.0503L137.995 81.389L138.028 82.1665L139.282 82.8456L140.728 82.9431L143.621 82.2316L145.035 80.4537L145.067 78.6422L147.575 76.3762L147.702 75.3741L145.42 75.3413L143.139 74.2342Z" fill="#1750B1" stroke="#060910" stroke-width="0.5"/>
<path d="M131.242 91.9258L130.605 92.2924L130.9 92.5902L131.242 91.9258Z" fill="#1750B1" stroke="#060910" stroke-width="0.5"/>
<path d="M129.031 91.9941L128.242 92.1941L128.635 92.7896H129.227L129.031 91.9941Z" fill="#1750B1" stroke="#060910" stroke-width="0.5"/>
<path d="M127.155 91.4004L126.66 91.8977L127.351 92.4932L127.744 91.6003L127.155 91.4004Z" fill="#1750B1" stroke="#060910" stroke-width="0.5"/>
<path d="M147.77 78.668L147.191 78.8641L147.319 79.3828H148.155L148.508 78.9943L147.77 78.668Z" fill="#1750B1" stroke="#060910" stroke-width="0.5"/>
<path d="M179.893 112.994L182.538 107.111L185.166 107.126L187.496 109.148L187.332 110.815H189.138L189.323 111.817L192.245 113.563L194.047 113.654L190.621 117.331L185.914 118.78H184.748L182.669 117.008L181.848 116.664L180.256 114.322L179.206 114.336L179.082 113.262L179.893 112.994Z" fill="#1750B1" stroke="#060910" stroke-width="0.5"/>
<path d="M164.376 42.264L165.129 42.5941L165.593 43.4652L165.129 44.0684L162.795 46.617L162.395 47.9606L162.929 49.9065L164.728 51.2501L167.127 50.1098L169.06 49.841L170.859 46.9547L169.525 43.7996L168.256 40.7789L168.457 38.833L167.658 38.6986L167.451 37.2789L166.375 35.5254L165.182 36.3494L164.714 38.263L163.449 37.504L161.69 37.0752L161.297 37.533L161.973 38.1433L163.205 38.1211L164.197 39.7221L164.376 42.264Z" fill="#1750B1" stroke="#060910" stroke-width="0.5"/>
<path d="M92.1072 184.306L91.1515 184.201L90.1992 184.84L90.8896 185.588L92.1072 184.306Z" fill="#1750B1" stroke="#060910" stroke-width="0.5"/>
<path d="M93.0614 183.826L92.7452 184.839L91.8438 185.637L91.8984 185.902L93.4352 185.314L94.0713 184.516L93.0614 183.826Z" fill="#1750B1" stroke="#060910" stroke-width="0.5"/>
<path d="M147.516 64.6855L146.713 64.8817L145.107 66.6281L144.624 66.6608L143.98 66.2068L143.563 66.3047L143.242 67.3068L140.895 67.3719L140.96 67.891L142.566 68.9591L144.431 70.4472L144.399 72.2264L143.403 73.9723L145.558 75.0072L147.746 75.0719L148.422 74.2949L149.803 74.3277L150.188 74.6838L151.569 74.586L152.278 73.6779L151.377 72.6107L151.311 71.9319L151.504 71.1881L151.054 70.5417L150.283 70.7664L150.185 70.1856L151.89 68.3085V67.1758L150.903 66.8536L150.301 66.4391L147.516 64.6855Z" fill="#125DCB" stroke="#060910" stroke-width="0.5"/>
<path d="M89.992 116.639L92.1187 117.963L91.0062 120.171L90.6029 120.679L89.4219 120L89.4551 117.622L89.992 116.639Z" fill="#1750B1" stroke="#060910" stroke-width="0.5"/>
<path d="M200.934 145.891L200.105 145.945L200.051 146.668L200.603 146.781L201.432 146.393L200.934 145.891Z" fill="#1750B1" stroke="#060910" stroke-width="0.5"/>
<path d="M191.191 135.7L191.467 136.313H191.911L192.132 135.533L191.191 135.7Z" fill="#1750B1" stroke="#060910" stroke-width="0.5"/>
<path d="M82.702 105.105L82.3164 105.461L82.6036 106.042L83.1485 105.882L82.702 105.105Z" fill="#1750B1" stroke="#060910" stroke-width="0.5"/>
<path d="M153.848 74.9453L153.139 75.6572L153.074 76.3032L153.652 76.659L153.877 76.627L154.005 75.6862L153.848 74.9453Z" fill="#1750B1" stroke="#060910" stroke-width="0.5"/>
<path d="M80.7129 102.688L80.168 102.912L80.3605 103.395L81 102.977L80.8727 102.847L80.7129 102.688Z" fill="#1750B1" stroke="#060910" stroke-width="0.5"/>
<path d="M156.961 120.571L156.917 121.475L154.867 121.431L153.613 123.853L156.562 127.073L157.291 126.463L157.27 125.831L156.768 125.599V125.155L157.899 124.44L158.902 125.199L160.011 125.221L159.989 121.413L158.233 121.331L158.211 120.531L156.961 120.571Z" fill="#1750B1" stroke="#060910" stroke-width="0.5"/>
<path d="M142.324 53.9315L141.659 54.9374L141.924 55.3402H143.458V56.0122L143.058 56.549L143.323 57.9577L144.189 59.6352L144.853 61.1775L145.918 61.5803L146.383 62.3867L146.318 63.1238L145.653 63.5266L145.587 63.8605L146.052 64.1293L145.652 64.6665L144.718 65.0693L142.919 64.8689L140.117 66.1436L139.184 65.6753L141.851 64.1322L141.517 63.9319L140.117 63.7975L140.983 62.5236L141.117 61.4484L142.25 61.3144L142.051 59.2341L140.716 59.169L140.317 58.7007L140.382 57.1576L139.583 57.2231L140.382 54.5401L141.85 53.4648L142.324 53.9315Z" fill="#1B4397" stroke="#060910" stroke-width="0.5"/>
<path d="M139.527 58.4297L138.327 58.5641L138.262 59.6393L139.061 60.1761L139.926 59.9766L140.261 59.3734L139.527 58.4297Z" fill="#1750B1" stroke="#060910" stroke-width="0.5"/>
<path d="M182.062 73.9296L183.251 75.4799L184.734 76.1624L185.646 76.1582L187.213 75.734L187.606 75.1204L182.972 73.3887L182.062 73.9296Z" fill="#1750B1" stroke="#060910" stroke-width="0.5"/>
<path d="M141.676 114.915L142.083 115.869L143.144 117.532L143.733 117.51L145.338 116.599L145.226 111.41L143.982 111.047L142.241 111.094L141.676 114.915Z" fill="#1750B1" stroke="#060910" stroke-width="0.5"/>
<path d="M96.8968 17.9851L96.4023 18.7734L97.2929 19.6626L96.8968 20.5522L98.1834 22.2297L99.7647 21.7357L101.84 21.54L104.213 24.1067L105.794 28.3505L104.512 31.0154L106.289 30.718L107.279 31.3098L107.376 32.5951L105.203 32.6929L106.388 33.8761L107.871 34.1739L104.61 38.5163L104.214 41.1813L104.905 43.3523L104.411 44.6375L105.301 47.4004L106.98 49.2774L107.475 49.1799L108.561 48.8821L108.659 50.4614L109.349 51.4492L110.633 51.3509L111.622 47.699L114.587 44.0462L119.036 42.2708L121.802 38.8145L123.085 39.4059H125.752L127.926 37.2353L130.594 36.15L130.892 34.4725L129.213 32.9911L127.731 32.4976L126.938 30.424L128.817 29.3387L131.783 30.918L132.772 29.8327L131.191 28.9435L134.553 24.402L133.96 22.4271L132.379 22.3296L132.971 20.5538L134.949 19.6643L139 16.1106L137.816 14.8283L133.27 15.2235L130.896 17.5949L132.282 14.5343L130.7 14.1386L129.81 15.7183L128.527 14.6326L124.968 15.0278L125.957 13.4485L131.787 13.2524L130.304 11.2775L123.981 10.0944L121.412 10.4896L121.509 11.7752L118.842 10.8857L118.939 9.99609L117.06 10.3913L116.664 11.3796L118.641 12.0692L116.566 13.5506L115.083 11.8731L113.007 11.2817L112.709 12.861H110.634L109.841 11.1835L106.581 10.6895L104.803 11.5787L104.705 12.7623L102.434 12.4645L101.049 13.0563L101.147 14.4394V15.1299L98.5778 15.6238L97.3929 14.8354L96.6004 16.1173L97.7856 17.4025L100.257 17.1047L100.453 17.8964L98.5744 18.786L96.8968 17.9851Z" fill="#1750B1" stroke="#060910" stroke-width="0.5"/>
<path d="M104.805 33.3867L105.398 34.2767L105.1 35.362H104.507L103.715 34.472L103.911 33.7819L104.805 33.3867Z" fill="#1750B1" stroke="#060910" stroke-width="0.5"/>
<path d="M129.511 30.918L131.19 31.4119L131.091 32.795L129.314 31.9054L128.918 31.4115L129.511 30.918Z" fill="#1750B1" stroke="#060910" stroke-width="0.5"/>
<path d="M128.066 108.123L128.02 108.526L130.534 108.49L130.662 108.115L130.607 107.738L129.883 108.032L128.066 108.123Z" fill="#1750B1" stroke="#060910" stroke-width="0.5"/>
<path d="M129.348 111.607L130.453 113.306L131.892 112.057L133.368 111.992L134.597 113.622L135.64 114.309L136.032 113.546L136.381 113.35L136.355 111.673L135.662 109.684L133.532 109.92L130.897 109.709L130.883 110.384L129.348 111.607Z" fill="#1750B1" stroke="#060910" stroke-width="0.5"/>
<path d="M153.491 118.675L153.324 119.39L153.825 119.663L154.306 119.304L154.139 118.566L153.491 118.675Z" fill="#1750B1" stroke="#060910" stroke-width="0.5"/>
<path d="M154.999 120.592L154.977 121.097L156.626 121.18L156.605 120.61L154.999 120.592Z" fill="#1750B1" stroke="#060910" stroke-width="0.5"/>
<path d="M164.345 78.8078L164.305 79.2908L165.988 80.1367L166.791 80.445L166.37 80.8881L165.432 80.9834L165.298 81.4076L165.622 82.1376L166.672 82.6962L167.131 82.7365L167.189 81.4845L167.876 80.6562L166.001 78.442L166.248 77.6906L166.688 77.6725L167.357 78.2097L167.779 77.9993L167.913 77.2474L169.482 77.4717L169.959 76.1113L169.137 76.6888L166.728 76.63L165.161 77.4402L164.345 78.8078Z" fill="#1750B1" stroke="#060910" stroke-width="0.5"/>
<path d="M167.996 83.5234L168.588 83.5415L168.835 83.9082H169.697L170.27 83.6977L170.463 83.93L170.082 84.4307L168.399 84.489L168.093 84.0863L167.77 83.8939L167.996 83.5234Z" fill="#1750B1" stroke="#060910" stroke-width="0.5"/>
<path d="M51.0117 105.646L53.167 107.222L55.3403 104.524L54.9699 103.965L54.2282 103.939V102.359L53.6724 102.021L51.9897 102.522L52.633 104.003L51.0117 105.646Z" fill="#1750B1" stroke="#060910" stroke-width="0.5"/>
<path d="M128.688 110.369L129.197 111.375L130.625 110.148L130.639 109.771L128.956 109.527L128.688 110.369Z" fill="#1750B1" stroke="#060910" stroke-width="0.5"/>
<path d="M83.7828 113.854L86.4069 116.227L85.3637 117.433L85.2801 118.148L86.6503 119.56L86.6175 120.918L84.2336 121.825L82.8053 119.897L83.1105 117.581L82.5 115.857L83.7828 113.854Z" fill="#1750B1" stroke="#060910" stroke-width="0.5"/>
<path d="M55.6163 104.651L58.9744 104.523L59.9705 105.707L59.3491 105.565L58.1533 105.615L56.5905 107.082L55.9219 108.567L55.4821 108.334L55.4783 106.708L54.5117 106.062L55.6163 104.651Z" fill="#1750B1" stroke="#060910" stroke-width="0.5"/>
<path d="M160.315 70.6621L159.032 71.7184H157.731L157.574 72.6332L158.17 72.7895L158.469 72.3463L158.937 72.7567L159.312 74.0638L161.88 75.262L162.134 74.9718L159.529 72.2854L159.794 71.7957L162.27 71.7008L162.52 70.9128L160.907 70.9595L160.315 70.6621Z" fill="#1B4397" stroke="#060910" stroke-width="0.5"/>
<path d="M71.3559 99.7871L72.6064 99.9177L72.4575 101.45L72.3339 102.256L70.8766 102.176L70.6184 102.565L70.1715 102.533L70.0117 101.694L71.5489 101.566L71.4543 100.696L70.7492 100.405L71.3559 99.7871Z" fill="#1750B1" stroke="#060910" stroke-width="0.5"/>
<path d="M160.722 68.6436L160.301 69.3043L160.334 70.3136L161.006 70.658L163.074 70.7197L165.956 68.2946L165.97 67.7574L165.658 67.6016L163.576 68.5457L160.722 68.6436Z" fill="#1750B1" stroke="#060910" stroke-width="0.5"/>
<path d="M242.765 115.104L242.664 115.931L245.132 120.073H245.851L250.993 128.667L253.051 128.874L254.079 125.872L252.432 124.837L252.124 123.182L242.765 115.104Z" fill="#1750B1" stroke="#060910" stroke-width="0.5"/>
<path d="M267.133 126.554L267.954 127.56L267.42 129.071V129.358H268.634L269.063 125.583L269.456 125.692L270.168 129.141L270.847 129.323L271.49 127.848L270.847 125.619L270.313 124.648L271.992 123.426L271.599 122.885L269.993 123.926H269.563L268.779 122.776L269.03 122.271L270.353 121.625L272.352 122.235L272.959 122.198L274.459 120.797L273.853 120.188L272.46 121.265H271.566L270.21 120.619L269.247 120.655L268.175 122.38L267.496 125.364L267.133 126.554Z" fill="#1750B1" stroke="#060910" stroke-width="0.5"/>
<path d="M276.097 119.799L275.418 121.452L276.49 122.853H276.847L277.311 121.919L277.562 121.596L277.098 121.092L276.418 120.841L276.097 119.799Z" fill="#1750B1" stroke="#060910" stroke-width="0.5"/>
<path d="M278.206 125.227L276.742 125.55L276.312 126.018L276.669 126.629L277.632 126.269L278.238 125.91L279.132 126.629L279.525 126.306L278.813 125.442L278.206 125.227Z" fill="#1750B1" stroke="#060910" stroke-width="0.5"/>
<path d="M253.917 129.898L252.918 130.581L253.132 131.154L256.313 131.873L257.919 132.16L258.598 132.879L260.419 133.024L261.277 133.743L262.062 133.561L262.777 132.915L261.454 132.305L260.313 131.336L257.347 130.616L253.917 129.898Z" fill="#1750B1" stroke="#060910" stroke-width="0.5"/>
<path d="M264.315 133.023L263.531 133.456L263.995 133.96L265.137 133.529L264.315 133.023Z" fill="#1750B1" stroke="#060910" stroke-width="0.5"/>
<path d="M265.668 132.7L265.81 133.383L266.632 133.597L266.952 133.201L266.595 132.66L265.668 132.7Z" fill="#1750B1" stroke="#060910" stroke-width="0.5"/>
<path d="M267.636 134.498L266.637 134.644L267.531 135.399H268.243L267.636 134.498Z" fill="#1750B1" stroke="#060910" stroke-width="0.5"/>
<path d="M267.918 133.311L267.703 133.742L269.31 133.992L270.56 133.274L269.848 133.059L268.706 133.383L268.277 133.023L267.918 133.311Z" fill="#1750B1" stroke="#060910" stroke-width="0.5"/>
<path d="M273.169 133.564L271.312 135.111L271.49 135.507L272.275 135.362L273.202 134.497L275.023 134.247L274.667 133.637L273.169 133.564Z" fill="#1750B1" stroke="#060910" stroke-width="0.5"/>
<path d="M282.543 123.008L281.028 123.178L280.055 123.889L280.458 124.703L282.108 125.008V125.314L281.065 126.16L281.57 127.921L282.075 127.953L282.511 126.225H283.318L283.657 127.916L287.593 131.17L287.694 133.711L289.039 135.167L289.645 135.135L289.779 126.16L287.493 124.57L285.338 126.026L284.563 126.502L283.284 125.688L283.251 123.115L282.543 123.008Z" fill="#1750B1" stroke="#060910" stroke-width="0.5"/>
<path d="M264.281 117.584L263.441 120.735L258.887 122.271L257.525 120.673L256.863 120.855L258.099 125.618L259.948 125.825L262.416 126.758V127.691L263.546 127.484L265.193 125.208V123.345L266.119 121.482L267.147 121.689L265.912 119.1L265.723 117.434L264.281 117.584Z" fill="#125DCB" stroke="#060910" stroke-width="0.5"/>
<path d="M139.922 60.2746L139.591 62.4532L136.658 63.5284H135.724L135.059 63.0601V62.6569L136.527 61.717L136.127 60.9105L136.193 59.7706L137.462 59.8357L138.043 58.4707L137.966 59.6833L138.952 60.4636L139.922 60.2746Z" fill="#1750B1" stroke="#060910" stroke-width="0.5"/>
<path d="M178.379 86.2363L177.805 88.0625L178.549 90.252L179.403 87.0532V86.3674L178.379 86.2363Z" fill="#1750B1" stroke="#060910" stroke-width="0.5"/>
<path d="M224.049 113.448L225.713 112.634L226.702 109.062L226.658 104.677L232.321 98.5696V97.1219L233.487 96.6678L233.443 94.9945L232.186 92.5513L232.906 91.2405L234.479 92.6891L236.501 92.7798V93.5938L235.872 94.2725L236.006 94.635L237.085 94.6787L237.31 95.8984H237.627L238.437 94.4498L238.84 90.6521L240.188 89.7008L240.232 88.3903L239.694 87.3483L238.84 87.3046L235.497 89.5122L235.708 90.9318L233.36 90.9238L232.531 89.9116L232.081 89.9696L232.233 91.3783L227.156 91.0158L224.009 89.6142L223.842 87.8897L221.745 86.5902L221.72 83.9143L220.281 82.2695L216.973 82.5854L217.332 84.0235L218.953 85.3339L216.151 91.0633L214.275 91.2048L213.967 91.8953L215.813 93.6014L215.722 95.3255L213.836 95.2965L213.633 96.1533L215.2 96.0844L215.244 96.7632L214.121 97.3512L214.84 98.7087L216.232 99.1623L217.086 98.5306L217.49 97.4016L217.985 97.1769L218.57 97.7641L218.392 99.2127L217.988 99.8918L218.079 101.068L224.049 113.448Z" fill="#1750B1" stroke="#060910" stroke-width="0.5"/>
<path d="M185.278 81.5065L184.712 84.3054L182.363 86.2584L182.512 87.1804L184.806 87.3362L188.459 90.3056L190.501 90.2477L190.555 89.5614L191.304 88.7592L192.351 89.351L192.489 89.2199L190.465 86.5298L189.505 86.4714L188.23 84.8342L188.484 83.6296L188.873 83.5788L189.007 83.0449L187.27 81.2188L185.278 81.5065Z" fill="#125DCB" stroke="#060910" stroke-width="0.5"/>
<path d="M187.222 78.9349L186.777 79.396L186.821 80.126L187.374 80.8997L189.332 83.0421L189.034 83.8989H188.693L188.522 84.7558L189.631 86.1716L190.652 86.2585L192.698 89.086L193.846 89.1734L194.74 89.8156L194.784 91.1017L198.321 93.1597H199.64L200.451 92.4734L201.472 92.4297L202.068 93.8023L205.888 94.3324L206.002 92.9308L207.266 92.4734L207.325 91.9723L206.318 90.5998L204.075 88.7992L205.253 87.7282L205.169 87.2561L203.693 87.0276L203.068 82.0534L202.996 80.9097L198.994 79.3805L197.22 79.7799L196.228 80.9963L195.348 80.9379L195.094 81.1525L193.135 81.0252L190.664 79.2242L189.744 78.2188L189.322 78.3195L188.562 79.1873L187.222 78.9349Z" fill="#1750B1" stroke="#060910" stroke-width="0.5"/>
<path d="M127.876 42.3969L127.164 41.9941L126.204 42.6002L125.379 43.3621L125.401 43.7876L126.469 43.9216L126.404 44.6839L126.026 45.0652L126.117 45.3122L127.186 45.3811V46.6151L128.723 46.8843L129.635 47.4005L130.66 47.4442L132.42 46.5693L133.778 44.7754L133.801 43.5629L132.975 42.8657L132.285 42.281L131.972 42.5061L131.504 43.1122L130.969 43.0433L130.435 42.4582L129.744 42.5238L128.741 43.355L128.137 44.0047L127.803 43.7149L127.781 42.9959L128.115 42.7707L127.876 42.3969Z" fill="#1750B1" stroke="#060910" stroke-width="0.5"/>
<path d="M151.827 71.3235L151.602 71.893L151.663 72.5138L152.531 73.5269L153.898 73.4794L156.914 76.9797L158.798 77.5245L159.91 78.5737L160.176 80.9656L160.771 80.6179L161.288 79.3141L161.161 78.378L162.044 78.2982L162.172 77.7677L159.682 76.5774L157.319 74.2577L156.378 72.8704L156.149 71.5528L157.352 71.2655L157.044 70.3978L156.306 69.777L155.669 69.748L154.783 69.9916L153.946 71.1597L153.441 71.4936L152.66 71.0144L151.827 71.3235Z" fill="#1750B1" stroke="#060910" stroke-width="0.5"/>
<path d="M159.158 80.7772L158.631 80.4941L156.832 80.7772L156.893 81.2636L158.511 82.0772L158.754 82.3422L159.18 82.4039L159.158 80.7772Z" fill="#125DCB" stroke="#060910" stroke-width="0.5"/>
<path d="M153.748 77.2773L152.785 77.7637L152.913 79.6407L153.683 79.7713L154.261 79.2203V77.4416L153.748 77.2773Z" fill="#1750B1" stroke="#060910" stroke-width="0.5"/>
<path d="M67.0226 101.314L65.7578 101.634V101.987L66.4957 102.412H67.2698L67.7604 101.845L67.0226 101.314Z" fill="#1750B1" stroke="#060910" stroke-width="0.5"/>
<path d="M179.68 87.2242L178.786 90.3389L178.746 90.8148H180.153L181.727 89.4275L181.766 88.9012L181.123 88.2443L182.275 87.2901L182.108 86.4043L181.792 86.4769L180.833 87.1637L179.68 87.2242Z" fill="#1750B1" stroke="#060910" stroke-width="0.5"/>
<path d="M272.112 78.3789L271.52 78.9745L271.763 79.8128L272.283 79.8489L272.632 81.6684L273.049 82.122L273.78 81.4576L273.843 79.4529L273.002 78.5604L272.112 78.3789Z" fill="#1750B1" stroke="#060910" stroke-width="0.5"/>
<path d="M275.21 76.6973L274.092 77.6028L273.844 78.7448L274.606 79.2698L275.709 78.1148L275.865 76.8287L275.21 76.6973Z" fill="#1750B1" stroke="#060910" stroke-width="0.5"/>
<path d="M273.918 74.9528L272.145 76.9823V77.9575L273.239 77.8265L274.957 76.3178L276.105 76.107L276.384 76.4342L276.39 77.4325L276.68 77.9575H277.207L277.949 77.0512L278.261 75.86L279.754 75.8239L281.216 74.0741L280.453 71.1694L280.104 69.6304L280.867 69.0021L279.13 66.3808L278.733 66.0684L277.944 66.3808L277.742 67.4661V68.341L278.16 68.8312L278.298 71.1404L277.222 72.4693L276.597 72.0841L276.11 73.1694L276.004 74.1825L276.387 74.7781L276.143 75.2317L275.343 74.5672H274.788L274.301 74.847L273.918 74.9528Z" fill="#1750B1" stroke="#060910" stroke-width="0.5"/>
<path d="M276.91 59.1445L276.354 59.6351L276.634 60.6843L277.121 61.174L277.085 62.7826L276.46 63.0254L275.973 64.1107L277.397 66.0675L278.335 65.7517L278.509 65.2615L277.502 64.3539L278.127 63.5479L278.788 63.6529L280.23 64.621L280.386 63.5357L281.071 62.2845L282.03 61.3135L280.992 60.8409L280.595 60.0845L280.075 60.4331L279.625 60.9922L278.651 60.7817L277.644 60.1173L276.91 59.1445Z" fill="#1750B1" stroke="#060910" stroke-width="0.5"/>
<path d="M282.154 58.0586L281.18 59.4236L281.249 60.0881L281.736 59.8772L282.88 58.4433L282.154 58.0586Z" fill="#1750B1" stroke="#060910" stroke-width="0.5"/>
<path d="M283.442 56.0654L283.094 57.0096L283.13 57.6379L283.722 57.2523L284.278 56.1343V55.7168L283.442 56.0654Z" fill="#1750B1" stroke="#060910" stroke-width="0.5"/>
<path d="M180.38 118.352L181.347 120.236L180.187 122.665L180.035 123.401L185.825 126.978L187.621 124.161L186.712 123.424L186.694 119.713L187.831 118.472L186.018 119.074L184.648 119.093L182.503 117.285L181.827 116.994L180.574 117.11L180.353 117.481L180.38 118.352Z" fill="#1750B1" stroke="#060910" stroke-width="0.5"/>
<path d="M211.63 72.1311L211.517 73.0501L211.608 73.6171L214.771 74.6768L211.994 75.7948L211.678 75.5331L211.078 75.9183L211.107 76.1287L211.427 76.274L213.375 76.3249L214.364 76.0271L215.633 74.4298L217.221 74.7053L219.137 72.0546L214.012 71.3574L213.303 73.0744L212.409 72.1164L211.63 72.1311Z" fill="#1750B1" stroke="#060910" stroke-width="0.5"/>
<path d="M249.307 108.532L250.793 110.118L253.558 108.071L253.802 104.84L252.374 105.824L251.632 105.41L250.625 105.276L250.061 104.881L249.788 104.895L249.051 106.104L249.171 106.664L249.919 107.081L249.829 108.217L249.307 108.532Z" fill="#1750B1" stroke="#060910" stroke-width="0.5"/>
<path d="M190.145 134.586L190.311 135.141L191.03 135.254L191.306 134.531L190.145 134.586Z" fill="#1750B1" stroke="#060910" stroke-width="0.5"/>
<path d="M263.048 70.338L263.716 70.6178L263.92 72.9555L265.246 73.0324L266.497 71.5695L266.064 71.1848L266.115 69.6165L267.263 68.2292L266.678 67.1766L267.06 66.7402L267.27 65.6516L266.605 65.3496L266.038 65.6369L265.336 67.7638L264.202 67.6664L262.891 69.2128L263.048 70.338Z" fill="#1750B1" stroke="#060910" stroke-width="0.5"/>
<path d="M266.702 71.7656L268.948 73.5952L269.33 75.3676L269.253 76.3185L268.156 77.5529L267.211 77.6033L266.138 75.2908L265.731 74.1866L266.163 73.8526L266.062 73.3911L265.527 73.1521L266.702 71.7656Z" fill="#1750B1" stroke="#060910" stroke-width="0.5"/>
<path d="M192.178 89.5451L191.36 89.1016L190.793 89.6711L190.854 90.8114L192.174 91.3159L192.178 89.5451Z" fill="#1750B1" stroke="#060910" stroke-width="0.5"/>
<path d="M189.777 68.2875L191.267 67.652L192.932 67.5936L193.048 70.1351H192.074L191.329 71.3481L192.303 72.9638L193.738 73.7736L193.869 74.6997L194.397 74.525L194.883 73.9475L195.686 74.1222L196.09 74.932H197.122V73.8933L196.49 72.0453L196.202 70.5463L198.037 69.7361L200.505 70.1389L202.054 71.6967L205.553 71.3519L207.506 74.1226L209.799 74.2377L210.432 73.1995L211.235 73.0247L211.35 71.8706L212.553 71.8122L213.185 72.5636L213.818 71.0641L219.266 71.8155L220.182 70.603L218.634 68.6974L220.698 64.1953L222.362 64.3108L223.511 61.5413L221.217 61.3086L219.898 60.0385L216.263 60.4594L211.582 55.9392L209.931 57.4017L204.927 55.1328L198.788 58.135L198.617 60.2699L200.052 61.9437L197.254 63.5229L193.623 63.4431L192.863 62.3288L190.017 62.1722L187.321 63.9039L187.262 66.2719L189.777 68.2875Z" fill="#1750B1" stroke="#060910" stroke-width="0.5"/>
<path d="M247.489 95.2656L246.609 95.7117L245.879 97.839L247.1 99.3926L246.896 101.11L247.1 101.193L249.132 100.209L251.857 103.251L251.791 105.168L252.384 105.488L253.848 104.3L253.728 103.36L249.501 99.3485L249.541 98.7349L250.068 98.3682L249.701 97.3442L247.953 97.057L247.489 95.2656Z" fill="#125DCB" stroke="#060910" stroke-width="0.5"/>
<path d="M178.697 84.1973L178.72 84.9054L178.422 85.9806L179.447 86.068L179.513 84.5429L178.697 84.1973Z" fill="#125DCB" stroke="#060910" stroke-width="0.5"/>
<path d="M82.6683 106.557L82.4102 107.105L82.8281 107.555L83.373 107.265L82.6683 106.557Z" fill="#1750B1" stroke="#060910" stroke-width="0.5"/>
<path d="M227.524 111.648L227.615 112.635L227.706 113.354L227.172 113.445L227.441 115.061L228.244 115.511L229.491 114.792L229.135 113.089L229.225 112.462L228.067 111.387L227.524 111.648Z" fill="#1750B1" stroke="#060910" stroke-width="0.5"/>
<path d="M132.895 115.692L136.885 118.357L136.79 116.339L135.583 114.919L134.406 113.877L132.895 115.692Z" fill="#1750B1" stroke="#060910" stroke-width="0.5"/>
<path d="M171.87 154.248L172.979 153.395L173.502 153.417L174.134 154.204L174.069 154.993L173.004 155.385V155.691L171.83 155.625L171.547 154.772L171.87 154.248Z" fill="#1750B1" stroke="#060910" stroke-width="0.5"/>
<path d="M163.98 56.977L163.078 57.1295L163.151 57.98L164.561 58.085L165.095 58.5226L165.235 59.2829L165.67 59.8889L166.961 59.8343L168.196 58.2622L168.124 57.329L165.797 56.9648L163.98 56.977Z" fill="#1B4397" stroke="#060910" stroke-width="0.5"/>
<path d="M150.648 66.3623L150.968 66.6474L151.338 66.6823L151.42 65.954L151.313 65.5449L150.799 65.7898L150.648 66.3623Z" fill="#1750B1" stroke="#060910" stroke-width="0.5"/>
<path d="M168.472 54.7637L165.797 54.3281L165.341 55.5138L164.57 55.744L164.167 55.2513L163.762 54.4907L163.326 54.8107L163.078 56.1262V56.8435L164.021 56.686L165.982 56.7209L168.344 57.1594L169.29 56.8834L169.235 55.8234L168.472 54.7637Z" fill="#1750B1" stroke="#060910" stroke-width="0.5"/>
<path d="M154.654 89.8561L155.222 89.7616L155.389 88.4545H155.672L156.832 86.5527L159.693 87.3839L160.473 88.5965L163.286 89.8826L164.75 89.2651L164.608 88.6473L163.968 88.0303L164.041 87.6015L165.081 86.7224H167.139L167.919 87.7678L169.573 88.0072L169.788 101.401L168.559 101.354L161.138 97.4977L160.335 97.9518L157.285 97.1899L156.456 96.0966L155.25 95.9298L154.637 94.8366L154.654 89.8561Z" fill="#1B4397" stroke="#060910" stroke-width="0.5"/>
<path d="M143.112 84.1387H138.915L138.093 85.9611L136.199 86.8725L134.636 91.0986L131.59 92.9219L127.312 99.9616L131.51 99.8781L131.673 97.8087H132.742V94.9913H136.446L136.528 91.346L140.069 90.5178L141.551 88.114L143.855 88.0309L143.112 84.1387Z" fill="#1750B1" stroke="#060910" stroke-width="0.5"/>
<path d="M169.449 67.9568L170.576 69.6885L170.481 70.6688L170.885 70.6869L171.84 69.0711L170.692 67.6477L170.042 67.3789L169.449 67.9568Z" fill="#1750B1" stroke="#060910" stroke-width="0.5"/>
<path d="M162.946 74.3828L162.414 75.1342L162.566 75.5958L163.199 75.7113L163.696 75.0363L162.946 74.3828Z" fill="#1750B1" stroke="#060910" stroke-width="0.5"/>
<path d="M195.453 135.199L194.678 137.036L193.352 139.374L191.03 139.541L190.034 140.709L190.201 144.274L188.762 145.945L188.928 148.784L190.146 150.175L191.585 150.009L193.025 148.949L192.694 147.278L196.013 141.542L195.348 140.82L196.013 139.429L196.732 139.65L196.953 139.094L196.288 136.255L195.9 135.086L195.453 135.199Z" fill="#1750B1" stroke="#060910" stroke-width="0.5"/>
<path d="M165.877 75.3262L164.652 75.729L164.711 76.7676L164.998 77.1343L166.452 76.4598L165.877 75.3262Z" fill="#1750B1" stroke="#060910" stroke-width="0.5"/>
<path d="M132.633 107.215L133.752 106.449L139.974 106.413L138.535 96.4142L140.178 96.3672L148.126 102.427L149.194 102.579L148.791 105.948L143.793 106.402L139.937 109.277L139.236 111.246L136.557 111.359L135.874 109.394L133.821 109.539L133.9 108.897L132.633 107.215Z" fill="#1750B1" stroke="#060910" stroke-width="0.5"/>
<path d="M245.297 110.05L244.29 108.438L245.02 107.414L244.33 106.146L243.679 106.023L243.555 103.896L242.581 102.012L242.297 102.461L241.647 103.565L240.833 103.689L240.426 103.155L240.222 101.721L239.611 100.574L237.125 98.2323L237.736 97.8295L237.849 96.1339L238.758 94.6089L239.151 90.8154L240.466 89.9182L240.51 88.5352L241.299 88.7964L242.542 90.5936L241.619 92.5681L242.241 94.1183L243.778 94.721L244.058 96.4099L246.122 96.7295L245.552 97.7136L242.95 98.7376L242.667 100.415L244.578 102.869L244.658 104.18L244.211 104.63L244.251 105.04L245.676 107.128L245.716 109.295L245.297 110.05Z" fill="#1750B1" stroke="#060910" stroke-width="0.5"/>
<path d="M225.074 61.5884L227.189 58.7857L229.73 59.9584L231.456 60.4196L233.571 58.4812L232.135 57.4241L233.081 56.0918L235.901 57.0868L236.878 58.6879L238.644 58.7349L239.567 58.0486L241.468 57.9722L241.882 58.6769L245.04 58.8366L247.039 56.7999L249.805 57.0897L249.645 59.8635L250.856 60.139L252.342 59.4645L253.916 60.2415L253.879 60.6342L252.738 60.6669L251.549 63.1576L250.626 63.2483L247.035 67.9356L243.368 69.5514L241.074 69.7295L239.17 68.5018L236.735 69.8017L234.336 69.0579L233.657 67.3186L229.114 66.9986L226.788 63.0602L225.657 62.9871L225.074 61.5884Z" fill="#1750B1" stroke="#060910" stroke-width="0.5"/>
<path d="M127.344 100.252L128.136 101.286L127.973 105.759L129.125 104.931L129.946 104.764L131.098 105.178L132.413 107.001L133.649 106.173L139.656 106.089L138.174 96.0655L139.766 96.058L136.8 93.7891L136.804 95.2633L133.049 95.2675L133.031 98.0807L131.952 98.0769L131.814 100.153L127.344 100.252Z" fill="#1750B1" stroke="#060910" stroke-width="0.5"/>
<path d="M159.22 83.4824L158.613 83.6059L158.635 84.2779L159.18 84.4598L159.424 84.2565L159.22 83.4824Z" fill="#1750B1" stroke="#060910" stroke-width="0.5"/>
<path d="M202.981 144.664L202.43 145.387L202.539 146.167L203.702 145.219L202.981 144.664Z" fill="#1750B1" stroke="#060910" stroke-width="0.5"/>
<path d="M218.75 116.262L218.859 117.209L219.466 117.431L219.575 116.595L218.75 116.262Z" fill="#1750B1" stroke="#060910" stroke-width="0.5"/>
<path d="M219.523 118.266L219.469 119.435L219.912 119.655L220.301 118.876L219.523 118.266Z" fill="#1750B1" stroke="#060910" stroke-width="0.5"/>
<path d="M219.639 120.549L219.25 120.937L219.694 121.326L220.246 120.937L219.639 120.549Z" fill="#1750B1" stroke="#060910" stroke-width="0.5"/>
<path d="M179.047 137.552L180.177 138.732L180.155 140.243L180.373 140.879L181.875 139.259L181.7 137.202L180.897 136.589L180.181 132.975L178.941 132.932L179.505 135.534L179.047 137.552Z" fill="#1750B1" stroke="#060910" stroke-width="0.5"/>
<path d="M30.1523 81.6519L31.9078 87.1733L31.09 87.6307L31.1808 88.7269L32.7255 89.9143V92.1105L34.6336 93.9401L33.8158 88.5442L32.7255 84.9754L32.998 82.507L33.9066 82.5981L34.2703 83.4222L33.9066 85.5243L38.6313 94.7603V98.0536L42.4478 102.533L46.6271 104.454L48.3535 103.448L50.8068 105.459L52.2608 103.996L51.6246 102.348L53.7143 101.709L54.3505 102.076L54.9866 101.437H55.986L57.8032 98.2346L56.8946 97.4106L53.351 98.2346L52.5332 100.613L50.4432 100.98L47.9902 99.9735L46.9 96.4996L47.7249 92.1172L46.0385 91.068L45.2354 86.8596L44.5631 86.5727L43.3345 87.818L41.9243 87.0666L41.3722 84.2601L35.786 83.6751L32.9004 81.5078L30.1523 81.6519Z" fill="#125DCB" stroke="#060910" stroke-width="0.5"/>
<path d="M246.484 114.334L247.214 115.971L247.379 118.098L248.356 119.612L250.498 120.906L250.919 120.574L251.534 120.453L251.445 119.651L250.671 117.77L249.537 115.363L249.442 115.784L248.075 115.723L247.094 114.314L246.484 114.334Z" fill="#1750B1" stroke="#060910" stroke-width="0.5"/>
<path d="M257.906 120.676L259.004 121.943L263.213 120.487L264.045 117.277L265.921 117.143L267.636 115.901L265.412 114.283L264.903 113.393L263.805 115.415L264.208 116.577L263.54 117.547L262.279 117.223L259.222 119.463L259.301 120.759L257.906 120.676Z" fill="#1750B1" stroke="#060910" stroke-width="0.5"/>
<path d="M176.871 149.851L177.849 150.661L180.153 149.26L180.523 147.18V143.745L184.22 140.725L184.853 140.747L187.091 138.602L186.742 134.18L180.936 134.912L181.154 136.314L182.003 137.052L182.243 139.459L180.243 141.408L179.764 140.315L179.851 138.87L178.699 137.622L175.871 138.936L178.502 140.273L178.59 144.168L176.849 146.749L176.871 149.851Z" fill="#1750B1" stroke="#060910" stroke-width="0.5"/>
<path d="M160.654 153.004L161.872 153.091L162.588 153.814L164.285 153.835L164.699 149.021V145.87L165.786 145.652L166.2 142.347L168.962 142.261L169.939 141.451L168.285 141.386L166.047 141.691L163.634 140.816H156.852L157.026 142.74L159.286 146.066L158.894 147.772L158.916 148.669L160.654 153.004Z" fill="#1750B1" stroke="#060910" stroke-width="0.5"/>
<path d="M147.69 109.452L148.617 109.43L149.453 108.178L150.856 107.927L152.349 108.838L155.536 108.929L158.001 107.927L158.927 107.131L158.996 106.086L160.715 104.354L161.169 100.531L160.039 98.1633L157.146 97.459L150.451 102.673L149.503 102.581L149.095 106.201L145.68 106.542L147.69 109.452Z" fill="#1750B1" stroke="#060910" stroke-width="0.5"/>
<path d="M147.938 115.758L149.362 115.827L151.081 117.741L151.917 117.969L152.572 117.65L153.567 117.512L153.905 116.125L155.261 115.235L156.73 115.167L159.419 110.225L159.375 109.111L158.133 108.156L155.647 109.25L152.321 109.203L150.736 108.201L149.606 108.451L149.017 109.475L148.974 112.365L148.025 113.708L147.938 115.758Z" fill="#1750B1" stroke="#060910" stroke-width="0.5"/>
<path d="M59.3221 105.859L60.118 106.019L60.1437 107.649L59.217 110.293L56.7203 110.046L56.1641 108.771L56.9057 107.225L58.3122 105.918L59.3221 105.859Z" fill="#1750B1" stroke="#060910" stroke-width="0.5"/>
<path d="M151.036 60.8984L149.39 61.7082L149.738 62.0241L149.775 62.8338L149.427 62.765L149.041 62.166L148.121 63.6222L149.535 63.9158L150.062 64.4715L150.342 64.4786L150.527 63.2228L151.417 62.8485L151.036 60.8984Z" fill="#1750B1" stroke="#060910" stroke-width="0.5"/>
<path d="M167.525 36.89L168.26 36.3528L168.194 35.7501L167.729 35.4808L167.795 34.7441H168.194V34.3409L166.461 33.873L163.862 34.1418L163.597 35.2817L162.996 35.0814L162.596 34.4098L161.328 34.4749L161.193 35.7488L160.594 36.018L160.26 35.346L157.592 37.4918L158.126 38.095L157.126 38.5633L154.859 43.0578L154.059 43.595L154.125 43.9978L154.923 44.4005L154.724 45.2716L153.39 45.2028L152.989 44.7345L152.125 45.7404L151.59 46.1432L151.456 47.084L150.991 47.3528L149.791 47.6216L149.191 49.5028L149.591 52.589L150.056 53.9977L150.591 54.5349L151.79 54.4694L153.524 52.7919L154.189 51.6524L154.39 53.3291L155.524 51.3177L155.589 45.6795L156.512 45.0986L156.788 41.9872L159.586 37.961L160.92 37.4927L161.52 36.7556L163.519 37.2239L164.518 37.8266L164.853 36.1499L166.521 35.1436L167.525 36.89Z" fill="#125DCB" stroke="#060910" stroke-width="0.5"/>
<path d="M157.641 19.3976L157.041 18.7949L155.711 19.4413H153.268L152.883 20.8647L154.254 22.0735L154.853 21.9861L155.71 20.5199L156.437 21.0386L155.921 22.0735L155.662 23.5839L156.262 24.5314L157.549 22.3747L159.222 20.3452L158.578 19.7866L157.641 19.3976Z" fill="#1750B1" stroke="#060910" stroke-width="0.5"/>
<path d="M158.365 16.8092L157.293 17.8L157.936 18.7908H159.092L159.564 19.4371L160.978 20.1705L162.606 19.2229L163.722 18.2754L163.337 17.4984L162.221 16.852L161.406 17.5853L160.85 16.8948L160.421 16.9385L159.865 18.1473L159.051 17.3266L158.964 16.7676L158.365 16.8092Z" fill="#1750B1" stroke="#060910" stroke-width="0.5"/>
<path d="M160.807 21.252L159.95 22.0294L159.223 22.5888L159.564 23.1916L160.252 23.4062L161.367 22.887L161.884 22.2407L161.411 21.4636L160.807 21.252Z" fill="#1750B1" stroke="#060910" stroke-width="0.5"/>
<path d="M224.125 87.8697L224.292 89.42L227.228 90.748L231.934 91.0966L231.756 89.9605L228.612 89.0961L225.944 87.5098L224.125 87.8697Z" fill="#125DCB" stroke="#060910" stroke-width="0.5"/>
<path d="M197.664 101.769L200.35 100.222L200.826 97.9529L200.238 97.6152L200.482 95.1825L200.994 94.8848L201.543 95.7454L204.811 97.4514V98.3998L200.853 104.219L199.032 104.28L197.664 101.769Z" fill="#1750B1" stroke="#060910" stroke-width="0.5"/>
<path d="M60.3548 112.214L59.8242 113.869L61.5763 114.322L62.6627 114.537L62.8481 113.255L64.0149 112.667L65.0505 113.201L65.4575 113.851L65.9515 113.793L66.3405 112.613L65.0463 112.079L64.0649 111.545L63.084 112.213L61.9173 112.801L60.7253 112.322L60.3548 112.214Z" fill="#1750B1" stroke="#060910" stroke-width="0.5"/>
<path d="M61.9707 126.704L61.2656 127.416L61.3131 128.551L67.4699 139.763L73.8629 143.88L74.8514 142.225L75.0877 138.584L74.5714 136.315L72.8303 133.381L71.7947 133.711L71.3259 134.231L69.2581 131.863L69.7744 129.072L72.1731 127.51L71.9843 126.044L69.5419 125.949L68.2734 123.822L67.5683 123.586L67.6158 124.864L64.4682 128.6L62.1166 128.034L61.9707 126.704Z" fill="#1750B1" stroke="#060910" stroke-width="0.5"/>
<path d="M290.115 126.256L289.98 135.129L291.26 135.06L292.943 133.096L294.356 133.165L295.265 133.979L295.567 136.483L298.46 138.009L299.201 137.736V136.821L296.879 134.89L295.734 132.246L296.643 131.807L295.97 130.351L294.626 130.318L294.287 128.76L290.722 126.357L290.115 126.256Z" fill="#1750B1" stroke="#060910" stroke-width="0.5"/>
<path d="M267.075 107.828L266.763 108.424L266.589 109.157L264.852 111.36L264.957 111.814L265.687 111.709L267.944 109.189L267.075 107.828Z" fill="#1750B1" stroke="#060910" stroke-width="0.5"/>
<path d="M269.889 106.99L269.852 108.809L270.513 109.474L270.756 110.766L271.418 110.908L271.73 110.102L271.21 109.717L271.072 107.444L269.889 106.99Z" fill="#1750B1" stroke="#060910" stroke-width="0.5"/>
<path d="M271.767 107.691L271.73 109.3L272.112 109.928L272.773 109.158L272.599 107.76L271.767 107.691Z" fill="#1750B1" stroke="#060910" stroke-width="0.5"/>
<path d="M272.18 106.29L272.841 107.164L273.153 108.003H273.745L273.64 106.569L272.979 106.115L272.18 106.29Z" fill="#1750B1" stroke="#060910" stroke-width="0.5"/>
<path d="M273.468 109.578L273.606 110.627L272.388 111.608L271.381 111.713L270.305 112.868L270.341 113.393L271.349 113.078L272.043 112.624L272.635 114.127L273.678 114.861L274.096 114.719L274.477 114.265L273.645 113.427L274.132 113.042L274.688 113.496L275.069 112.868L274.688 112.098L274.619 110.384L273.468 109.578Z" fill="#1750B1" stroke="#060910" stroke-width="0.5"/>
<path d="M267.804 98.9121L266.867 99.5762L266.762 101.675L268.224 104.507L268.711 104.891L269.335 104.47L270.411 104.644L270.618 105.588L271.417 105.657L271.799 105.134L271.312 104.47L270.72 103.911L269.469 103.773L268.808 102.688L269.572 101.533L269.64 100.52L269.12 99.228L267.804 98.9121Z" fill="#1750B1" stroke="#060910" stroke-width="0.5"/>
<path d="M268.293 105.172L268.569 106.153L269.056 106.468L269.405 106.014L268.849 105.245L268.293 105.172Z" fill="#1750B1" stroke="#060910" stroke-width="0.5"/>
<path d="M206.659 90.5132L207.604 91.9148L207.513 92.6372L206.255 93.1353L206.164 94.3118H207.604L208.098 93.9048H210.839L213.31 96.0762L213.626 95.0342H215.469L215.513 93.7238L213.627 91.9156L214.03 90.9206L215.964 90.7871L218.57 85.3589L217.13 84.2299L216.593 82.331L220.096 82.0152L218.029 79.0751L216.927 78.7773L216.477 79.3221L216.139 79.3477L214.071 80.6581L214.747 81.7905L213.984 82.604L213.038 86.0859L210.701 87.5782L210.385 89.2087L206.659 90.5132Z" fill="#1750B1" stroke="#060910" stroke-width="0.5"/>
<path d="M166.073 63.2559L166.381 63.8221L166.455 64.4248L166.201 65.0094L165.619 66.1283L165.129 66.3492L164.492 66.0733L164.11 66.0914L163.183 66.44L162.13 66.1283L160.422 64.9191L158.749 64.0224L158.077 62.9984L157.949 60.5834L159.258 59.4472L160.966 58.8802L161.524 58.8223L161.656 59.2452L162.382 59.5359L164.386 59.5737L165.004 59.5556L166.022 61.113L165.768 61.7518L165.877 62.5032L166.073 63.2559Z" fill="#125DCB" stroke="#060910" stroke-width="0.5"/>
<path d="M78.695 101.849L77.7355 101.525L76.9648 102.008L77.3504 102.458L78.6626 102.65L78.695 101.849Z" fill="#1750B1" stroke="#060910" stroke-width="0.5"/>
<path d="M136.806 76.5L136.581 79.6408L135.938 80.2221L136.003 80.5774L136.453 81.3217L136.163 82.2289L136.646 82.3927L137.773 82.2617L137.708 81.3544L138.446 77.146L138.285 76.5651L136.806 76.5Z" fill="#1750B1" stroke="#060910" stroke-width="0.5"/>
<path d="M128.537 85.6406L128.145 86.1383L128.537 86.636L129.129 86.3383L128.537 85.6406Z" fill="#1750B1" stroke="#060910" stroke-width="0.5"/>
<path d="M115.619 78.5996L115.125 79.0969L116.011 79.5946L116.109 78.902L115.619 78.5996Z" fill="#1750B1" stroke="#060910" stroke-width="0.5"/>
<path d="M118.283 78.3008L117.691 78.696L118.185 79.0912L118.974 78.8913L118.283 78.3008Z" fill="#1750B1" stroke="#060910" stroke-width="0.5"/>
<path d="M118.677 79.6914L118.383 80.4861L118.776 80.9838L119.27 80.5886L118.677 79.6914Z" fill="#1750B1" stroke="#060910" stroke-width="0.5"/>
<path d="M121.044 81.2773L120.848 81.7746L121.142 82.0724L121.931 81.5751L121.044 81.2773Z" fill="#1750B1" stroke="#060910" stroke-width="0.5"/>
<path d="M86.2235 144.854L87.0232 145.725L86.9286 147.569L89.2327 147.427L90.9738 149.653L90.8321 151.639L89.7049 153.342L87.4012 153.436L87.3066 152.489L87.9642 150.927L85.7072 149.508H83.8282L82.418 147.994L83.443 145.067L86.2235 144.854Z" fill="#1750B1" stroke="#060910" stroke-width="0.5"/>
<path d="M195.572 93.8463L195.383 95.3024L195.942 95.7275L196.451 95.6804L196.64 93.8471L196.2 93.5312L195.572 93.8463Z" fill="#1750B1" stroke="#060910" stroke-width="0.5"/>
<path d="M166.332 67.916L166.237 68.4532L164.133 70.203L165.892 72.7806L167.02 73.5689H169.048L169.716 73.0099L170.614 72.894L171.283 73.2967L172.468 71.9498L172.239 71.2748L171.036 70.9665L170.215 70.9266L170.254 69.772L169.164 68.0584L166.332 67.916Z" fill="#1750B1" stroke="#060910" stroke-width="0.5"/>
<path d="M163.925 70.4355L163.18 70.995H162.818L162.57 71.7645L163.45 72.7851L163.508 73.5948L163.138 74.1182L164.427 75.4609L165.822 75.0359L165.707 73.053L163.925 70.4355Z" fill="#1750B1" stroke="#060910" stroke-width="0.5"/>
<path d="M277.47 26.2856L278.11 28.4932L279.389 28.8598L280.668 26.8379L279.938 25.4582L280.21 24.2633H282.129L281.67 25.1822L281.853 28.4932L279.112 35.2969L279.384 36.7673L279.294 39.2504L284.407 46.6967L285.41 46.9727L285.501 40.9065L286.504 39.9875L285.407 37.5985L286.32 36.5855L284.31 33.9201L283.212 34.0112L282.849 29.5999L285.68 28.8628L285.862 27.5742L287.324 27.2075L288.145 27.9451L289.148 23.9L290.882 20.9599L292.252 20.2224L293.441 20.3135V18.9338L291.523 18.5671L288.873 16.3596L290.153 14.8895L289.055 12.406L289.967 11.4875L291.065 12.9575L293.806 13.9701L296.819 14.2461L297.186 12.9604L295.634 11.3993L297.368 9.01024L293.439 7.63051L292.435 9.65244L291.156 7.99718L283.942 5.51367L277.09 6.70818L276.087 7.26007V7.81153L277.548 8.54907L277.366 10.2951L274.716 9.19126L268.873 11.49L267.869 9.37691H263.849L262.02 11.3085L255.536 9.83808L249.602 11.0326L248.871 12.8701L249.784 13.1456L249.693 14.5254L243.939 15.1676L244.306 17.0051L239.007 16.0861L240.287 13.6971L234.897 13.4212L235.355 15.9047L233.621 16.7325L232.16 15.3528L226.224 16.3658L223.942 18.4789L223.851 19.7641L222.389 19.8549L222.207 18.3848L226.867 14.3406V11.5811L223.854 10.7533L219.925 12.0389L218.282 10.3833H217.552L216.639 12.2204L217.37 13.0482L212.161 15.8988L207.686 19.3009L204.945 23.0692V24.6303L207.867 25.8253L206.406 26.9286L203.302 25.8253L202.022 26.9286L200.104 24.7211L199.737 25.5493L201.837 32.1678L202.386 32.3526L203.848 31.6159L204.578 32.1674V33.3619L203.208 32.8104L202.386 33.4526L202.936 34.6471L202.478 37.7732L199.646 38.0492L199.465 37.0361L201.108 36.0235L201.475 33.264L199.646 30.875L199.007 26.7396L196.085 26.2785L195.813 27.7485L196.361 28.4852L195.174 29.4982L195.632 32.2577L197.365 32.9948L197.733 35.0167L195.995 33.9134L191.521 33.0851L190.972 34.556L187.409 35.8412L186.86 34.9227L182.201 37.496L182.11 39.2424L180.282 39.5184L180.831 38.2332V36.9475L179.002 36.3053L177.814 36.7665L178.817 38.6981L179.548 39.9833V40.9964L178.177 40.7209L177.905 40.4449L176.534 41.9154L177.265 43.201L174.16 43.1099L175.164 44.3989L174.892 44.9504H173.249L172.061 44.1225L171.789 41.8242L169.87 41.0871V40.1686L173.89 40.9968L176.082 41.1816L176.994 39.8019L176.173 38.3314L170.329 36.0332L168.311 36.5338L167.621 37.126L167.836 38.4868L168.693 38.6355L168.493 40.778L171.139 46.9861L169.227 50.014L169.096 50.6965L170.066 51.379L169.19 51.9565L168.609 51.9674L168.718 54.6357L169.521 55.7723L169.532 56.8756L170.561 56.9702L172.133 57.5691L173.798 59.8564L173.817 60.4592L173.275 61.3853L174.518 61.3164L175.728 61.665L177.364 63.9776L181.391 64.3442L181.217 67.0961L179.829 68.2835L180.116 68.7476L178.745 70.2185L178.382 71.5978L179.203 72.7927L181.853 73.7113L182.951 73.0686L189.983 75.734L190.256 74.9965L188.794 73.6176V71.8712L187.882 71.5953L188.064 70.1252L189.526 68.3788L186.906 66.4187L187.087 63.692L189.89 61.8511L193.179 62.0363L193.728 63.0494L197.108 63.2342L199.576 61.8548L198.296 60.4751L198.568 57.9009L204.961 54.7752L209.878 56.9895L211.521 55.5194L216.362 60.1152L220.015 59.7485L221.295 61.0337L224.766 61.4004L227.048 58.2751L229.97 59.5637L231.522 59.8401L233.074 58.4603L231.703 57.5414L232.892 55.7042L236.272 56.808L237.002 58.2785L238.464 58.3692L239.376 57.727L241.844 57.6359L242.116 58.2785L244.947 58.4633L246.865 56.4414L250.794 56.9025L251.983 56.4414L252.346 54.2338L251.158 51.5684L252.346 50.5558H256.09L259.652 54.7848L264.216 57.3591H265.587L265.769 56.2557L267.411 55.2427L267.594 61.2185L266.132 61.3093V62.7793L266.954 63.7923L266.801 65.1065L267.408 65.3577L267.775 64.4387L268.324 64.624L268.688 64.9906L270.33 64.624L271.973 59.8422L272.155 53.8659L270.054 49.0841L267.405 45.8681L266.125 46.0529V47.0659L263.021 45.871L264.21 43.2972L265.213 36.4935L269.414 35.2083L271.424 33.923H273.616L273.064 34.6597L273.613 35.5787L275.532 33.5568L276.629 33.6471L276.447 32.4526L274.71 32.0859L275.898 27.7653L277.47 26.2856Z" fill="#1B4397" stroke="#060910" stroke-width="0.5"/>
<path d="M163.127 58.2598L162.582 59.2661L164.543 59.2842H164.943L164.868 58.7163L164.562 58.3576L163.127 58.2598Z" fill="#1750B1" stroke="#060910" stroke-width="0.5"/>
<path d="M285.493 47.7422L285.043 48.3016L285.08 49.1765L285.497 49.1404L286.191 47.9169L285.493 47.7422Z" fill="#1750B1" stroke="#060910" stroke-width="0.5"/>
<path d="M179.284 13.8906L179.909 14.1418L179.469 14.897V15.968L178.532 16.535H177.532L176.969 15.8416L177.03 15.0864L177.47 14.5194H178.346L179.284 13.8906Z" fill="#1750B1" stroke="#060910" stroke-width="0.5"/>
<path d="M181.664 13.1963V13.9515L182.289 14.4563L183.165 14.395L183.916 13.7015V13.1967H183.229L182.666 13.3853L182.226 12.8809L181.664 13.1963Z" fill="#1750B1" stroke="#060910" stroke-width="0.5"/>
<path d="M185.23 13.2616L185.67 14.2058L186.546 14.2675L187.171 14.0172L186.859 13.1347L186.045 12.9453L185.23 13.2616Z" fill="#1750B1" stroke="#060910" stroke-width="0.5"/>
<path d="M188.797 12.0023L188.11 11.875L187.484 12.5067L187.797 13.0733L187.986 13.9557L188.8 13.3274L188.989 12.6344L188.797 12.0023Z" fill="#1750B1" stroke="#060910" stroke-width="0.5"/>
<path d="M192.613 18.6797L192.424 19.5617L190.984 20.8217L187.917 21.5152L185.412 25.672L184.973 26.8703L187.477 27.5024L187.851 25.9916L188.604 23.661L190.544 22.6517L192.172 21.3917L193.36 20.8873H193.986V19.1879L192.613 18.6797Z" fill="#1750B1" stroke="#060910" stroke-width="0.5"/>
<path d="M184.541 27.875L186.231 28.064L186.795 30.0166L188.234 31.5274L187.732 32.5362H186.857L186.042 31.5921L184.229 31.5307L183.477 30.5215V29.828L184.604 29.5122L184.541 27.875Z" fill="#1750B1" stroke="#060910" stroke-width="0.5"/>
<path d="M210.953 6.39785L210.138 5.89258H209.201L209.012 6.45959L208.013 7.0266L207.26 7.27693L207.137 8.03211L208.889 8.15936L210.953 6.39785Z" fill="#1750B1" stroke="#060910" stroke-width="0.5"/>
<path d="M212.892 6.58594L212.452 7.52969L211.576 7.46837L210.198 8.47724L209.824 9.73726H210.7L211.202 8.91698L212.39 9.79941L213.517 9.29457L214.332 8.60155L214.019 7.53012L213.579 6.77494L212.892 6.58594Z" fill="#1750B1" stroke="#060910" stroke-width="0.5"/>
<path d="M214.707 7.2793L215.147 9.04376L215.834 10.6805L216.586 9.35918L218.026 9.04334V8.09915L217.089 7.40573L214.707 7.2793Z" fill="#1750B1" stroke="#060910" stroke-width="0.5"/>
<path d="M249.044 4.45459L250.022 5.27486L250.715 4.988L250.919 3.83718L249.494 2.85352L248.556 3.47051L246.274 3.67757V4.7045L243.867 4.74482V6.42569L246.68 8.5169L247.415 7.98308L247.251 6.50507L249.046 6.05524L248.679 5.35803L248.028 4.70156L249.044 4.45459Z" fill="#1750B1" stroke="#060910" stroke-width="0.5"/>
<path d="M251.656 3.47028L252.307 4.70174L254.837 4.41446L255.53 3.5106L255.367 2.73064L254.673 2.44336L254.022 2.93729L252.147 3.34805L251.656 3.47028Z" fill="#1750B1" stroke="#060910" stroke-width="0.5"/>
<path d="M251.491 8.26971L250.225 7.94336L249.495 8.72331L249.168 9.79056L250.88 9.62717L252.185 8.97028L251.491 8.26971Z" fill="#1750B1" stroke="#060910" stroke-width="0.5"/>
<path d="M284.272 1.17247L283.211 0.845703L281.99 1.29595L281.379 2.19939L282.153 3.22673L284.193 2.32329L284.6 1.87304L284.272 1.17247Z" fill="#1750B1" stroke="#060910" stroke-width="0.5"/>
<path d="M284.66 49.8769V51.4163L285.147 51.5906L285.496 51.0311V49.8438L284.66 49.8769Z" fill="#1750B1" stroke="#060910" stroke-width="0.5"/>
<path d="M270.446 44.3145L270.414 46.5544L273.227 50.893L274.234 54.6685L276.008 58.0269L276.701 58.2705L277.294 57.7799L277.57 56.9743L275.033 54.2115L275.102 52.7768L275.658 52.534L275.796 51.6953L270.828 44.6664L270.446 44.3145Z" fill="#1750B1" stroke="#060910" stroke-width="0.5"/>
<path d="M290.045 37.3555L289.352 37.4244L289.769 38.0199L290.637 38.6155L290.881 38.3358L290.045 37.3555Z" fill="#1750B1" stroke="#060910" stroke-width="0.5"/>
<path d="M291.398 37.7773L291.504 38.3721L292.58 38.6879L292.686 38.2671L291.398 37.7773Z" fill="#1750B1" stroke="#060910" stroke-width="0.5"/>
<path d="M297.305 40.0605L297.759 40.8741L298.516 40.8233L298.667 40.2638L297.305 40.0605Z" fill="#1750B1" stroke="#060910" stroke-width="0.5"/>
<path d="M175.654 123.211L176.675 124.151L176.632 125.157L175.047 125.19V124.078L175.654 123.211Z" fill="#34C759" stroke="#060910" stroke-width="0.5"/>
<path d="M192.436 91.7478L194.984 95.2939L195.806 95.9483L196.173 97.538L200.095 97.8463L200.538 98.079L200.098 100.039L197.521 101.557L193.753 102.697L191.743 104.658L189.355 103.267L187.909 104.53L185.895 101.245L184.514 100.613L184.013 99.854V98.2092L178.987 92.1393L178.797 91.0636H180.243L182.002 89.547L182.064 88.7876L181.563 88.2832L182.57 87.4629L184.707 87.5902L188.352 90.6251L190.504 90.5277L190.642 91.0582L192.436 91.7478Z" fill="#1750B1" stroke="#060910" stroke-width="0.5"/>
<path d="M199.104 129.906L198.883 130.352L199.489 130.853L199.933 130.352L199.104 129.906Z" fill="#1750B1" stroke="#060910" stroke-width="0.5"/>
<path d="M202.204 126.566L201.539 127.012L202.038 127.792H202.703L202.204 126.566Z" fill="#1750B1" stroke="#060910" stroke-width="0.5"/>
<path d="M202.479 128.516L202.035 129.017L202.366 129.517L202.972 129.63L203.027 128.571L202.479 128.516Z" fill="#1750B1" stroke="#060910" stroke-width="0.5"/>
<path d="M169.87 111.495L168.798 110.863L167.82 108.935L167.875 107.142L169.231 105.977L169.296 101.681L170.19 101.707L170.088 99.3219L179.465 99.405L180.806 98.0547L183.699 102.676L182.114 104.542V107.392L180.18 111.546L179.743 112.512L178.184 110.279L177.045 111.725L175.759 112.075L171.579 111.655L169.757 112.302L169.87 111.495Z" fill="#1750B1" stroke="#060910" stroke-width="0.5"/>
<path d="M161.078 37.7773L161.79 38.4338H163.124L163.858 39.8425L164.059 42.2567L162.26 43.5315V44.8053L160.992 46.5517L160.258 46.6164L159.258 48.2939L159.323 49.9059L161.057 51.1807L160.923 51.9174L160.258 52.9237L159.258 53.7948L159.323 56.6811L157.79 57.2183L157.255 58.3578H156.521L156.122 56.3463L154.453 53.791L155.824 51.4999L155.918 45.8394L156.864 45.3203L157.093 42.0824L159.786 38.2301L161.078 37.7773Z" fill="#1B4397" stroke="#060910" stroke-width="0.5"/>
<path d="M161.357 54.3281L160.59 54.9342L160.975 55.8238L161.655 55.1631L161.357 54.3281Z" fill="#1750B1" stroke="#060910" stroke-width="0.5"/>
<path d="M250.668 121.016L250.956 121.18L251.607 121.127L251.553 120.637L251.022 120.72L250.668 121.016Z" fill="#1750B1" stroke="#060910" stroke-width="0.5"/>
<path d="M160.017 69.5117L159.094 70.0636L157.371 70.4408L157.716 71.4354L158.923 71.4496L160.035 70.5202L160.017 69.5117Z" fill="#1750B1" stroke="#060910" stroke-width="0.5"/>
<path d="M160.395 67.7457L160.646 67.967L160.678 68.3442L163.451 68.2829L165.501 67.4L165.469 66.5033L165.076 66.6776L164.512 66.376L164.167 66.3613L163.259 66.7246L162.023 66.4268L160.395 67.7457Z" fill="#1B4397" stroke="#060910" stroke-width="0.5"/>
<path d="M130.625 113.491L132.679 115.473L134.143 113.698L133.227 112.264L131.965 112.391L130.625 113.491Z" fill="#1750B1" stroke="#060910" stroke-width="0.5"/>
<path d="M130.467 108.864L128.032 108.804L128.482 109.898L128.733 109.223L131.79 109.542L132.129 109.531L133.561 109.581L133.611 108.949L132.303 107.381L130.846 105.41L129.941 105.033L129.242 105.211L127.811 106.25L127.485 106.831L127.383 107.412L127.91 107.789L129.669 107.764L130.799 107.458L130.927 108.013L130.826 108.746L130.467 108.864Z" fill="#1750B1" stroke="#060910" stroke-width="0.5"/>
<path d="M195.334 110.196L196.922 109.586L197.485 109.924L197.423 111.332L195.959 115.5L188.032 123.98L187.113 123.349L187.051 119.77L188.243 118.401L190.773 117.621L194.483 113.707L195.454 112.843L195.726 111.579L195.334 110.196Z" fill="#1750B1" stroke="#060910" stroke-width="0.5"/>
<path d="M86.7228 116.4L87.4641 117.079L88.6124 116.367L89.6593 116.4L89.5248 116.806L89.085 117.722L89.016 119.999L86.9263 120.848L87.0281 119.388L85.6797 118.132L85.7486 117.486L86.7228 116.4Z" fill="#1750B1" stroke="#060910" stroke-width="0.5"/>
<path d="M179.62 112.748L178.762 113.125L179.034 114.617H180.103L181.553 116.719L180.389 116.867L180.091 117.408L180.062 118.188L176.573 118.127L176.217 117.586L173.778 117.448L169.301 112.844L169.748 112.575L171.647 112.002L175.808 112.319L177.223 112.002L178.163 110.744L179.62 112.748Z" fill="#1750B1" stroke="#060910" stroke-width="0.5"/>
<path d="M151.273 122.213L151.691 122.002L152.003 122.256L151.691 122.738L151.313 122.589L151.273 122.213Z" fill="#1750B1" stroke="#060910" stroke-width="0.5"/>
<path d="M152.113 120.887L152.742 120.781L152.953 121.181L152.641 121.519L152.328 121.475L152.113 120.887Z" fill="#1750B1" stroke="#060910" stroke-width="0.5"/>
<path d="M53.4727 107.371L55.1805 108.221L55.1549 106.874L54.2791 106.34L53.4727 107.371Z" fill="#1750B1" stroke="#060910" stroke-width="0.5"/>
<path d="M178.869 82.9945L178.742 83.9168L179.767 84.3457L179.723 86.9018L180.748 86.8796L181.773 86.1059L182.158 86.0408L184.484 84.1936L184.953 81.5098L180.304 81.9823L179.814 83.0571L178.869 82.9945Z" fill="#1750B1" stroke="#060910" stroke-width="0.5"/>
<path d="M176.762 150.113L175.85 150.265L175.457 151.337L176.155 151.972H177.002L177.717 150.945L176.762 150.113Z" fill="#1750B1" stroke="#060910" stroke-width="0.5"/>
<path d="M159.287 107.273L159.334 106.201L161.057 104.528L161.519 100.418L160.371 98.2256L161.174 97.8145L168.952 101.863L168.904 105.835L167.534 107V109.048L168.432 110.783H166.847L164.224 113.376L164.154 114.16L162.218 114.134L162.192 114.49L161.087 114.345L160.331 112.918L159.763 112.638L159.837 112.203L160.548 111.658V109.11L159.563 108.958L158.375 108.075L159.287 107.273Z" fill="#1750B1" stroke="#060910" stroke-width="0.5"/>
<path d="M145.63 116.441L146.604 115.871L146.582 112.114L145.95 111.09L145.543 111.431L145.63 116.441Z" fill="#1750B1" stroke="#060910" stroke-width="0.5"/>
<path d="M245.509 98.0039L246.686 99.5176V101.359L247.093 101.561L248.965 100.661L249.332 100.784L251.567 103.362L251.487 105.123L250.757 105L250.106 104.588L249.619 104.629L248.765 106.059L248.929 106.836L249.62 107.203L249.58 108.064L249.093 108.31L247.424 107.163V106.139L246.734 106.1L246.45 106.549L246.304 111.131L247.384 113.099L249.296 114.94L249.217 115.474L248.198 115.434L247.264 114.044H246.286L245.066 113.059L244.699 112.035L245.226 111.175L245.408 110.397L245.982 109.38L245.956 107.043L244.553 105.017L244.495 104.77L244.949 104.313L244.844 102.704L242.977 100.341L243.195 98.9796L245.509 98.0039Z" fill="#1750B1" stroke="#060910" stroke-width="0.5"/>
<path d="M209.223 76.7166L210.716 74.8652H211.28L211.476 75.2785L210.785 75.7792V76.1929L211.24 76.5192L213.424 76.6503L214.136 76.3449L214.46 76.4096L214.679 77.1068L215.976 77.2379L216.626 78.61L216.43 79.0237L216.172 79.046L215.915 78.5231L215.351 78.4794L214.377 78.6105L214.312 79.5261L213.338 79.461L213.382 78.306L212.67 77.6096L211.587 78.5021L211.609 79.0901L210.657 79.4169H210.093L210.137 77.3907L209.223 76.7166Z" fill="#1750B1" stroke="#060910" stroke-width="0.5"/>
<path d="M196.015 75.1742L195.79 76.1289H194.281V77.4217L195.902 78.4889L195.401 79.9514V80.6268L196.073 80.7398L196.968 79.5591L198.981 79.1097L203.284 80.7398L203.338 81.9196L205.741 82.1447L208.423 79.3315L208.089 78.4306L206.3 78.0379L201.27 74.774L201.045 73.5938H199.144L198.305 75.17H197.465L196.015 75.1742Z" fill="#125DCB" stroke="#060910" stroke-width="0.5"/>
<path d="M152.788 82.3406L154.798 81.5312L155.459 81.9597L155.484 82.4822L155.176 82.8849L155.222 83.6002L155.531 83.7665V85.0522L155.175 85.6477L155.222 86.0291L156.57 86.5046L155.484 88.193L155.058 88.1674L154.986 89.5249L154.513 89.5979L154.11 89.2413L154.205 87.862L152.882 86.5764L152.715 85.4583L153.354 84.9577L152.788 82.3406Z" fill="#1750B1" stroke="#060910" stroke-width="0.5"/>
<path d="M172.672 76.5799L171.703 75.9809L171.169 75.5555L170.27 75.9402L169.649 77.511L170.582 77.301L171.238 76.802L172.684 77.196L171.866 77.9844L169.69 77.8794L168.887 78.7584V79.1873L169.4 79.6161V80.0878L169.185 80.6472L169.4 81.1189L170.083 80.7779L170.766 81.5074L170.595 82.0232L170.342 82.3676L170.723 82.7964L172.599 83.1811L173.918 82.6221V81.8086L174.558 81.9358L176.092 82.8363L177.752 82.5784L178.475 81.8926L178.944 82.0631V82.8363H179.583L180.135 81.7653L184.991 81.2491L187.11 80.9916L186.551 80.2583L186.54 79.2675L186.965 78.7593L185.417 77.5177L185.5 76.4463H184.65L183.239 75.7562L182.428 76.6135L179.448 76.5257L177.66 75.4551L175.944 75.6088L174.033 76.755L172.672 76.5799Z" fill="#125DCB" stroke="#060910" stroke-width="0.5"/>
<path d="M82.7644 110.459L82.3789 110.815L81.9609 110.88V111.396L82.7316 112.104L83.0512 111.588L83.2437 111.007L83.1782 110.525L82.7644 110.459Z" fill="#1750B1" stroke="#060910" stroke-width="0.5"/>
<path d="M266.382 89.959L265.096 90.9393L265.027 92.8268L266.14 94.1196L266.416 93.876L266.382 89.959Z" fill="#1750B1" stroke="#060910" stroke-width="0.5"/>
<path d="M180.834 134.587L186.635 133.877L185.208 131.118L185.131 128.475L185.593 127.212L179.552 123.422L177.659 123.734L177.002 124.22L176.943 125.328L176.518 126.863L176.074 127.39L175.438 127.449L176.619 131.405L178.643 132.597L180.407 132.639L180.834 134.587Z" fill="#1750B1" stroke="#060910" stroke-width="0.5"/>
<path d="M167.567 62.6718L166.513 63.2636L166.775 64.382L165.801 66.4334L165.809 67.3368L166.267 67.627L169.203 67.7723L170.025 67.094L170.904 67.3876L172.165 69.0685L171.243 70.7242L172.34 71.0438L173.776 69.3919L174.597 69.5406L175.36 70.0706L174.687 70.9564L175.596 72.3723H176.562L177.061 71.4281L178.086 71.2206L178.115 70.4549L176.21 70.1609L176.269 69.3365H178.116L180.107 67.7429L180.987 66.9768L181.132 64.5589L177.207 64.2069L175.597 61.938L174.484 61.5566L173.136 61.615L172.529 63.114L169.767 63.1506L168.869 62.7365L167.567 62.6718Z" fill="#1750B1" stroke="#060910" stroke-width="0.5"/>
<path d="M175.828 122.916L176.929 123.946L177.62 123.507L179.488 123.202L179.808 123.235L179.928 122.526L180.982 120.311L180.095 118.467L177.221 118.485L177.203 119.245L177.588 119.615L177.53 120.374L175.828 122.916Z" fill="#FF9500" stroke="#060910" stroke-width="0.5"/>
<path d="M34.2494 57.2949L33.8857 58.7544L32.6172 57.9338H31.9848L31.6211 59.484L27.1836 69.4172L28.3613 78.0719L29.8114 78.8014L30.0839 81.1724H33.0712L35.9678 83.3581L41.67 83.9062L42.3024 86.8215L43.2072 87.4603L44.4757 86.1864L45.4718 86.64L46.3766 90.83L47.9138 91.8322L49.1823 89.4612L53.0749 86.6363L55.6081 87.8194L57.7815 88.0013L57.8723 86.6363L62.3973 86.7274L63.3021 87.7295L63.4837 90.006L62.9422 91.2803L63.5745 93.4656H64.9339L66.2928 91.371L65.7512 90.3689L65.2097 88.1832L66.0237 85.7219L69.7346 82.534L72.5403 81.7138L72.1771 79.0707L76.0697 74.8777L79.9622 74.2389L79.3299 72.0578L83.1316 69.8716V66.9568L82.768 66.7749L81.4086 67.2294L81.227 69.0152L76.7092 69.0694L73.1693 71.4189L67.6122 73.2342L66.7254 72.1481L69.2477 68.3361L68.0011 67.1491L67.1543 65.5372L65.3989 64.1284L63.4909 63.9688L59.8854 61.511L34.2494 57.2949Z" fill="#0E69E2" stroke="#060910" stroke-width="0.5"/>
<path d="M5.32422 19.1758L6.5818 21.5253L7.38866 21.3439V20.5299L5.32422 19.1758Z" fill="#1750B1" stroke="#060910" stroke-width="0.5"/>
<path d="M14.0239 16.1051L10.9748 16.8279L11.6038 20.2586L14.922 21.162L15.0999 21.8844L10.1679 23.4204L7.38745 28.0237L8.37258 32.8995L9.9863 33.9815L11.2439 32.8084L11.6038 33.5312L10.0775 35.3356L4.15666 38.0442L0.387693 38.9477L0.296875 40.3022L8.9978 37.7754L12.5851 36.7804L15.9034 32.7173L19.5815 30.2812L17.6987 33.4401L19.7632 33.7118L23.2631 32.1763L23.8921 34.7035L26.3126 35.2445L28.824 37.6805L29.0019 39.4849L28.6424 39.9351L29.0893 41.6487H29.7183L29.8091 38.7587H30.5252L30.703 45.8891L32.4988 44.3532L31.2412 36.9505H29.3584L27.294 34.3335L37.4303 17.1786L27.3848 9.32617L16.1725 11.4938L15.7255 14.9245L18.1461 16.3689L17.2484 18.7184L14.0239 16.1051Z" fill="#125DCB" stroke="#060910" stroke-width="0.5"/>
<path d="M89.347 156.623L88.6016 157.419L88.9106 161.695L91.2509 162.374L94.2277 159.393L89.347 156.623Z" fill="#1750B1" stroke="#060910" stroke-width="0.5"/>
<path d="M208.762 79.3385L209.882 79.3965V77.4829L208.821 76.8655L210.61 74.6151H211.337L212.063 75.4615L213.964 74.7315L211.337 73.831L211.235 73.2862L210.61 73.4387L209.996 74.5059L207.346 74.419L205.402 71.6709L201.986 72.0081L200.358 70.3962L198.105 70.0156L196.469 70.6801L197.418 73.831L197.428 74.8911L198.119 74.9058L198.965 73.2934L201.219 73.3219L201.553 74.5597L206.383 77.7623L208.251 78.1911L208.762 79.3385Z" fill="#1B4397" stroke="#060910" stroke-width="0.5"/>
<path d="M82.7008 107.943L82.2539 108.267L82.6067 108.913L83.1844 108.59L82.7008 107.943Z" fill="#1750B1" stroke="#060910" stroke-width="0.5"/>
<path d="M82.1562 109.199L81.7383 109.617L81.898 109.874H82.4106L82.5704 109.452L82.1562 109.199Z" fill="#1750B1" stroke="#060910" stroke-width="0.5"/>
<path d="M71.2144 110.874L71.3742 111.814L72.5553 112.189L72.8244 110.457L74.071 109.168L75.3177 110.627L78.1852 111.408L80.6129 110.9L82.2665 112.936L83.5132 113.717L82.1467 115.797L82.6046 117.373L81.8234 118.338L81.0127 119.017L79.2573 118.134L78.8541 118.541V119.797L80.1374 120.407L79.1922 121.428L78.247 122.448L77.0003 122.347L75.7465 120.971L75.4812 115.794L71.1997 114.334L70.4219 112.058L71.2144 110.874Z" fill="#1750B1" stroke="#060910" stroke-width="0.5"/>
<path d="M250.975 110.34L251.406 111.018L251.486 111.796L252.624 111.919L254.005 110.078L255.307 109.712L255.997 107.831L255.673 104.803L254.332 102.962L252.919 101.833L251.12 98.7461L252.41 96.5893L250.563 94.4729L249.084 94.4082L247.754 95.1231L248.15 96.8329L249.924 97.145L250.4 98.463L249.775 98.87L249.815 99.1963L253.976 103.263L254.139 104.458L253.889 108.233L250.975 110.34Z" fill="#1750B1" stroke="#060910" stroke-width="0.5"/>
<path d="M188.07 104.814L188.593 106.368V107.885L189.851 109.025L198.712 105.42L198.795 104.429L197.373 101.881L193.808 103.017L191.762 105.028L189.389 103.627L188.07 104.814Z" fill="#1750B1" stroke="#060910" stroke-width="0.5"/>
<path d="M198.113 108.597L198.888 109.462L199.934 108.83L200.311 108.702L199.832 108.238L198.912 108.51L198.113 108.597Z" fill="#1750B1" stroke="#060910" stroke-width="0.5"/>
<path d="M174.321 146.35L171.45 149L170.767 150.637L168.492 150.354L166.598 152.035L165.341 151.912L165.442 149.589L164.995 149.432L164.683 154.184L162.451 154.163L161.779 153.37L160.793 153.36L161.691 155.935L163.294 157.448L162.149 158.781L162.891 160.451L164.607 161.105L165.973 159.943L169.888 159.965L170.168 159.617L171.906 159.311L177.783 153.466L177.76 151.625L177.132 152.439H176.191L175.046 151.48L175.628 150.036L176.627 149.833L176.536 146.863L174.321 146.35Z" fill="#1750B1" stroke="#060910" stroke-width="0.5"/>
<path d="M172.945 153.067L173.494 153.045L174.384 154.011L174.359 155.129L173.315 155.655L173.25 156.026L171.659 156.044L171.16 154.845L171.615 153.967L172.945 153.067Z" fill="#1750B1" stroke="#060910" stroke-width="0.5"/>
<path d="M167.195 139.475L168.347 141.072L170.131 141.182L170.764 141.53L172.632 141.552L174.242 139.298L178.741 137.287L179.134 135.515L178.611 132.977L176.263 131.641L174.696 131.75L173.915 133.478L173.938 134.266L175.784 135.163L175.893 137.112L174.306 137.2L173.913 136.543L169.5 134.662L169.369 136.107L167.283 136.172L167.195 139.475Z" fill="#1750B1" stroke="#060910" stroke-width="0.5"/>
<path d="M170.871 142.235L174.131 145.913L176.631 146.549L178.306 143.925L178.175 140.446L175.457 139.045L174.435 139.506L172.913 141.826L170.805 141.804L170.871 142.235Z" fill="#1750B1" stroke="#060910" stroke-width="0.5"/>
</svg>
