<svg width="64" height="64" viewBox="0 0 64 64" fill="none" xmlns="http://www.w3.org/2000/svg">
<path d="M15.0452 48.9867C14.7385 48.6832 14.495 48.3218 14.3289 47.9236C14.1627 47.5254 14.0771 47.0982 14.0771 46.6667C14.0771 46.2352 14.1627 45.808 14.3289 45.4097C14.495 45.0115 14.7385 44.6502 15.0452 44.3467C17.2706 42.1193 19.9139 40.3532 22.8234 39.1497C25.7328 37.9462 28.8513 37.3289 31.9999 37.3333C35.1485 37.3289 38.2669 37.9462 41.1764 39.1497C44.0859 40.3532 46.7291 42.1193 48.9546 44.3467C49.2613 44.6502 49.5047 45.0115 49.6709 45.4097C49.8371 45.808 49.9226 46.2352 49.9226 46.6667C49.9226 47.0982 49.8371 47.5254 49.6709 47.9236C49.5047 48.3218 49.2613 48.6832 48.9546 48.9867C46.7291 51.214 44.0859 52.9801 41.1764 54.1836C38.2669 55.3871 35.1485 56.0044 31.9999 56C28.8513 56.0044 25.7328 55.3871 22.8234 54.1836C19.9139 52.9801 17.2706 51.214 15.0452 48.9867Z" fill="white"/>
<path fill-rule="evenodd" clip-rule="evenodd" d="M22.6663 20H41.333V21.3333H42.6663C42.6663 28.3653 38.1837 34.6667 31.9997 34.6667C25.8157 34.6667 21.333 28.3653 21.333 21.3333H22.6663V20ZM24.061 22.6667C24.5677 28.1813 28.1757 32 31.9997 32C35.8237 32 39.4317 28.1813 39.9383 22.6667H24.061Z" fill="white"/>
<path fill-rule="evenodd" clip-rule="evenodd" d="M31.9997 8C38.6263 8 43.9997 13.9707 43.9997 21.3333H19.9997C19.9997 13.9707 25.373 8 31.9997 8ZM31.9997 20C33.0605 20 34.078 19.5786 34.8281 18.8284C35.5782 18.0783 35.9997 17.0609 35.9997 16C35.9997 14.9391 35.5782 13.9217 34.8281 13.1716C34.078 12.4214 33.0605 12 31.9997 12C30.9388 12 29.9214 12.4214 29.1712 13.1716C28.4211 13.9217 27.9997 14.9391 27.9997 16C27.9997 17.0609 28.4211 18.0783 29.1712 18.8284C29.9214 19.5786 30.9388 20 31.9997 20ZM17.333 22.6667C17.333 22.313 17.4735 21.9739 17.7235 21.7239C17.9736 21.4738 18.3127 21.3333 18.6663 21.3333H45.333C45.6866 21.3333 46.0258 21.4738 46.2758 21.7239C46.5259 21.9739 46.6663 22.313 46.6663 22.6667C46.6663 23.0203 46.5259 23.3594 46.2758 23.6095C46.0258 23.8595 45.6866 24 45.333 24H18.6663C18.3127 24 17.9736 23.8595 17.7235 23.6095C17.4735 23.3594 17.333 23.0203 17.333 22.6667Z" fill="white"/>
</svg>
