<svg width="22" height="22" viewBox="0 0 22 22" fill="none" xmlns="http://www.w3.org/2000/svg">
<path d="M10.9946 4.01673L14.1096 0.901799L20.6875 7.47834L10.9836 20.9207L1.25679 7.45556L7.8348 0.877547L10.9725 4.01673L10.9836 4.02778L10.9946 4.01673ZM7.80555 2.03683L7.7945 2.02573L7.78343 2.0368L7.49872 2.32143L7.50977 2.33248L7.49872 2.32143L2.5103 7.30989L2.52135 7.32093L2.5103 7.30989L2.26865 7.55159L2.25923 7.561L2.26703 7.57179L2.46717 7.8485L2.46718 7.84851L10.6459 19.1827L10.9709 19.6339L10.9835 19.6515L10.9962 19.6339L11.3225 19.1828L11.3225 19.1827L19.4999 7.84847L19.4999 7.84845L19.7 7.57183L19.7078 7.56104L19.6984 7.55163L19.4567 7.30993L14.4684 2.3215L14.4684 2.32147L14.1851 2.03683L14.174 2.02573L14.163 2.0368L13.8783 2.32143L10.9836 5.21619L8.08889 2.32145L8.08886 2.32143L7.80555 2.03683ZM10.984 6.39542L10.9853 6.39404L13.5155 8.92418L10.7419 11.6965L7.67387 8.62851L7.66281 8.61745L7.65176 8.62852L7.08509 9.19648L7.07406 9.20753L7.0851 9.21857L10.4474 12.5808L10.4474 12.5809L10.7307 12.8655L10.7418 12.8766L10.7528 12.8655L11.0375 12.5808L14.3998 9.21852L14.3998 9.2185L14.6832 8.93383L14.6942 8.92278L14.6832 8.91176L14.3999 8.62851L11.575 5.80362L14.174 3.20591L18.6156 7.64892L10.9836 18.2257L3.35151 7.64892L7.79448 3.20596L10.6892 6.10071L10.7002 6.08966L10.6892 6.10071L10.9726 6.38401L10.984 6.39542ZM7.85489 4.233H7.81717L7.83284 4.24867L7.27588 4.80562L7.26483 4.81667L7.27588 4.82772L11.9608 9.51269L11.9718 9.52374L11.9829 9.51269L12.5509 8.94464L12.562 8.93359L12.5509 8.92255L7.87703 4.24867L7.8927 4.233H7.85498H7.85489ZM14.224 4.23757L14.213 4.22652L14.2019 4.23759L13.6352 4.80564L13.6242 4.81669L13.6353 4.82772L17.1332 8.32563L17.1442 8.33668L17.1553 8.32563L17.7233 7.75763L17.7343 7.74658L17.7233 7.73553L14.224 4.23757Z" fill="#979AA0" stroke="#979AA0" stroke-width="0.03125"/>
</svg>
