<svg width="64" height="64" viewBox="0 0 64 64" fill="none" xmlns="http://www.w3.org/2000/svg">
<path d="M12.8125 8.80001C12.7125 8.80001 12.6 8.81251 12.5 8.82751C8.62625 9.49126 4.74 18.0875 3.45 21.2H31.8L33.2875 18.2125C31.7375 15.7125 28.875 11.9175 26 12.0775C24.1125 12.1775 20.5 16.325 20.5 16.325C20.5 16.325 16.075 8.76126 12.8125 8.80001ZM37.2 15.45L33.2 23.45H23.2375L18.15 35.325C20.9 35.7375 23.325 37.1625 25.025 39.2H35.975C36.575 38.475 37.2625 37.8375 38.025 37.2875L41.6 21.2H47.7125L49.75 15.45H37.2ZM2.625 23.45V33.45L4.32125 33.8875L8.79625 23.45H2.625ZM11.2388 23.45L6.5175 34.4625L9.7125 35.3L14.7875 23.45H11.2388ZM17.2375 23.45L11.91 35.875L12.3725 36C13.425 35.575 14.5625 35.3 15.75 35.225L20.7875 23.45H17.2375ZM43.4 23.45L40.6375 35.8875C41.8375 35.45 43.15 35.2 44.5 35.2C49.5375 35.2 53.825 38.5875 55.175 43.2H61.375V33.1375L55.5625 31.2L53.625 23.45H49.2875H43.4ZM45.625 25.2H51.375L52.9375 31.45H44.0625L45.4125 26.05L45.625 25.2ZM16.5 37.45C11.585 37.45 7.625 41.4125 7.625 46.325C7.625 51.2375 11.585 55.2 16.5 55.2C21.4125 55.2 25.375 51.2375 25.375 46.325C25.375 41.4125 21.4125 37.45 16.5 37.45ZM44.5 37.45C39.5875 37.45 35.625 41.4125 35.625 46.325C35.625 51.2375 39.5875 55.2 44.5 55.2C49.4125 55.2 53.375 51.2375 53.375 46.325C53.375 41.4125 49.4125 37.45 44.5 37.45ZM4.4225 41.45L2.8725 49.2H5.75375C5.5075 48.2875 5.375 47.3125 5.375 46.325C5.375 44.575 5.78125 42.925 6.505 41.45H4.4225ZM26.5 41.45C27.2125 42.925 27.625 44.575 27.625 46.325C27.625 47.3125 27.4875 48.2875 27.25 49.2H33.75C33.5125 48.2875 33.375 47.3125 33.375 46.325C33.375 44.575 33.7875 42.925 34.5 41.45H26.5ZM16.5 42.325C17.5609 42.325 18.5783 42.7464 19.3284 43.4966C20.0786 44.2467 20.5 45.2641 20.5 46.325C20.5 47.3859 20.0786 48.4033 19.3284 49.1534C18.5783 49.9036 17.5609 50.325 16.5 50.325C15.4391 50.325 14.4217 49.9036 13.6716 49.1534C12.9214 48.4033 12.5 47.3859 12.5 46.325C12.5 45.2641 12.9214 44.2467 13.6716 43.4966C14.4217 42.7464 15.4391 42.325 16.5 42.325ZM44.5 42.325C45.5609 42.325 46.5783 42.7464 47.3284 43.4966C48.0786 44.2467 48.5 45.2641 48.5 46.325C48.5 47.3859 48.0786 48.4033 47.3284 49.1534C46.5783 49.9036 45.5609 50.325 44.5 50.325C43.4391 50.325 42.4217 49.9036 41.6716 49.1534C40.9214 48.4033 40.5 47.3859 40.5 46.325C40.5 45.2641 40.9214 44.2467 41.6716 43.4966C42.4217 42.7464 43.4391 42.325 44.5 42.325ZM55.5875 45.45C55.6125 45.7375 55.625 46.025 55.625 46.325C55.625 47.6625 55.3875 48.9375 54.95 50.1375L61.375 47.5625V45.45H55.5875Z" fill="white"/>
</svg>
