<svg width="28" height="28" viewBox="0 0 28 28" fill="none" xmlns="http://www.w3.org/2000/svg">
<path d="M5.60547 3.84998C5.56172 3.84998 5.5125 3.85545 5.46875 3.86201C3.77398 4.1524 2.07375 7.91326 1.50938 9.27498H13.9125L14.5633 7.96795C13.8852 6.8742 12.6328 5.21389 11.375 5.28389C10.5492 5.32764 8.96875 7.14217 8.96875 7.14217C8.96875 7.14217 7.03281 3.83303 5.60547 3.84998ZM16.275 6.75935L14.525 10.2594H10.1664L7.94062 15.4547C9.14375 15.6351 10.2047 16.2586 10.9484 17.15H15.7391C16.0016 16.8328 16.3023 16.5539 16.6359 16.3133L18.2 9.27498H20.8742L21.7656 6.75935H16.275ZM1.14844 10.2594V14.6344L1.89055 14.8258L3.84836 10.2594H1.14844ZM4.91695 10.2594L2.85141 15.0773L4.24922 15.4437L6.46953 10.2594H4.91695ZM7.54141 10.2594L5.21062 15.6953L5.41297 15.75C5.87344 15.564 6.37109 15.4437 6.89062 15.4109L9.09453 10.2594H7.54141ZM18.9875 10.2594L17.7789 15.7008C18.3039 15.5094 18.8781 15.4 19.4688 15.4C21.6727 15.4 23.5484 16.882 24.1391 18.9H26.8516V14.4976L24.3086 13.65L23.4609 10.2594H21.5633H18.9875ZM19.9609 11.025H22.4766L23.1602 13.7594H19.2773L19.868 11.3969L19.9609 11.025ZM7.21875 16.3844C5.06844 16.3844 3.33594 18.1179 3.33594 20.2672C3.33594 22.4164 5.06844 24.15 7.21875 24.15C9.36797 24.15 11.1016 22.4164 11.1016 20.2672C11.1016 18.1179 9.36797 16.3844 7.21875 16.3844ZM19.4688 16.3844C17.3195 16.3844 15.5859 18.1179 15.5859 20.2672C15.5859 22.4164 17.3195 24.15 19.4688 24.15C21.618 24.15 23.3516 22.4164 23.3516 20.2672C23.3516 18.1179 21.618 16.3844 19.4688 16.3844ZM1.93484 18.1344L1.25672 21.525H2.51727C2.40953 21.1258 2.35156 20.6992 2.35156 20.2672C2.35156 19.5015 2.5293 18.7797 2.84594 18.1344H1.93484ZM11.5938 18.1344C11.9055 18.7797 12.0859 19.5015 12.0859 20.2672C12.0859 20.6992 12.0258 21.1258 11.9219 21.525H14.7656C14.6617 21.1258 14.6016 20.6992 14.6016 20.2672C14.6016 19.5015 14.782 18.7797 15.0938 18.1344H11.5938ZM7.21875 18.5172C7.68288 18.5172 8.128 18.7015 8.45619 19.0297C8.78438 19.3579 8.96875 19.803 8.96875 20.2672C8.96875 20.7313 8.78438 21.1764 8.45619 21.5046C8.128 21.8328 7.68288 22.0172 7.21875 22.0172C6.75462 22.0172 6.3095 21.8328 5.98131 21.5046C5.65312 21.1764 5.46875 20.7313 5.46875 20.2672C5.46875 19.803 5.65312 19.3579 5.98131 19.0297C6.3095 18.7015 6.75462 18.5172 7.21875 18.5172ZM19.4688 18.5172C19.9329 18.5172 20.378 18.7015 20.7062 19.0297C21.0344 19.3579 21.2188 19.803 21.2188 20.2672C21.2188 20.7313 21.0344 21.1764 20.7062 21.5046C20.378 21.8328 19.9329 22.0172 19.4688 22.0172C19.0046 22.0172 18.5595 21.8328 18.2313 21.5046C17.9031 21.1764 17.7188 20.7313 17.7188 20.2672C17.7188 19.803 17.9031 19.3579 18.2313 19.0297C18.5595 18.7015 19.0046 18.5172 19.4688 18.5172ZM24.3195 19.8844C24.3305 20.0101 24.3359 20.1359 24.3359 20.2672C24.3359 20.8523 24.232 21.4101 24.0406 21.9351L26.8516 20.8086V19.8844H24.3195Z" fill="#0A77FF"/>
</svg>
