<svg width="20" height="20" viewBox="0 0 20 20" fill="none" xmlns="http://www.w3.org/2000/svg">
<path d="M16.3519 0.423914L0.472656 1.08563V3.06271L17.3467 2.41371L16.3519 0.423828V0.423914ZM15.5577 3.25654L14.2511 3.30682L14.6713 11.2907L16.328 10.9594L15.5577 3.25654ZM9.75038 3.47989L8.96019 3.5104L8.84443 4.18114L7.70241 4.98681L7.70799 5.02402L7.69626 5.022L7.56465 5.78418L7.83054 5.83016L8.02893 7.13619L9.38382 7.37016L10.0087 6.20622L10.2745 6.25219L10.4061 5.48993L10.3944 5.48795L10.4123 5.45474L9.60661 4.31271L9.75038 3.47989ZM6.42271 3.60794L5.44216 3.64567L3.74619 5.99928L3.67348 7.42318L6.42271 3.60798V3.60794ZM3.08726 3.7362L1.74341 3.78789L0.509352 15.5111L2.4713 15.8005L3.08726 3.73625V3.7362ZM9.18088 4.50521L9.80207 5.38564L8.30045 5.12633L9.18088 4.50521ZM8.29933 5.91107L9.53984 6.12526L9.23854 6.68661L8.39506 6.54094L8.29933 5.91107ZM17.7829 11.4571L14.4986 12.114L12.5654 11.4696L11.332 12.7029H18.6133L17.7829 11.4571ZM6.60885 11.5546L6.20409 12.4451H5.5V13.2185H5.85256L5.53996 13.906H4.55469V14.6795H5.18848L4.83686 15.4529H3.69527V16.2264H4.48529L3.89937 17.5154H2.83589V18.2889H3.5478L3.17131 19.1171L3.87544 19.4372L4.39738 18.2889H10.5601L10.27 17.5154H4.74895L5.33491 16.2264H9.78669L9.49665 15.4529H5.68648L6.03797 14.6795H9.20648L8.91645 13.906H6.38958L6.70209 13.2185H8.65868L8.4654 12.7029H10.2382L10.496 12.4451H7.05366L7.31298 11.8747L6.60885 11.5546ZM9.58152 13.4764L11.3157 18.1013C11.5745 17.7472 11.9924 17.5154 12.4609 17.5154C12.973 17.5154 13.4247 17.7921 13.6741 18.2029H16.0602C16.3096 17.7921 16.7614 17.5154 17.2734 17.5154C17.7213 17.5154 18.1228 17.7273 18.3834 18.0553L19.5281 13.4764H9.58152ZM12.4609 18.2889C12.1004 18.2889 11.8164 18.5729 11.8164 18.9334C11.8164 19.2939 12.1004 19.5779 12.4609 19.5779C12.8214 19.5779 13.1055 19.2939 13.1055 18.9334C13.1055 18.5729 12.8214 18.2889 12.4609 18.2889ZM17.2734 18.2889C16.9129 18.2889 16.6289 18.5729 16.6289 18.9334C16.6289 19.2939 16.9129 19.5779 17.2734 19.5779C17.6339 19.5779 17.918 19.2939 17.918 18.9334C17.918 18.5729 17.6339 18.2889 17.2734 18.2889Z" fill="#979AA0"/>
</svg>
