<svg width="28" height="28" viewBox="0 0 28 28" fill="none" xmlns="http://www.w3.org/2000/svg">
<path d="M22.084 1.81108L1.87402 2.65327V5.16955L23.3501 4.34355L22.084 1.81097V1.81108ZM21.0732 5.41625L19.4102 5.48023L19.9451 15.6415L22.0535 15.2199L21.0732 5.41625ZM13.682 5.70051L12.6763 5.73934L12.529 6.59301L11.0755 7.6184L11.0826 7.66576L11.0677 7.66319L10.9002 8.63324L11.2386 8.69176L11.4911 10.354L13.2155 10.6518L14.0108 9.17038L14.3491 9.2289L14.5166 8.25874L14.5017 8.25622L14.5244 8.21395L13.4991 6.76047L13.682 5.70051ZM9.44682 5.86348L8.19885 5.9115L6.04034 8.90701L5.9478 10.7192L9.44682 5.86354V5.86348ZM5.2017 6.02672L3.49135 6.09251L1.92073 21.013L4.41776 21.3812L5.2017 6.02678V6.02672ZM12.9572 7.00547L13.7478 8.12601L11.8367 7.79597L12.9572 7.00547ZM11.8352 8.79473L13.4141 9.06735L13.0306 9.78179L11.9571 9.5964L11.8352 8.79473ZM23.9052 15.8534L19.7252 16.6894L17.2648 15.8692L15.695 17.4389H24.9622L23.9052 15.8534ZM9.68373 15.9774L9.16857 17.1108H8.27246V18.0952H8.72117L8.32332 18.9702H7.06934V19.9545H7.87598L7.42847 20.9389H5.97553V21.9233H6.98102L6.2353 23.5639H4.88178V24.5483H5.78784L5.30867 25.6024L6.20484 26.0098L6.86912 24.5483H14.7126L14.3434 23.5639H7.31658L8.06235 21.9233H13.7283L13.3591 20.9389H8.5098L8.95715 19.9545H12.9898L12.6207 18.9702H9.40466L9.8024 18.0952H12.2926L12.0466 17.4389H14.3029L14.631 17.1108H10.2499L10.5799 16.3848L9.68373 15.9774ZM13.4671 18.4233L15.6743 24.3096C16.0036 23.8588 16.5355 23.5639 17.1318 23.5639C17.7835 23.5639 18.3585 23.916 18.6759 24.4389H21.7127C22.0301 23.916 22.6052 23.5639 23.2568 23.5639C23.8269 23.5639 24.3379 23.8335 24.6695 24.251L26.1264 18.4233H13.4671ZM17.1318 24.5483C16.673 24.5483 16.3115 24.9098 16.3115 25.3686C16.3115 25.8274 16.673 26.1889 17.1318 26.1889C17.5907 26.1889 17.9521 25.8274 17.9521 25.3686C17.9521 24.9098 17.5907 24.5483 17.1318 24.5483ZM23.2568 24.5483C22.798 24.5483 22.4365 24.9098 22.4365 25.3686C22.4365 25.8274 22.798 26.1889 23.2568 26.1889C23.7157 26.1889 24.0771 25.8274 24.0771 25.3686C24.0771 24.9098 23.7157 24.5483 23.2568 24.5483Z" fill="#007AFF"/>
</svg>
