<svg width="22" height="22" viewBox="0 0 22 22" fill="none" xmlns="http://www.w3.org/2000/svg">
<path d="M7.8503 18.7992C8.61683 19.6377 9.73834 20.1665 10.9878 20.1665C12.2372 20.1665 13.3587 19.6377 14.1253 18.7992M15.1711 0.916504C17.6675 2.11428 19.5349 4.35063 20.167 7.04M17.26 12.2713V9.05955C17.26 5.70494 14.4623 3.00117 10.9878 3.00117C7.51325 3.00117 4.67764 5.58968 4.67764 9.05955V12.2496C4.67764 12.7374 4.59889 13.2221 4.4444 13.6849L3.6721 15.9988C3.65095 16.0621 3.69817 16.1275 3.76504 16.1275H18.1655C18.2362 16.1275 18.2864 16.061 18.2647 15.9961L17.4871 13.6665C17.3367 13.2157 17.26 12.745 17.26 12.2713Z" stroke="#979AA0" stroke-width="1.67" stroke-linecap="round"/>
</svg>
