<svg width="22" height="22" viewBox="0 0 22 22" fill="none" xmlns="http://www.w3.org/2000/svg">
<g clip-path="url(#clip0_936_8899)">
<path d="M8.49967 1.8335L13.4997 1.8335C15.8332 1.8335 17 1.8335 17.8913 2.28764C18.6753 2.68711 19.3127 3.32453 19.7122 4.10854C20.1663 4.99983 20.1663 6.16661 20.1663 8.50016V13.5002C20.1663 15.8337 20.1663 17.0005 19.7122 17.8918C19.3127 18.6758 18.6753 19.3132 17.8913 19.7127C17 20.1668 15.8332 20.1668 13.4997 20.1668H8.49967M8.49967 1.8335C6.16612 1.8335 4.99935 1.8335 4.10805 2.28764C3.32404 2.68711 2.68662 3.32453 2.28715 4.10854C1.83301 4.99983 1.83301 6.16661 1.83301 8.50016L1.83301 13.5002C1.83301 15.8337 1.83301 17.0005 2.28715 17.8918C2.68662 18.6758 3.32404 19.3132 4.10805 19.7127C4.99935 20.1668 6.16612 20.1668 8.49967 20.1668M8.49967 1.8335L8.49967 20.1668M8.49967 11.0002H20.1663" stroke="#979AA0" stroke-width="2" stroke-linecap="round"/>
</g>
<defs>
<clipPath id="clip0_936_8899">
<rect width="22" height="22" fill="white"/>
</clipPath>
</defs>
</svg>
