<svg width="32" height="32" viewBox="0 0 32 32" fill="none" xmlns="http://www.w3.org/2000/svg">
<path d="M4 3.5C4 2.67157 4.67157 2 5.5 2H19L28 11V28.5C28 29.3284 27.3284 30 26.5 30H5.5C4.67157 30 4 29.3284 4 28.5V3.5Z" fill="url(#paint0_linear_1519_11845)"/>
<path d="M19 9.5V2L28 11H20.5C19.6716 11 19 10.3284 19 9.5Z" fill="#BA253D"/>
<path d="M8.72461 21.9996V17.0996H10.8456C11.2843 17.0996 11.6623 17.1719 11.9796 17.3166C12.2969 17.4566 12.5419 17.6596 12.7146 17.9256C12.8873 18.1916 12.9736 18.5089 12.9736 18.8776C12.9736 19.2416 12.8873 19.5566 12.7146 19.8226C12.5419 20.0886 12.2969 20.2939 11.9796 20.4386C11.6623 20.5786 11.2843 20.6486 10.8456 20.6486H9.35461L9.85861 20.1376V21.9996H8.72461ZM9.85861 20.2636L9.35461 19.7246H10.7826C11.1326 19.7246 11.3939 19.6499 11.5666 19.5006C11.7393 19.3513 11.8256 19.1436 11.8256 18.8776C11.8256 18.6069 11.7393 18.3969 11.5666 18.2476C11.3939 18.0983 11.1326 18.0236 10.7826 18.0236H9.35461L9.85861 17.4846V20.2636Z" fill="white"/>
<path d="M13.9832 21.9996V17.0996H16.2092C16.7412 17.0996 17.2102 17.2023 17.6162 17.4076C18.0222 17.6083 18.3395 17.8906 18.5682 18.2546C18.7969 18.6186 18.9112 19.0503 18.9112 19.5496C18.9112 20.0443 18.7969 20.4759 18.5682 20.8446C18.3395 21.2086 18.0222 21.4933 17.6162 21.6986C17.2102 21.8993 16.7412 21.9996 16.2092 21.9996H13.9832ZM15.1172 21.0686H16.1532C16.4799 21.0686 16.7622 21.0079 17.0002 20.8866C17.2429 20.7606 17.4295 20.5833 17.5602 20.3546C17.6955 20.1259 17.7632 19.8576 17.7632 19.5496C17.7632 19.2369 17.6955 18.9686 17.5602 18.7446C17.4295 18.5159 17.2429 18.3409 17.0002 18.2196C16.7622 18.0936 16.4799 18.0306 16.1532 18.0306H15.1172V21.0686Z" fill="white"/>
<path d="M21.0164 19.3046H23.3684V20.2146H21.0164V19.3046ZM21.1004 21.9996H19.9664V17.0996H23.6694V18.0096H21.1004V21.9996Z" fill="white"/>
<defs>
<linearGradient id="paint0_linear_1519_11845" x1="16" y1="2" x2="16" y2="30" gradientUnits="userSpaceOnUse">
<stop stop-color="#FA6976"/>
<stop offset="1" stop-color="#E44B5F"/>
</linearGradient>
</defs>
</svg>
