<svg width="40" height="40" viewBox="0 0 40 40" fill="none" xmlns="http://www.w3.org/2000/svg">
<path d="M11.25 20C10.9185 20 10.6005 20.1317 10.3661 20.3661C10.1317 20.6005 10 20.9185 10 21.25V27.5C10 27.8315 10.1317 28.1495 10.3661 28.3839C10.6005 28.6183 10.9185 28.75 11.25 28.75C11.5815 28.75 11.8995 28.6183 12.1339 28.3839C12.3683 28.1495 12.5 27.8315 12.5 27.5V26.25H13.125C13.9538 26.25 14.7487 25.9208 15.3347 25.3347C15.9208 24.7487 16.25 23.9538 16.25 23.125C16.25 22.2962 15.9208 21.5013 15.3347 20.9153C14.7487 20.3292 13.9538 20 13.125 20H11.25ZM13.125 23.75H12.5V22.5H13.125C13.2908 22.5 13.4497 22.5658 13.5669 22.6831C13.6842 22.8003 13.75 22.9592 13.75 23.125C13.75 23.2908 13.6842 23.4497 13.5669 23.5669C13.4497 23.6842 13.2908 23.75 13.125 23.75ZM17.5 21.25C17.5 20.9185 17.6317 20.6005 17.8661 20.3661C18.1005 20.1317 18.4185 20 18.75 20H19.375C20.5353 20 21.6481 20.4609 22.4686 21.2814C23.2891 22.1019 23.75 23.2147 23.75 24.375C23.75 25.5353 23.2891 26.6481 22.4686 27.4686C21.6481 28.2891 20.5353 28.75 19.375 28.75H18.75C18.4185 28.75 18.1005 28.6183 17.8661 28.3839C17.6317 28.1495 17.5 27.8315 17.5 27.5V21.25ZM20 26.1438C20.3662 26.0149 20.6835 25.7756 20.9079 25.4587C21.1323 25.1419 21.2528 24.7632 21.2528 24.375C21.2528 23.9868 21.1323 23.6081 20.9079 23.2913C20.6835 22.9744 20.3662 22.7351 20 22.6062V26.1438ZM25 27.5V21.25C25 20.9185 25.1317 20.6005 25.3661 20.3661C25.6005 20.1317 25.9185 20 26.25 20H30C30.3315 20 30.6495 20.1317 30.8839 20.3661C31.1183 20.6005 31.25 20.9185 31.25 21.25C31.25 21.5815 31.1183 21.8995 30.8839 22.1339C30.6495 22.3683 30.3315 22.5 30 22.5H27.5V23.75H30C30.3315 23.75 30.6495 23.8817 30.8839 24.1161C31.1183 24.3505 31.25 24.6685 31.25 25C31.25 25.3315 31.1183 25.6495 30.8839 25.8839C30.6495 26.1183 30.3315 26.25 30 26.25H27.5V27.5C27.5 27.8315 27.3683 28.1495 27.1339 28.3839C26.8995 28.6183 26.5815 28.75 26.25 28.75C25.9185 28.75 25.6005 28.6183 25.3661 28.3839C25.1317 28.1495 25 27.8315 25 27.5ZM7.5 6.25V16.25H6.25C5.58696 16.25 4.95107 16.5134 4.48223 16.9822C4.01339 17.4511 3.75 18.087 3.75 18.75V30C3.75 30.663 4.01339 31.2989 4.48223 31.7678C4.95107 32.2366 5.58696 32.5 6.25 32.5H7.5V33.75C7.5 34.7446 7.89509 35.6984 8.59835 36.4017C9.30161 37.1049 10.2554 37.5 11.25 37.5H28.75C29.7446 37.5 30.6984 37.1049 31.4017 36.4017C32.1049 35.6984 32.5 34.7446 32.5 33.75V32.5H33.75C34.413 32.5 35.0489 32.2366 35.5178 31.7678C35.9866 31.2989 36.25 30.663 36.25 30V18.75C36.25 18.087 35.9866 17.4511 35.5178 16.9822C35.0489 16.5134 34.413 16.25 33.75 16.25H32.5V12.285C32.4995 11.291 32.1043 10.3378 31.4013 9.635L25.3662 3.5975C24.6629 2.89465 23.7093 2.49988 22.715 2.5H11.25C10.2554 2.5 9.30161 2.89509 8.59835 3.59835C7.89509 4.30161 7.5 5.25544 7.5 6.25ZM11.25 5H20V11.25C20 12.2446 20.3951 13.1984 21.0983 13.9017C21.8016 14.6049 22.7554 15 23.75 15H30V16.25H10V6.25C10 5.91848 10.1317 5.60054 10.3661 5.36612C10.6005 5.1317 10.9185 5 11.25 5ZM10 33.75V32.5H30V33.75C30 34.0815 29.8683 34.3995 29.6339 34.6339C29.3995 34.8683 29.0815 35 28.75 35H11.25C10.9185 35 10.6005 34.8683 10.3661 34.6339C10.1317 34.3995 10 34.0815 10 33.75ZM30 12.285V12.5H23.75C23.4185 12.5 23.1005 12.3683 22.8661 12.1339C22.6317 11.8995 22.5 11.5815 22.5 11.25V5H22.715C23.0465 5.00007 23.3644 5.13181 23.5987 5.36625L29.6338 11.4013C29.8682 11.6356 29.9999 11.9535 30 12.285ZM6.25 18.75H33.75V30H6.25V18.75Z" fill="white"/>
</svg>
