<svg width="64" height="64" viewBox="0 0 64 64" fill="none" xmlns="http://www.w3.org/2000/svg">
<path d="M32.9244 61.392L30.2615 45.0008L28.622 60.9816L23.0898 57.9075L29.2178 36.7891L34.358 45.2054L36.8161 56.6794L32.9244 61.392ZM13.7131 60.907L12.7356 57.4254L9.26365 56.2976L12.7434 55.3194L13.8709 51.8464L14.8496 55.327L18.3225 56.4557L14.842 57.4333L13.7131 60.907ZM21.3306 53.9725L17.7094 53.6922L9.6894 40.5185L9.1709 30.1548L18.9788 33.9473L25.3663 42.443L23.3165 50.312L15.4284 39.9313L21.3309 53.9725H21.3306ZM39.5385 50.378L37.411 50.1121L36.3475 44.6591L34.5625 41.3124L46.0368 29.8383L49.9305 31.0664L48.2911 40.2869L39.5386 50.3779L39.5385 50.378ZM41.832 45.1413L45.2408 41.0762L46.4883 35.9609L43.3404 40.0259L41.832 45.1413ZM26.2174 40.3406L21.4015 33.8881L24.1678 20.26L33.7985 8.3785L41.6866 19.0319L40.8679 32.2488L33.4914 39.8288L28.7789 32.6571L26.2174 40.3406ZM32.1324 34.4344L35.5299 22.6094L38.6221 19.7521L35.1184 20.2334L33.7269 14.8234L32.9071 20.2334L27.239 20.9229L32.8775 22.9441L32.1325 34.4341L32.1324 34.4344ZM19.9764 31.9685L16.4919 26.4351L17.7219 14.7585L21.6148 22.5443L19.9763 31.9686L19.9764 31.9685ZM49.0087 29.161L47.7749 24.7641L43.3903 23.34L47.7844 22.1041L49.2085 17.7196L50.4443 22.1146L54.8288 23.5399L50.4346 24.7736L49.0084 29.1611L49.0087 29.161ZM22.2711 16.9181L20.7281 11.4194L15.2436 9.63813L20.7406 8.0925L22.5215 2.608L24.0674 8.105L29.5508 9.88788L24.0548 11.4316L22.2711 16.9181Z" fill="white"/>
</svg>
