<svg width="64" height="64" viewBox="0 0 64 64" fill="none" xmlns="http://www.w3.org/2000/svg">
<mask id="mask0_1949_44760" style="mask-type:luminance" maskUnits="userSpaceOnUse" x="4" y="7" width="56" height="50">
<path d="M54.6663 16H25.333C23.1239 16 21.333 17.7909 21.333 20V36C21.333 38.2091 23.1239 40 25.333 40H54.6663C56.8755 40 58.6663 38.2091 58.6663 36V20C58.6663 17.7909 56.8755 16 54.6663 16Z" fill="white" stroke="white" stroke-width="2" stroke-linejoin="round"/>
<path d="M32 24V32M48 24V32" stroke="black" stroke-width="2" stroke-linecap="round"/>
<path d="M47.9997 16V8H31.9997V16M58.6663 48H15.9997C15.2924 48 14.6142 47.7191 14.1141 47.219C13.614 46.7189 13.333 46.0406 13.333 45.3333V14.6667C13.333 13.9594 13.0521 13.2811 12.552 12.781C12.0519 12.281 11.3736 12 10.6663 12H5.33301" stroke="white" stroke-width="2" stroke-linecap="round" stroke-linejoin="round"/>
<path d="M25.333 56C24.2721 56 23.2547 55.5786 22.5046 54.8284C21.7544 54.0783 21.333 53.0609 21.333 52V48H29.333V52C29.333 53.0609 28.9116 54.0783 28.1614 54.8284C27.4113 55.5786 26.3939 56 25.333 56ZM49.333 56C48.2721 56 47.2547 55.5786 46.5046 54.8284C45.7544 54.0783 45.333 53.0609 45.333 52V48H53.333V52C53.333 53.0609 52.9116 54.0783 52.1614 54.8284C51.4113 55.5786 50.3939 56 49.333 56Z" fill="white" stroke="white" stroke-width="2" stroke-linecap="round" stroke-linejoin="round"/>
</mask>
<g mask="url(#mask0_1949_44760)">
<path d="M0 0H64V64H0V0Z" fill="white"/>
</g>
</svg>
