<svg width="20" height="20" viewBox="0 0 20 20" fill="none" xmlns="http://www.w3.org/2000/svg">
<path d="M9.08203 8.18262H11.832C12.7487 8.18264 13.5854 8.52207 14.2266 9.08008C11.346 9.26332 9.06641 11.6573 9.06641 14.584C9.06641 15.2208 9.1745 15.8323 9.37305 16.4014H5.43066V11.834C5.43066 9.81758 7.06559 8.18262 9.08203 8.18262ZM3.58203 10.0166H4.49902C4.602 10.0166 4.70368 10.0221 4.80371 10.0332C4.59671 10.5574 4.4834 11.1313 4.4834 11.7324V16.4014H0.847656V12.751L0.861328 12.4707C1.0015 11.092 2.16638 10.0166 3.58203 10.0166ZM14.5762 13.041C13.7239 13.0411 13.0332 13.7317 13.0332 14.584C13.0332 15.4363 13.7239 16.1268 14.5762 16.127C15.4286 16.127 16.1201 15.4364 16.1201 14.584C16.1201 13.7316 15.4286 13.041 14.5762 13.041ZM4.04004 4.5166C5.297 4.5166 6.31625 5.53511 6.31641 6.79199C6.31641 8.04901 5.29705 9.06836 4.04004 9.06836C2.78318 9.06818 1.76465 8.04889 1.76465 6.79199C1.76481 5.53523 2.78324 4.51679 4.04004 4.5166ZM10.457 0.849609C12.2202 0.849609 13.6493 2.27886 13.6494 4.04199C13.6494 5.80527 12.2203 7.23535 10.457 7.23535C8.69376 7.23535 7.26465 5.80527 7.26465 4.04199C7.26481 2.27886 8.69386 0.849609 10.457 0.849609ZM13.3193 18.1748L13.3086 18.1719C12.8678 18.0159 12.4596 17.7797 12.1045 17.4756L12.0967 17.4678L12.0869 17.4736L11.249 17.9561L9.99219 15.7773L10.8281 15.2959L10.8379 15.29L10.8359 15.2793C10.7936 15.0499 10.7724 14.8172 10.7725 14.584L10.7764 14.4062C10.7845 14.2303 10.8047 14.0575 10.8359 13.8887L10.8379 13.877L10.8281 13.8721L9.99219 13.3887L11.249 11.2109L12.0869 11.6943L12.0967 11.7002L12.1045 11.6924C12.4596 11.3882 12.8678 11.1521 13.3086 10.9961L13.3193 10.9922V10.0166H15.834V10.9932L15.8447 10.9971C16.2853 11.1531 16.6939 11.3883 17.0488 11.6924L17.0566 11.7002L17.0664 11.6943L17.9033 11.21L19.1602 13.3887L18.3242 13.8721L18.3145 13.8779L18.3164 13.8887C18.3587 14.118 18.38 14.3508 18.3799 14.584L18.376 14.7588C18.3681 14.9333 18.3481 15.1073 18.3164 15.2793L18.3145 15.29L18.3242 15.2959L19.1611 15.7783L17.9033 17.957L17.0664 17.4736L17.0566 17.4678L17.0488 17.4746C16.6938 17.7787 16.2853 18.0149 15.8447 18.1709L15.834 18.1748V19.1514H13.3193V18.1748Z" fill="white" stroke="#F9F9F9" stroke-width="0.03125"/>
</svg>
