<svg width="18" height="18" viewBox="0 0 18 18" fill="none" xmlns="http://www.w3.org/2000/svg">
<path d="M15.9096 17.0904C16.2357 17.4165 16.7643 17.4165 17.0904 17.0904C17.4165 16.7643 17.4165 16.2357 17.0904 15.9096L15.9096 17.0904ZM13.0179 7.67647C13.0179 10.6265 10.6265 13.0179 7.67647 13.0179V14.6879C11.5488 14.6879 14.6879 11.5488 14.6879 7.67647H13.0179ZM7.67647 13.0179C4.72646 13.0179 2.335 10.6265 2.335 7.67647H0.665C0.665 11.5488 3.80414 14.6879 7.67647 14.6879V13.0179ZM2.335 7.67647C2.335 4.72646 4.72646 2.335 7.67647 2.335V0.665C3.80414 0.665 0.665 3.80414 0.665 7.67647H2.335ZM7.67647 2.335C10.6265 2.335 13.0179 4.72646 13.0179 7.67647H14.6879C14.6879 3.80414 11.5488 0.665 7.67647 0.665V2.335ZM11.4978 12.6787L15.9096 17.0904L17.0904 15.9096L12.6787 11.4978L11.4978 12.6787Z" fill="#979AA0"/>
</svg>
