<svg width="20" height="20" viewBox="0 0 20 20" fill="none" xmlns="http://www.w3.org/2000/svg">
<g clip-path="url(#clip0_1609_29581)">
<g clip-path="url(#clip1_1609_29581)">
<path d="M13.8254 5.40193H14.5984M13.8254 6.17489H14.5984M16.2734 1.66602H10.4282C9.88153 1.66602 9.35724 1.88318 8.97069 2.26974L2.27169 8.96873C1.46673 9.7737 1.46673 11.0788 2.27169 11.8838L8.1169 17.729C8.92186 18.5339 10.227 18.5339 11.0319 17.729L17.7309 11.03C18.1175 10.6434 18.3346 10.1191 18.3346 9.57246V3.72725C18.3346 2.58886 17.4118 1.66602 16.2734 1.66602ZM15.2428 5.78848C15.2428 6.35767 14.7814 6.81909 14.2122 6.81909C13.643 6.81909 13.1816 6.35767 13.1816 5.78848C13.1816 5.21928 13.643 4.75786 14.2122 4.75786C14.7814 4.75786 15.2428 5.21928 15.2428 5.78848Z" stroke="#979AA0" stroke-width="1.67" stroke-linecap="round"/>
</g>
</g>
<defs>
<clipPath id="clip0_1609_29581">
<path d="M0 6C0 2.68629 2.68629 0 6 0H14C17.3137 0 20 2.68629 20 6V14C20 17.3137 17.3137 20 14 20H6C2.68629 20 0 17.3137 0 14V6Z" fill="white"/>
</clipPath>
<clipPath id="clip1_1609_29581">
<rect width="20" height="20" fill="white"/>
</clipPath>
</defs>
</svg>
