<svg width="20" height="20" viewBox="0 0 20 20" fill="none" xmlns="http://www.w3.org/2000/svg">
<path d="M14.3849 11.539C14.2992 11.6143 14.2355 11.7113 14.2006 11.8198C14.1657 11.9284 14.1608 12.0443 14.1865 12.1554L15.2427 16.7289C15.2706 16.8483 15.2628 16.9733 15.2201 17.0883C15.1775 17.2034 15.1019 17.3033 15.0029 17.3757C14.9039 17.4481 14.7857 17.4897 14.6632 17.4954C14.5406 17.5011 14.4191 17.4706 14.3138 17.4078L10.3216 14.9859C10.2246 14.9269 10.1133 14.8957 9.99973 14.8957C9.8862 14.8957 9.77486 14.9269 9.67786 14.9859L5.68567 17.4078C5.58033 17.4706 5.45883 17.5011 5.33629 17.4954C5.21376 17.4897 5.09561 17.4481 4.99657 17.3757C4.89754 17.3033 4.82199 17.2034 4.77935 17.0883C4.7367 16.9733 4.72885 16.8483 4.75676 16.7289L5.81301 12.1554C5.83869 12.0443 5.83379 11.9284 5.79886 11.8198C5.76392 11.7113 5.70024 11.6143 5.61457 11.539L2.09036 8.46479C1.99614 8.38471 1.92779 8.27849 1.89396 8.15955C1.86013 8.04062 1.86234 7.91432 1.90032 7.79664C1.93829 7.67896 2.01031 7.57519 2.10728 7.49846C2.20424 7.42173 2.32179 7.37548 2.44504 7.36558L7.09036 6.96401C7.20369 6.95392 7.31212 6.91307 7.40395 6.84589C7.49578 6.7787 7.56752 6.68772 7.61145 6.58276L9.42629 2.25776C9.47477 2.14594 9.55488 2.05074 9.65676 1.98386C9.75864 1.91698 9.87786 1.88135 9.99973 1.88135C10.1216 1.88135 10.2408 1.91698 10.3427 1.98386C10.4446 2.05074 10.5247 2.14594 10.5732 2.25776L12.388 6.58276C12.4319 6.68772 12.5037 6.7787 12.5955 6.84589C12.6873 6.91307 12.7958 6.95392 12.9091 6.96401L17.5544 7.36558C17.6777 7.37548 17.7952 7.42173 17.8922 7.49846C17.9892 7.57519 18.0612 7.67896 18.0991 7.79664C18.1371 7.91432 18.1393 8.04062 18.1055 8.15955C18.0717 8.27849 18.0033 8.38471 17.9091 8.46479L14.3849 11.539Z" fill="#1C1C1C" fill-opacity="0.1"/>
<path d="M18.6875 7.60063C18.6118 7.36733 18.4692 7.16146 18.2773 7.00865C18.0855 6.85584 17.8529 6.76285 17.6086 6.74125L12.9688 6.34125L11.15 2.01625C11.0553 1.78931 10.8956 1.59546 10.691 1.45911C10.4863 1.32276 10.2459 1.25 10 1.25C9.75411 1.25 9.51371 1.32276 9.30907 1.45911C9.10443 1.59546 8.94471 1.78931 8.85002 2.01625L7.03674 6.34125L2.39142 6.74359C2.14614 6.76421 1.9124 6.85678 1.71952 7.0097C1.52663 7.16262 1.38319 7.36909 1.30718 7.60321C1.23117 7.83733 1.22598 8.08868 1.29225 8.32574C1.35852 8.5628 1.49331 8.77502 1.6797 8.93578L5.20392 12.0155L4.14767 16.5889C4.09182 16.8282 4.10776 17.0787 4.19349 17.309C4.27923 17.5394 4.43095 17.7393 4.6297 17.8839C4.82845 18.0284 5.0654 18.1112 5.31093 18.1218C5.55647 18.1324 5.79968 18.0704 6.01017 17.9436L9.99455 15.5217L13.9875 17.9436C14.198 18.0704 14.4412 18.1324 14.6868 18.1218C14.9323 18.1112 15.1692 18.0284 15.368 17.8839C15.5667 17.7393 15.7185 17.5394 15.8042 17.309C15.8899 17.0787 15.9059 16.8282 15.85 16.5889L14.7945 12.0108L18.318 8.93578C18.5044 8.77446 18.6389 8.56164 18.7046 8.32408C18.7704 8.08651 18.7644 7.83481 18.6875 7.60063ZM17.4985 7.99125L13.975 11.0662C13.8035 11.2154 13.676 11.4085 13.606 11.6248C13.5361 11.841 13.5265 12.0723 13.5781 12.2936L14.6367 16.8748L10.6469 14.453C10.4522 14.3344 10.2287 14.2717 10.0008 14.2717C9.77288 14.2717 9.54936 14.3344 9.3547 14.453L5.37033 16.8748L6.42189 12.2967C6.47357 12.0754 6.46393 11.8442 6.394 11.6279C6.32407 11.4116 6.1965 11.2185 6.02502 11.0694L2.50002 7.99594C2.49973 7.9936 2.49973 7.99124 2.50002 7.98891L7.14377 7.58734C7.37049 7.56736 7.58745 7.48585 7.77125 7.35162C7.95505 7.21738 8.09871 7.03551 8.18674 6.82563L10 2.50609L11.8125 6.82563C11.9005 7.03551 12.0442 7.21738 12.228 7.35162C12.4118 7.48585 12.6288 7.56736 12.8555 7.58734L17.5 7.98891C17.5 7.98891 17.5 7.99359 17.5 7.99438L17.4985 7.99125Z" fill="#CDCDCE"/>
</svg>
