<svg width="32" height="16" viewBox="0 0 32 16" fill="none" xmlns="http://www.w3.org/2000/svg">
<path d="M6.40625 2.19926C6.35625 2.19926 6.3 2.20238 6.25 2.20613C4.31313 2.37207 2.37 4.52113 1.725 5.29926H15.9L16.6437 4.55238C15.8687 3.92738 14.4375 2.97863 13 3.01863C12.0562 3.04363 10.25 4.08051 10.25 4.08051C10.25 4.08051 8.0375 2.18957 6.40625 2.19926ZM18.6 3.86176L16.6 5.86176H11.6187L9.075 8.83051C10.45 8.93363 11.6625 9.28988 12.5125 9.79926H17.9875C18.2875 9.61801 18.6313 9.45863 19.0125 9.32113L20.8 5.29926H23.8563L24.875 3.86176H18.6ZM1.3125 5.86176V8.36176L2.16062 8.47113L4.39813 5.86176H1.3125ZM5.61938 5.86176L3.25875 8.61488L4.85625 8.82426L7.39375 5.86176H5.61938ZM8.61875 5.86176L5.955 8.96801L6.18625 8.99926C6.7125 8.89301 7.28125 8.82426 7.875 8.80551L10.3938 5.86176H8.61875ZM21.7 5.86176L20.3188 8.97113C20.9188 8.86176 21.575 8.79926 22.25 8.79926C24.7687 8.79926 26.9125 9.64613 27.5875 10.7993H30.6875V8.28363L27.7812 7.79926L26.8125 5.86176H24.6437H21.7ZM22.8125 6.29926H25.6875L26.4688 7.86176H22.0312L22.7062 6.51176L22.8125 6.29926ZM8.25 9.36176C5.7925 9.36176 3.8125 10.3524 3.8125 11.5805C3.8125 12.8086 5.7925 13.7993 8.25 13.7993C10.7062 13.7993 12.6875 12.8086 12.6875 11.5805C12.6875 10.3524 10.7062 9.36176 8.25 9.36176ZM22.25 9.36176C19.7938 9.36176 17.8125 10.3524 17.8125 11.5805C17.8125 12.8086 19.7938 13.7993 22.25 13.7993C24.7062 13.7993 26.6875 12.8086 26.6875 11.5805C26.6875 10.3524 24.7062 9.36176 22.25 9.36176ZM2.21125 10.3618L1.43625 12.2993H2.87687C2.75375 12.0711 2.6875 11.8274 2.6875 11.5805C2.6875 11.143 2.89063 10.7305 3.2525 10.3618H2.21125ZM13.25 10.3618C13.6062 10.7305 13.8125 11.143 13.8125 11.5805C13.8125 11.8274 13.7437 12.0711 13.625 12.2993H16.875C16.7563 12.0711 16.6875 11.8274 16.6875 11.5805C16.6875 11.143 16.8938 10.7305 17.25 10.3618H13.25ZM8.25 10.5805C8.78043 10.5805 9.28914 10.6859 9.66421 10.8734C10.0393 11.0609 10.25 11.3153 10.25 11.5805C10.25 11.8457 10.0393 12.1001 9.66421 12.2876C9.28914 12.4751 8.78043 12.5805 8.25 12.5805C7.71957 12.5805 7.21086 12.4751 6.83579 12.2876C6.46071 12.1001 6.25 11.8457 6.25 11.5805C6.25 11.3153 6.46071 11.0609 6.83579 10.8734C7.21086 10.6859 7.71957 10.5805 8.25 10.5805ZM22.25 10.5805C22.7804 10.5805 23.2891 10.6859 23.6642 10.8734C24.0393 11.0609 24.25 11.3153 24.25 11.5805C24.25 11.8457 24.0393 12.1001 23.6642 12.2876C23.2891 12.4751 22.7804 12.5805 22.25 12.5805C21.7196 12.5805 21.2109 12.4751 20.8358 12.2876C20.4607 12.1001 20.25 11.8457 20.25 11.5805C20.25 11.3153 20.4607 11.0609 20.8358 10.8734C21.2109 10.6859 21.7196 10.5805 22.25 10.5805ZM27.7938 11.3618C27.8063 11.4336 27.8125 11.5055 27.8125 11.5805C27.8125 11.9149 27.6938 12.2336 27.475 12.5336L30.6875 11.8899V11.3618H27.7938Z" fill="white"/>
</svg>
