<svg width="25" height="8" viewBox="0 0 25 8" fill="none" xmlns="http://www.w3.org/2000/svg">
<path fill-rule="evenodd" clip-rule="evenodd" d="M6.2139 7.87416H4.14132L2.58714 1.77049C2.51337 1.48972 2.35674 1.2415 2.12634 1.12451C1.55135 0.830521 0.917758 0.596547 0.226562 0.478542V0.243551H3.56532C4.02612 0.243551 4.37172 0.596547 4.42932 1.00651L5.23571 5.40929L7.30728 0.243551H9.32226L6.2139 7.87416ZM10.4739 7.87416H8.51652L10.1283 0.243551H12.0857L10.4739 7.87416ZM14.6189 2.3563C14.6765 1.94532 15.0221 1.71033 15.4253 1.71033C16.0589 1.65133 16.7491 1.76933 17.3251 2.06231L17.6707 0.419402C17.0947 0.184411 16.4611 0.0664062 15.8861 0.0664062C13.9863 0.0664062 12.6039 1.12336 12.6039 2.59028C12.6039 3.70623 13.5831 4.29218 14.2743 4.64518C15.0221 4.99716 15.3101 5.23215 15.2525 5.58413C15.2525 6.1121 14.6765 6.34709 14.1015 6.34709C13.4103 6.34709 12.7191 6.1711 12.0865 5.87711L11.741 7.52103C12.4321 7.81401 13.1799 7.93201 13.8711 7.93201C16.0013 7.99 17.3251 6.93406 17.3251 5.34914C17.3251 3.35324 14.6189 3.23625 14.6189 2.3563ZM24.1742 7.87416L22.62 0.243551H20.9506C20.605 0.243551 20.2594 0.478542 20.1442 0.830521L17.2663 7.87416H19.2812L19.6834 6.75922H22.1592L22.3896 7.87416H24.1742ZM21.2389 2.29763L21.8139 5.17348H20.2021L21.2389 2.29763Z" fill="white"/>
</svg>
