<svg width="22" height="22" viewBox="0 0 22 22" fill="none" xmlns="http://www.w3.org/2000/svg">
<path d="M19.0321 17.1991L19.8404 16.9895V16.9895L19.0321 17.1991ZM18.818 16.3738L18.0098 16.5835L18.0098 16.5835L18.818 16.3738ZM3.18199 16.3738L2.37374 16.1641H2.37374L3.18199 16.3738ZM2.96788 17.1991L3.77613 17.4088L2.96788 17.1991ZM3.92752 15.204L3.61415 14.43H3.61415L3.92752 15.204ZM3.48526 15.5368L4.14462 16.0491H4.14462L3.48526 15.5368ZM18.5147 15.5368L17.8554 16.0491V16.0491L18.5147 15.5368ZM18.0725 15.204L18.3858 14.43H18.3858L18.0725 15.204ZM18.7478 19.1008L18.3268 18.3798H18.3268L18.7478 19.1008ZM19.2159 18.5231L20.011 18.7781V18.7781L19.2159 18.5231ZM3.25218 19.1008L3.67322 18.3798H3.67322L3.25218 19.1008ZM2.78413 18.5231L3.57924 18.2681H3.57924L2.78413 18.5231ZM10.234 2.08083L9.87153 1.3286L10.234 2.08083ZM3.96782 5.10021L4.33029 5.85244H4.33029L3.96782 5.10021ZM3.20182 7.31482L2.46064 7.69937H2.46064L3.20182 7.31482ZM3.38799 7.67364L4.12917 7.2891L4.12917 7.2891L3.38799 7.67364ZM18.612 7.67364L17.8708 7.2891V7.2891L18.612 7.67364ZM18.7982 7.31482L18.057 6.93028L18.057 6.93028L18.7982 7.31482ZM18.0322 5.10021L18.3946 4.34798V4.34798L18.0322 5.10021ZM11.766 2.08083L12.1285 1.3286L11.766 2.08083ZM19.1984 6.29196L20.0334 6.28538L19.1984 6.29196ZM18.9892 5.68707L18.3263 6.19484L18.3263 6.19484L18.9892 5.68707ZM3.0108 5.68707L2.34793 5.17931L2.34793 5.17931L3.0108 5.68707ZM2.80158 6.29196L1.96661 6.28538L2.80158 6.29196ZM18.4155 7.88766L18.1521 7.09529L18.1521 7.09529L18.4155 7.88766ZM18.5155 7.8281L19.0887 8.43533L19.0887 8.43533L18.5155 7.8281ZM3.58448 7.88766L3.84787 7.09529H3.84787L3.58448 7.88766ZM3.48448 7.8281L2.91133 8.43533L2.91133 8.43533L3.48448 7.8281ZM10.8026 1.85119L10.654 1.02951L10.8026 1.85119ZM11.1974 1.85119L11.346 1.02951L11.1974 1.85119ZM4.81239 14.0918C4.81239 14.553 5.18623 14.9268 5.64739 14.9268C6.10854 14.9268 6.48239 14.553 6.48239 14.0918H4.81239ZM6.48239 7.90176C6.48239 7.4406 6.10854 7.06676 5.64739 7.06676C5.18623 7.06676 4.81239 7.4406 4.81239 7.90176H6.48239ZM10.165 14.0918C10.165 14.553 10.5388 14.9268 11 14.9268C11.4612 14.9268 11.835 14.553 11.835 14.0918H10.165ZM11.835 8.93343C11.835 8.47228 11.4612 8.09843 11 8.09843C10.5388 8.09843 10.165 8.47228 10.165 8.93343H11.835ZM15.5176 14.0918C15.5176 14.553 15.8915 14.9268 16.3526 14.9268C16.8138 14.9268 17.1876 14.553 17.1876 14.0918H15.5176ZM17.1876 8.93343C17.1876 8.47228 16.8138 8.09843 16.3526 8.09843C15.8915 8.09843 15.5176 8.47228 15.5176 8.93343H17.1876ZM4.62958 20.0852H17.3704V18.4152H4.62958V20.0852ZM19.8404 16.9895L19.6263 16.1641L18.0098 16.5835L18.2239 17.4088L19.8404 16.9895ZM17.1563 14.2885H4.84368V15.9585H17.1563V14.2885ZM2.37374 16.1641L2.15964 16.9895L3.77613 17.4088L3.99023 16.5835L2.37374 16.1641ZM4.84368 14.2885C4.44081 14.2885 4.00073 14.2735 3.61415 14.43L4.24089 15.978C4.22728 15.9835 4.2401 15.9734 4.33895 15.9665C4.44763 15.9589 4.5931 15.9585 4.84368 15.9585V14.2885ZM3.99023 16.5835C4.0513 16.3481 4.08622 16.2156 4.11902 16.1193C4.14815 16.0338 4.15828 16.0315 4.14462 16.0491L2.8259 15.0245C2.5653 15.3599 2.47007 15.7928 2.37374 16.1641L3.99023 16.5835ZM3.61415 14.43C3.30488 14.5553 3.03197 14.7593 2.8259 15.0245L4.14462 16.0491C4.16675 16.0206 4.19916 15.9949 4.24089 15.978L3.61415 14.43ZM19.6263 16.1641C19.5299 15.7928 19.4347 15.3599 19.1741 15.0245L17.8554 16.0491C17.8417 16.0315 17.8519 16.0338 17.881 16.1193C17.9138 16.2156 17.9487 16.3481 18.0098 16.5835L19.6263 16.1641ZM17.1563 15.9585C17.4069 15.9585 17.5524 15.9589 17.661 15.9665C17.7599 15.9734 17.7727 15.9835 17.7591 15.978L18.3858 14.43C17.9993 14.2735 17.5592 14.2885 17.1563 14.2885V15.9585ZM19.1741 15.0245C18.968 14.7593 18.6951 14.5553 18.3858 14.43L17.7591 15.978C17.8008 15.9949 17.8332 16.0206 17.8554 16.0491L19.1741 15.0245ZM17.3704 20.0852C17.7295 20.0852 18.0519 20.0859 18.3146 20.0635C18.5824 20.0406 18.8841 19.9882 19.1688 19.8219L18.3268 18.3798C18.3558 18.3628 18.3427 18.385 18.1727 18.3995C17.9976 18.4144 17.7591 18.4152 17.3704 18.4152V20.0852ZM18.2239 17.4088C18.3185 17.7737 18.3744 17.9925 18.4011 18.1552C18.4267 18.3112 18.406 18.3143 18.4208 18.2681L20.011 18.7781C20.1141 18.4567 20.0921 18.1473 20.0491 17.8849C20.0072 17.6292 19.9271 17.3236 19.8404 16.9895L18.2239 17.4088ZM19.1688 19.8219C19.5662 19.5899 19.869 19.2208 20.011 18.7781L18.4208 18.2681C18.408 18.308 18.3777 18.35 18.3268 18.3798L19.1688 19.8219ZM4.62958 18.4152C4.24092 18.4152 4.00242 18.4144 3.8273 18.3995C3.6573 18.385 3.64419 18.3628 3.67322 18.3798L2.83115 19.8219C3.1159 19.9882 3.4176 20.0406 3.68543 20.0635C3.94813 20.0859 4.27046 20.0852 4.62958 20.0852V18.4152ZM2.15964 16.9895C2.07294 17.3237 1.99283 17.6292 1.95089 17.8849C1.90787 18.1473 1.88593 18.4567 1.98902 18.7781L3.57924 18.2681C3.59404 18.3143 3.5733 18.3112 3.59888 18.1552C3.62555 17.9925 3.68146 17.7737 3.77613 17.4088L2.15964 16.9895ZM3.67322 18.3798C3.62225 18.35 3.59204 18.308 3.57924 18.2681L1.98902 18.7781C2.13098 19.2208 2.43385 19.5899 2.83115 19.8219L3.67322 18.3798ZM3.77099 8.73676H18.229V7.06676H3.77099V8.73676ZM9.87153 1.3286L3.60536 4.34798L4.33029 5.85244L10.5965 2.83305L9.87153 1.3286ZM2.46064 7.69937L2.64681 8.05819L4.12917 7.2891L3.943 6.93028L2.46064 7.69937ZM19.3532 8.05819L19.5394 7.69937L18.057 6.93028L17.8708 7.2891L19.3532 8.05819ZM18.3946 4.34798L12.1285 1.3286L11.4035 2.83305L17.6697 5.85244L18.3946 4.34798ZM19.5394 7.69937C19.6669 7.45355 19.7869 7.22376 19.8703 7.02386C19.9573 6.81501 20.0356 6.56916 20.0334 6.28538L18.3634 6.29854C18.3632 6.26244 18.3754 6.26963 18.3289 6.38109C18.2787 6.5015 18.1976 6.65931 18.057 6.93028L19.5394 7.69937ZM17.6697 5.85244C17.9501 5.98752 18.1156 6.068 18.2332 6.13671C18.3433 6.20108 18.344 6.21797 18.3263 6.19484L19.6521 5.17931C19.4817 4.95691 19.272 4.80956 19.0759 4.69492C18.8872 4.58462 18.6506 4.4713 18.3946 4.34798L17.6697 5.85244ZM20.0334 6.28538C20.0302 5.88359 19.895 5.49645 19.6521 5.17931L18.3263 6.19484C18.3519 6.22826 18.3632 6.26461 18.3634 6.29854L20.0334 6.28538ZM3.60536 4.34798C3.34945 4.4713 3.11283 4.58462 2.92412 4.69492C2.72797 4.80956 2.51829 4.95691 2.34793 5.17931L3.67368 6.19484C3.65596 6.21797 3.65667 6.20108 3.7668 6.13671C3.88437 6.068 4.04995 5.98752 4.33029 5.85244L3.60536 4.34798ZM3.943 6.93028C3.80241 6.65931 3.72131 6.5015 3.6711 6.38109C3.62461 6.26963 3.63684 6.26244 3.63656 6.29854L1.96661 6.28538C1.96437 6.56916 2.04266 6.81501 2.12975 7.02386C2.21311 7.22376 2.3331 7.45355 2.46064 7.69937L3.943 6.93028ZM2.34793 5.17931C2.105 5.49645 1.96977 5.88359 1.96661 6.28538L3.63656 6.29854C3.63682 6.26461 3.64807 6.22826 3.67368 6.19484L2.34793 5.17931ZM18.229 8.73676C18.2664 8.73676 18.4776 8.74696 18.6789 8.68003L18.1521 7.09529C18.2252 7.07102 18.2815 7.06715 18.2923 7.0665C18.2968 7.06623 18.2955 7.06645 18.2829 7.0666C18.2701 7.06675 18.2544 7.06676 18.229 7.06676V8.73676ZM17.8708 7.2891C17.8594 7.31113 17.8526 7.32422 17.847 7.33467C17.8415 7.34499 17.8413 7.34488 17.8444 7.33975C17.8519 7.32734 17.8836 7.27634 17.9424 7.22088L19.0887 8.43533C19.248 8.28497 19.3379 8.08763 19.3532 8.05819L17.8708 7.2891ZM18.6789 8.68004C18.8303 8.62973 18.9705 8.54684 19.0887 8.43533L17.9424 7.22087C18.0038 7.16287 18.0758 7.12067 18.1521 7.09529L18.6789 8.68004ZM3.77099 7.06676C3.74556 7.06676 3.72988 7.06675 3.71713 7.0666C3.70452 7.06645 3.70322 7.06623 3.70771 7.0665C3.71851 7.06715 3.77483 7.07102 3.84787 7.09529L3.32109 8.68003C3.52242 8.74696 3.73359 8.73676 3.77099 8.73676V7.06676ZM2.6468 8.05819C2.66207 8.08762 2.75202 8.28497 2.91133 8.43533L4.05763 7.22088C4.1164 7.27635 4.14812 7.32735 4.1556 7.33976C4.15869 7.34488 4.15851 7.34499 4.153 7.33468C4.1474 7.32422 4.1406 7.31113 4.12917 7.2891L2.6468 8.05819ZM3.84787 7.09529C3.9242 7.12067 3.99617 7.16287 4.05763 7.22088L2.91133 8.43533C3.02947 8.54684 3.16975 8.62973 3.32109 8.68003L3.84787 7.09529ZM10.5965 2.83305C10.7444 2.76178 10.8272 2.72213 10.8913 2.69529C10.9473 2.67179 10.958 2.67162 10.9512 2.67286L10.654 1.02951C10.3689 1.08106 10.1105 1.21343 9.87153 1.3286L10.5965 2.83305ZM12.1285 1.3286C11.8895 1.21343 11.6311 1.08106 11.346 1.02951L11.0488 2.67286C11.042 2.67162 11.0527 2.67179 11.1087 2.69529C11.1728 2.72213 11.2556 2.76178 11.4035 2.83305L12.1285 1.3286ZM10.9512 2.67286C10.9834 2.66704 11.0166 2.66704 11.0488 2.67286L11.346 1.02951C11.1173 0.988158 10.8827 0.988158 10.654 1.02951L10.9512 2.67286ZM6.48239 14.0918V7.90176H4.81239V14.0918H6.48239ZM11.835 14.0918V8.93343H10.165V14.0918H11.835ZM17.1876 14.0918V8.93343H15.5176V14.0918H17.1876Z" fill="#979AA0"/>
</svg>
