<svg width="28" height="28" viewBox="0 0 28 28" fill="none" xmlns="http://www.w3.org/2000/svg">
<path d="M20.0105 3.32739C18.9885 3.39225 17.9228 4.00858 16.8284 4.78514C15.6902 5.59288 14.5397 6.54991 13.2942 7.07518C13.2094 7.11073 13.1155 7.11863 13.0259 7.09777C12.9363 7.07691 12.8556 7.02834 12.7952 6.95897C11.9743 6.01233 10.7089 5.28827 8.79096 5.4671C7.74512 5.56444 7.02718 6.04815 6.40177 6.76073C6.1139 7.08885 5.85501 7.4703 5.60716 7.87499H23.2507C22.4189 6.24278 21.662 4.36503 20.0104 3.32739H20.0105ZM2.1875 8.74999V11.1562H24.9375V8.74999H2.1875ZM3.19238 12.0312L5.89088 22.2339H6.45312C6.6235 21.8695 6.85598 21.5376 7.14016 21.2529C7.79182 20.6013 8.70587 20.219 9.6472 20.219C10.5885 20.219 11.5009 20.6013 12.1526 21.2529C12.4366 21.5376 12.6691 21.8695 12.8395 22.2338H15.1894C15.3591 21.88 15.5876 21.5535 15.8679 21.2734C16.5201 20.6212 17.4201 20.248 18.3425 20.248C19.2649 20.248 20.1649 20.6212 20.8171 21.2734C21.0973 21.5536 21.3258 21.88 21.4955 22.2338H21.8254L23.9617 12.0312H3.19238ZM23.3089 19.414L22.9773 21H24.9375V19.414H23.3089ZM9.6472 21.1402C9.00791 21.1402 8.34958 21.4089 7.88353 21.875C7.41748 22.341 7.13158 23.0235 7.13158 23.6985C7.13158 24.3733 7.41748 25.0558 7.88353 25.522C8.34958 25.988 9.00791 26.2568 9.6472 26.2568C10.2865 26.2568 10.9431 25.988 11.4092 25.5219C11.8752 25.0559 12.1628 24.3734 12.1628 23.6985C12.1628 23.0236 11.8752 22.341 11.4092 21.875C10.9431 21.4089 10.2865 21.1402 9.6472 21.1402ZM18.3425 21.2101C17.6842 21.2101 17.0136 21.4881 16.5481 21.9536C16.0826 22.4191 15.8047 23.0897 15.8047 23.748C15.8047 24.4064 16.0826 25.0769 16.5481 25.5425C17.0136 26.0079 17.6842 26.2859 18.3425 26.2859C19.0008 26.2859 19.6714 26.0079 20.137 25.5424C20.6024 25.077 20.8803 24.4064 20.8803 23.748C20.8803 23.0897 20.6025 22.4191 20.1369 21.9536C19.6714 21.4882 19.0007 21.2102 18.3424 21.2102L18.3425 21.2101Z" fill="#0A77FF"/>
</svg>
