<svg width="64" height="64" viewBox="0 0 64 64" fill="none" xmlns="http://www.w3.org/2000/svg">
<path d="M45.7383 7.6055C43.4023 7.75375 40.9665 9.1625 38.465 10.9375C35.8633 12.7837 33.2335 14.9712 30.3867 16.1719C30.1928 16.2531 29.9783 16.2712 29.7735 16.2235C29.5687 16.1758 29.3842 16.0648 29.2461 15.9062C27.3699 13.7425 24.4774 12.0875 20.0936 12.4962C17.7031 12.7187 16.0621 13.8244 14.6326 15.4531C13.9746 16.2031 13.3829 17.075 12.8164 18H53.1444C51.2431 14.2692 49.5131 9.97725 45.7381 7.6055H45.7383ZM5 20V25.5H57V20H5ZM7.29688 27.5L13.4649 50.8204H14.75C15.1394 49.9875 15.6708 49.2288 16.3204 48.5781C17.8099 47.0886 19.8991 46.2149 22.0508 46.2149C24.2024 46.2149 26.2879 47.0886 27.7774 48.578C28.4266 49.2289 28.9578 49.9876 29.3474 50.8203H34.7186C35.1066 50.0115 35.6289 49.2652 36.2694 48.6249C37.7603 47.1341 39.8174 46.2811 41.9256 46.2811C44.034 46.2811 46.0911 47.1341 47.5819 48.6249C48.2224 49.2654 48.7448 50.0114 49.1326 50.8203H49.8866L54.7695 27.5H7.29688ZM53.2775 44.375L52.5195 48H57V44.375H53.2775ZM22.0508 48.3204C20.5895 48.3204 19.0848 48.9347 18.0195 50C16.9543 51.0653 16.3008 52.6252 16.3008 54.168C16.3008 55.7105 16.9543 57.2705 18.0195 58.336C19.0848 59.4012 20.5895 60.0156 22.0508 60.0156C23.512 60.0156 25.0129 59.4013 26.0783 58.3359C27.1433 57.2706 27.8008 55.7106 27.8008 54.168C27.8008 52.6254 27.1433 51.0653 26.0783 50C25.0129 48.9347 23.512 48.3204 22.0508 48.3204ZM41.9258 48.4804C40.4211 48.4804 38.8882 49.1158 37.8242 50.1796C36.7603 51.2438 36.125 52.7765 36.125 54.2812C36.125 55.786 36.7603 57.3187 37.8242 58.3829C38.8882 59.4466 40.4211 60.082 41.9258 60.082C43.4305 60.082 44.9632 59.4468 46.0274 58.3828C47.0911 57.319 47.7264 55.786 47.7264 54.2812C47.7264 52.7765 47.0914 51.2438 46.0272 50.1796C44.9631 49.1159 43.4302 48.4805 41.9255 48.4805L41.9258 48.4804Z" fill="white"/>
</svg>
